<svg width="670" height="526" viewBox="0 0 670 526" fill="none" xmlns="http://www.w3.org/2000/svg">
<rect opacity="0.05" y="494" width="670" height="32" fill="#1C5F87"/>
<rect y="494" width="50" height="32" fill="#FA5B3D"/>
<path d="M10.56 516.128C9.36533 516.128 8.432 515.803 7.76 515.152C7.09867 514.501 6.752 513.584 6.72 512.4H8.288C8.37333 513.925 9.13067 514.688 10.56 514.688C11.3173 514.688 11.8827 514.517 12.256 514.176C12.64 513.824 12.832 513.36 12.832 512.784C12.832 512.229 12.6453 511.781 12.272 511.44C11.9093 511.099 11.3867 510.928 10.704 510.928H9.2V509.552H10.704C11.312 509.552 11.776 509.397 12.096 509.088C12.4267 508.768 12.592 508.352 12.592 507.84C12.592 507.317 12.4213 506.901 12.08 506.592C11.7387 506.272 11.232 506.112 10.56 506.112C9.952 506.112 9.472 506.283 9.12 506.624C8.77867 506.955 8.58133 507.44 8.528 508.08H6.96C6.992 507.013 7.31733 506.181 7.936 505.584C8.56533 504.976 9.44 504.672 10.56 504.672C11.136 504.672 11.648 504.752 12.096 504.912C12.544 505.061 12.9173 505.275 13.216 505.552C13.5253 505.819 13.76 506.149 13.92 506.544C14.08 506.928 14.16 507.349 14.16 507.808C14.16 508.341 14.0427 508.816 13.808 509.232C13.5733 509.648 13.2213 509.979 12.752 510.224C13.296 510.48 13.7067 510.832 13.984 511.28C14.2613 511.728 14.4 512.24 14.4 512.816C14.4 513.307 14.3147 513.755 14.144 514.16C13.984 514.565 13.7387 514.917 13.408 515.216C13.088 515.504 12.688 515.728 12.208 515.888C11.728 516.048 11.1787 516.128 10.56 516.128ZM18.6413 510.528C18.2359 510.528 17.8626 510.464 17.5213 510.336C17.1906 510.208 16.9026 510.027 16.6573 509.792C16.4226 509.557 16.2413 509.28 16.1133 508.96C15.9853 508.64 15.9213 508.288 15.9213 507.904V507.296C15.9213 506.912 15.9853 506.56 16.1133 506.24C16.2413 505.92 16.4226 505.643 16.6573 505.408C16.9026 505.173 17.1906 504.992 17.5213 504.864C17.8626 504.736 18.2359 504.672 18.6413 504.672C19.0466 504.672 19.4146 504.736 19.7453 504.864C20.0759 504.992 20.3586 505.173 20.5933 505.408C20.8386 505.643 21.0253 505.92 21.1533 506.24C21.2919 506.56 21.3613 506.912 21.3613 507.296V507.904C21.3613 508.288 21.2919 508.64 21.1533 508.96C21.0253 509.28 20.8386 509.557 20.5933 509.792C20.3586 510.027 20.0759 510.208 19.7453 510.336C19.4146 510.464 19.0466 510.528 18.6413 510.528ZM18.6413 509.28C19.0573 509.28 19.3826 509.163 19.6173 508.928C19.8626 508.693 19.9852 508.352 19.9852 507.904V507.296C19.9852 506.848 19.8626 506.507 19.6173 506.272C19.3826 506.037 19.0573 505.92 18.6413 505.92C18.2253 505.92 17.8946 506.037 17.6493 506.272C17.4146 506.507 17.2973 506.848 17.2973 507.296V507.904C17.2973 508.352 17.4146 508.693 17.6493 508.928C17.8946 509.163 18.2253 509.28 18.6413 509.28ZM26.3213 516.128C25.9159 516.128 25.5426 516.064 25.2013 515.936C24.8706 515.808 24.5826 515.627 24.3373 515.392C24.1026 515.157 23.9213 514.88 23.7933 514.56C23.6653 514.24 23.6013 513.888 23.6013 513.504V512.896C23.6013 512.512 23.6653 512.16 23.7933 511.84C23.9213 511.52 24.1026 511.243 24.3373 511.008C24.5826 510.773 24.8706 510.592 25.2013 510.464C25.5426 510.336 25.9159 510.272 26.3213 510.272C26.7266 510.272 27.0946 510.336 27.4253 510.464C27.7559 510.592 28.0386 510.773 28.2733 511.008C28.5186 511.243 28.7053 511.52 28.8333 511.84C28.9719 512.16 29.0413 512.512 29.0413 512.896V513.504C29.0413 513.888 28.9719 514.24 28.8333 514.56C28.7053 514.88 28.5186 515.157 28.2733 515.392C28.0386 515.627 27.7559 515.808 27.4253 515.936C27.0946 516.064 26.7266 516.128 26.3213 516.128ZM26.3213 514.88C26.7373 514.88 27.0626 514.763 27.2973 514.528C27.5426 514.293 27.6653 513.952 27.6653 513.504V512.896C27.6653 512.448 27.5426 512.107 27.2973 511.872C27.0626 511.637 26.7373 511.52 26.3213 511.52C25.9053 511.52 25.5746 511.637 25.3293 511.872C25.0946 512.107 24.9773 512.448 24.9773 512.896V513.504C24.9773 513.952 25.0946 514.293 25.3293 514.528C25.5746 514.763 25.9053 514.88 26.3213 514.88ZM24.9453 504.8H26.4813L20.0173 516H18.4813L24.9453 504.8Z" fill="#FAFAFA"/>
<path d="M9.52 485H1.44V487.4H0.32V483.976H1.328C1.56267 483.645 1.75467 483.304 1.904 482.952C2.064 482.589 2.192 482.168 2.288 481.688C2.384 481.208 2.45333 480.632 2.496 479.96C2.53867 479.288 2.56 478.461 2.56 477.48V473.8H9.44V483.976H10.64V487.4H9.52V485ZM3.68 477.48C3.68 478.344 3.664 479.112 3.632 479.784C3.6 480.445 3.54133 481.032 3.456 481.544C3.38133 482.056 3.27467 482.509 3.136 482.904C3.008 483.299 2.84267 483.656 2.64 483.976H8.32V474.824H3.68V477.48ZM15.9909 485.112C15.4362 485.112 14.9455 485.011 14.5189 484.808C14.0922 484.595 13.7402 484.269 13.4629 483.832V488.2H12.4069V477H13.2229L13.3509 478.344C13.6282 477.853 13.9855 477.491 14.4229 477.256C14.8709 477.011 15.3935 476.888 15.9909 476.888C16.4495 476.888 16.8709 476.968 17.2549 477.128C17.6389 477.288 17.9695 477.528 18.2469 477.848C18.5242 478.157 18.7375 478.547 18.8869 479.016C19.0469 479.485 19.1269 480.029 19.1269 480.648V481.352C19.1269 481.96 19.0469 482.499 18.8869 482.968C18.7375 483.437 18.5242 483.832 18.2469 484.152C17.9695 484.472 17.6389 484.712 17.2549 484.872C16.8709 485.032 16.4495 485.112 15.9909 485.112ZM15.7509 484.12C16.4442 484.12 16.9989 483.896 17.4149 483.448C17.8309 482.989 18.0389 482.291 18.0389 481.352V480.648C18.0389 479.72 17.8255 479.027 17.3989 478.568C16.9829 478.109 16.4335 477.88 15.7509 477.88C15.1109 477.88 14.5722 478.104 14.1349 478.552C13.7082 479 13.4842 479.656 13.4629 480.52V481.352C13.4629 482.248 13.6762 482.936 14.1029 483.416C14.5295 483.885 15.0789 484.12 15.7509 484.12ZM23.3995 485L20.0875 477H21.2715L23.9755 483.688L26.4875 477H27.6075L23.2875 488.2H22.1675L23.3995 485ZM29.36 477H34.48V477.96H30.416V485H29.36V477ZM38.9625 485.112C38.4292 485.112 37.9438 485.027 37.5065 484.856C37.0798 484.685 36.7118 484.44 36.4025 484.12C36.0932 483.8 35.8532 483.411 35.6825 482.952C35.5225 482.483 35.4425 481.949 35.4425 481.352V480.648C35.4425 480.061 35.5278 479.539 35.6985 479.08C35.8692 478.611 36.1038 478.216 36.4025 477.896C36.7118 477.565 37.0798 477.315 37.5065 477.144C37.9438 476.973 38.4292 476.888 38.9625 476.888C39.4958 476.888 39.9758 476.973 40.4025 477.144C40.8398 477.315 41.2132 477.56 41.5225 477.88C41.8318 478.2 42.0665 478.595 42.2265 479.064C42.3972 479.533 42.4825 480.061 42.4825 480.648V481.352C42.4825 481.939 42.3972 482.467 42.2265 482.936C42.0558 483.395 41.8158 483.789 41.5065 484.12C41.2078 484.44 40.8398 484.685 40.4025 484.856C39.9652 485.027 39.4852 485.112 38.9625 485.112ZM38.9625 484.12C39.6878 484.12 40.2745 483.885 40.7225 483.416C41.1705 482.936 41.3945 482.248 41.3945 481.352V480.648C41.3945 479.763 41.1652 479.08 40.7065 478.6C40.2585 478.12 39.6772 477.88 38.9625 477.88C38.2372 477.88 37.6505 478.12 37.2025 478.6C36.7545 479.069 36.5305 479.752 36.5305 480.648V481.352C36.5305 482.237 36.7545 482.92 37.2025 483.4C37.6612 483.88 38.2478 484.12 38.9625 484.12ZM47.6794 485.112C46.6234 485.112 45.786 484.792 45.1674 484.152C44.5487 483.501 44.2394 482.568 44.2394 481.352V480.648C44.2394 479.443 44.5487 478.515 45.1674 477.864C45.7967 477.213 46.634 476.888 47.6794 476.888C48.7247 476.888 49.5567 477.213 50.1754 477.864C50.8047 478.515 51.1194 479.443 51.1194 480.648V481.304H45.3274V481.352C45.3274 482.28 45.5407 482.973 45.9674 483.432C46.394 483.891 46.9647 484.12 47.6794 484.12C48.3407 484.12 48.842 483.981 49.1834 483.704C49.5354 483.427 49.7914 483.08 49.9514 482.664H51.0394C50.954 483.005 50.826 483.325 50.6554 483.624C50.4847 483.923 50.2607 484.184 49.9834 484.408C49.706 484.621 49.3754 484.792 48.9914 484.92C48.6074 485.048 48.17 485.112 47.6794 485.112ZM47.6794 477.88C46.986 477.88 46.4314 478.099 46.0154 478.536C45.61 478.963 45.3807 479.576 45.3274 480.376H50.0154C49.9727 479.544 49.738 478.92 49.3114 478.504C48.8954 478.088 48.3514 477.88 47.6794 477.88Z" fill="#23201F"/>
<rect opacity="0.05" y="427" width="670" height="32" fill="#1C5F87"/>
<rect y="427" width="67" height="32" fill="#FA5B3D"/>
<path d="M6.32 445.112L11.28 437.8H13.232V445.112H14.64V446.488H13.232V449H11.728V446.488H6.32V445.112ZM11.728 445.112V439.48L7.968 445.112H11.728ZM18.4069 443.528C18.0015 443.528 17.6282 443.464 17.2869 443.336C16.9562 443.208 16.6682 443.027 16.4229 442.792C16.1882 442.557 16.0069 442.28 15.8789 441.96C15.7509 441.64 15.6869 441.288 15.6869 440.904V440.296C15.6869 439.912 15.7509 439.56 15.8789 439.24C16.0069 438.92 16.1882 438.643 16.4229 438.408C16.6682 438.173 16.9562 437.992 17.2869 437.864C17.6282 437.736 18.0015 437.672 18.4069 437.672C18.8122 437.672 19.1802 437.736 19.5109 437.864C19.8415 437.992 20.1242 438.173 20.3589 438.408C20.6042 438.643 20.7909 438.92 20.9189 439.24C21.0575 439.56 21.1269 439.912 21.1269 440.296V440.904C21.1269 441.288 21.0575 441.64 20.9189 441.96C20.7909 442.28 20.6042 442.557 20.3589 442.792C20.1242 443.027 19.8415 443.208 19.5109 443.336C19.1802 443.464 18.8122 443.528 18.4069 443.528ZM18.4069 442.28C18.8229 442.28 19.1482 442.163 19.3829 441.928C19.6282 441.693 19.7509 441.352 19.7509 440.904V440.296C19.7509 439.848 19.6282 439.507 19.3829 439.272C19.1482 439.037 18.8229 438.92 18.4069 438.92C17.9909 438.92 17.6602 439.037 17.4149 439.272C17.1802 439.507 17.0629 439.848 17.0629 440.296V440.904C17.0629 441.352 17.1802 441.693 17.4149 441.928C17.6602 442.163 17.9909 442.28 18.4069 442.28ZM26.0869 449.128C25.6815 449.128 25.3082 449.064 24.9669 448.936C24.6362 448.808 24.3482 448.627 24.1029 448.392C23.8682 448.157 23.6869 447.88 23.5589 447.56C23.4309 447.24 23.3669 446.888 23.3669 446.504V445.896C23.3669 445.512 23.4309 445.16 23.5589 444.84C23.6869 444.52 23.8682 444.243 24.1029 444.008C24.3482 443.773 24.6362 443.592 24.9669 443.464C25.3082 443.336 25.6815 443.272 26.0869 443.272C26.4922 443.272 26.8602 443.336 27.1909 443.464C27.5215 443.592 27.8042 443.773 28.0389 444.008C28.2842 444.243 28.4709 444.52 28.5989 444.84C28.7375 445.16 28.8069 445.512 28.8069 445.896V446.504C28.8069 446.888 28.7375 447.24 28.5989 447.56C28.4709 447.88 28.2842 448.157 28.0389 448.392C27.8042 448.627 27.5215 448.808 27.1909 448.936C26.8602 449.064 26.4922 449.128 26.0869 449.128ZM26.0869 447.88C26.5029 447.88 26.8282 447.763 27.0629 447.528C27.3082 447.293 27.4309 446.952 27.4309 446.504V445.896C27.4309 445.448 27.3082 445.107 27.0629 444.872C26.8282 444.637 26.5029 444.52 26.0869 444.52C25.6709 444.52 25.3402 444.637 25.0949 444.872C24.8602 445.107 24.7429 445.448 24.7429 445.896V446.504C24.7429 446.952 24.8602 447.293 25.0949 447.528C25.3402 447.763 25.6709 447.88 26.0869 447.88ZM24.7109 437.8H26.2469L19.7829 449H18.2469L24.7109 437.8Z" fill="#FAFAFA"/>
<path d="M5.68 418.112C5.008 418.112 4.38933 417.995 3.824 417.76C3.25867 417.525 2.768 417.184 2.352 416.736C1.936 416.288 1.61067 415.744 1.376 415.104C1.152 414.464 1.04 413.733 1.04 412.912V411.888C1.04 411.077 1.15733 410.352 1.392 409.712C1.62667 409.072 1.94667 408.528 2.352 408.08C2.768 407.632 3.25867 407.291 3.824 407.056C4.38933 406.811 5.008 406.688 5.68 406.688C6.352 406.688 6.97067 406.805 7.536 407.04C8.10133 407.275 8.592 407.616 9.008 408.064C9.424 408.512 9.744 409.061 9.968 409.712C10.2027 410.352 10.32 411.077 10.32 411.888V412.912C10.32 413.723 10.2027 414.448 9.968 415.088C9.73333 415.728 9.408 416.272 8.992 416.72C8.58667 417.168 8.10133 417.515 7.536 417.76C6.97067 417.995 6.352 418.112 5.68 418.112ZM5.68 417.056C6.18133 417.056 6.64533 416.965 7.072 416.784C7.49867 416.603 7.86667 416.336 8.176 415.984C8.48533 415.632 8.72533 415.2 8.896 414.688C9.07733 414.165 9.168 413.573 9.168 412.912V411.888C9.168 411.237 9.07733 410.656 8.896 410.144C8.71467 409.621 8.46933 409.184 8.16 408.832C7.85067 408.48 7.48267 408.213 7.056 408.032C6.62933 407.84 6.17067 407.744 5.68 407.744C5.17867 407.744 4.71467 407.835 4.288 408.016C3.86133 408.197 3.49333 408.464 3.184 408.816C2.87467 409.168 2.62933 409.605 2.448 410.128C2.27733 410.64 2.192 411.227 2.192 411.888V412.912C2.192 413.573 2.28267 414.16 2.464 414.672C2.64533 415.184 2.89067 415.616 3.2 415.968C3.50933 416.32 3.87733 416.592 4.304 416.784C4.73067 416.965 5.18933 417.056 5.68 417.056ZM11.7594 410H18.1594V410.96H15.4874V418H14.4314V410.96H11.7594V410ZM25.1896 418H19.0616V420.08H18.0056V417.04H18.8536C19.0456 416.752 19.2003 416.475 19.3176 416.208C19.435 415.941 19.5256 415.637 19.5896 415.296C19.6536 414.944 19.6963 414.539 19.7176 414.08C19.7496 413.621 19.7656 413.061 19.7656 412.4V410H25.1256V417.04H26.2456V420.08H25.1896V418ZM20.8216 412.4C20.8216 413.061 20.8056 413.632 20.7736 414.112C20.7523 414.581 20.7096 414.992 20.6456 415.344C20.5923 415.696 20.5176 416.005 20.4216 416.272C20.3256 416.528 20.2136 416.784 20.0856 417.04H24.0696V410.96H20.8216V412.4ZM27.9225 410H28.9785V412.88H30.7545C31.8852 412.88 32.7065 413.109 33.2185 413.568C33.7412 414.027 34.0025 414.651 34.0025 415.44C34.0025 416.208 33.7412 416.827 33.2185 417.296C32.6958 417.765 31.8745 418 30.7545 418H27.9225V410ZM28.9785 413.84V417.04H30.7545C31.5438 417.04 32.0985 416.901 32.4185 416.624C32.7492 416.336 32.9145 415.941 32.9145 415.44C32.9145 414.939 32.7492 414.549 32.4185 414.272C32.0878 413.984 31.5332 413.84 30.7545 413.84H28.9785ZM35.5065 410H36.5625V418H35.5065V410ZM41.9059 414.656L39.5699 418H38.3219L41.2499 413.888L38.5139 410H39.7619L41.9379 413.104L44.1139 410H45.3299L42.5939 413.856L45.5219 418H44.2419L41.9059 414.656Z" fill="#23201F"/>
<rect opacity="0.05" y="360" width="670" height="32" fill="#1C5F87"/>
<rect y="360" width="84" height="32" fill="#FA5B3D"/>
<path d="M7.52 370.8H13.68V372.176H8.896L8.64 375.248C9.22667 374.747 9.95733 374.496 10.832 374.496C11.344 374.496 11.8187 374.587 12.256 374.768C12.6933 374.949 13.072 375.211 13.392 375.552C13.712 375.883 13.9573 376.283 14.128 376.752C14.3093 377.211 14.4 377.728 14.4 378.304C14.4 378.88 14.3093 379.408 14.128 379.888C13.9467 380.357 13.6853 380.757 13.344 381.088C13.0133 381.419 12.6133 381.675 12.144 381.856C11.6747 382.037 11.1467 382.128 10.56 382.128C9.58933 382.128 8.75733 381.883 8.064 381.392C7.37067 380.901 6.92267 380.187 6.72 379.248H8.288C8.46933 379.728 8.752 380.091 9.136 380.336C9.52 380.571 9.99467 380.688 10.56 380.688C11.264 380.688 11.8187 380.48 12.224 380.064C12.6293 379.648 12.832 379.061 12.832 378.304C12.832 377.557 12.6293 376.976 12.224 376.56C11.8187 376.144 11.264 375.936 10.56 375.936C10.08 375.936 9.664 376.032 9.312 376.224C8.97067 376.416 8.70933 376.651 8.528 376.928H7.04L7.52 370.8ZM18.4069 376.528C18.0015 376.528 17.6282 376.464 17.2869 376.336C16.9562 376.208 16.6682 376.027 16.4229 375.792C16.1882 375.557 16.0069 375.28 15.8789 374.96C15.7509 374.64 15.6869 374.288 15.6869 373.904V373.296C15.6869 372.912 15.7509 372.56 15.8789 372.24C16.0069 371.92 16.1882 371.643 16.4229 371.408C16.6682 371.173 16.9562 370.992 17.2869 370.864C17.6282 370.736 18.0015 370.672 18.4069 370.672C18.8122 370.672 19.1802 370.736 19.5109 370.864C19.8415 370.992 20.1242 371.173 20.3589 371.408C20.6042 371.643 20.7909 371.92 20.9189 372.24C21.0575 372.56 21.1269 372.912 21.1269 373.296V373.904C21.1269 374.288 21.0575 374.64 20.9189 374.96C20.7909 375.28 20.6042 375.557 20.3589 375.792C20.1242 376.027 19.8415 376.208 19.5109 376.336C19.1802 376.464 18.8122 376.528 18.4069 376.528ZM18.4069 375.28C18.8229 375.28 19.1482 375.163 19.3829 374.928C19.6282 374.693 19.7509 374.352 19.7509 373.904V373.296C19.7509 372.848 19.6282 372.507 19.3829 372.272C19.1482 372.037 18.8229 371.92 18.4069 371.92C17.9909 371.92 17.6602 372.037 17.4149 372.272C17.1802 372.507 17.0629 372.848 17.0629 373.296V373.904C17.0629 374.352 17.1802 374.693 17.4149 374.928C17.6602 375.163 17.9909 375.28 18.4069 375.28ZM26.0869 382.128C25.6815 382.128 25.3082 382.064 24.9669 381.936C24.6362 381.808 24.3482 381.627 24.1029 381.392C23.8682 381.157 23.6869 380.88 23.5589 380.56C23.4309 380.24 23.3669 379.888 23.3669 379.504V378.896C23.3669 378.512 23.4309 378.16 23.5589 377.84C23.6869 377.52 23.8682 377.243 24.1029 377.008C24.3482 376.773 24.6362 376.592 24.9669 376.464C25.3082 376.336 25.6815 376.272 26.0869 376.272C26.4922 376.272 26.8602 376.336 27.1909 376.464C27.5215 376.592 27.8042 376.773 28.0389 377.008C28.2842 377.243 28.4709 377.52 28.5989 377.84C28.7375 378.16 28.8069 378.512 28.8069 378.896V379.504C28.8069 379.888 28.7375 380.24 28.5989 380.56C28.4709 380.88 28.2842 381.157 28.0389 381.392C27.8042 381.627 27.5215 381.808 27.1909 381.936C26.8602 382.064 26.4922 382.128 26.0869 382.128ZM26.0869 380.88C26.5029 380.88 26.8282 380.763 27.0629 380.528C27.3082 380.293 27.4309 379.952 27.4309 379.504V378.896C27.4309 378.448 27.3082 378.107 27.0629 377.872C26.8282 377.637 26.5029 377.52 26.0869 377.52C25.6709 377.52 25.3402 377.637 25.0949 377.872C24.8602 378.107 24.7429 378.448 24.7429 378.896V379.504C24.7429 379.952 24.8602 380.293 25.0949 380.528C25.3402 380.763 25.6709 380.88 26.0869 380.88ZM24.7109 370.8H26.2469L19.7829 382H18.2469L24.7109 370.8Z" fill="#FAFAFA"/>
<path d="M4.8 351.112C3.57333 351.112 2.63467 350.803 1.984 350.184C1.33333 349.555 0.965333 348.68 0.88 347.56H2.032C2.11733 348.371 2.384 348.989 2.832 349.416C3.28 349.843 3.936 350.056 4.8 350.056C5.664 350.056 6.31467 349.859 6.752 349.464C7.18933 349.059 7.408 348.531 7.408 347.88C7.408 347.261 7.18933 346.755 6.752 346.36C6.31467 345.965 5.664 345.768 4.8 345.768H3.44V344.712H4.8C5.58933 344.712 6.18133 344.531 6.576 344.168C6.97067 343.805 7.168 343.331 7.168 342.744C7.168 342.136 6.97067 341.651 6.576 341.288C6.18133 340.925 5.58933 340.744 4.8 340.744C4.01067 340.744 3.41333 340.936 3.008 341.32C2.60267 341.693 2.35733 342.227 2.272 342.92H1.12C1.20533 341.917 1.552 341.128 2.16 340.552C2.77867 339.976 3.65867 339.688 4.8 339.688C5.94133 339.688 6.81067 339.971 7.408 340.536C8.016 341.101 8.32 341.837 8.32 342.744C8.32 343.288 8.18667 343.773 7.92 344.2C7.65333 344.627 7.264 344.963 6.752 345.208C7.36 345.453 7.81333 345.811 8.112 346.28C8.41067 346.739 8.56 347.272 8.56 347.88C8.56 348.36 8.47467 348.797 8.304 349.192C8.144 349.587 7.904 349.928 7.584 350.216C7.27467 350.493 6.88533 350.712 6.416 350.872C5.94667 351.032 5.408 351.112 4.8 351.112ZM16.7834 351H10.6554V353.08H9.59938V350.04H10.4474C10.6394 349.752 10.794 349.475 10.9114 349.208C11.0287 348.941 11.1194 348.637 11.1834 348.296C11.2474 347.944 11.29 347.539 11.3114 347.08C11.3434 346.621 11.3594 346.061 11.3594 345.4V343H16.7194V350.04H17.8394V353.08H16.7834V351ZM12.4154 345.4C12.4154 346.061 12.3994 346.632 12.3674 347.112C12.346 347.581 12.3034 347.992 12.2394 348.344C12.186 348.696 12.1114 349.005 12.0154 349.272C11.9194 349.528 11.8074 349.784 11.6794 350.04H15.6634V343.96H12.4154V345.4ZM23.1003 351.112C22.5456 351.112 22.0549 351.011 21.6283 350.808C21.2016 350.595 20.8496 350.269 20.5723 349.832V354.2H19.5163V343H20.3323L20.4603 344.344C20.7376 343.853 21.0949 343.491 21.5323 343.256C21.9803 343.011 22.5029 342.888 23.1003 342.888C23.5589 342.888 23.9803 342.968 24.3643 343.128C24.7483 343.288 25.0789 343.528 25.3563 343.848C25.6336 344.157 25.8469 344.547 25.9963 345.016C26.1562 345.485 26.2362 346.029 26.2362 346.648V347.352C26.2362 347.96 26.1562 348.499 25.9963 348.968C25.8469 349.437 25.6336 349.832 25.3563 350.152C25.0789 350.472 24.7483 350.712 24.3643 350.872C23.9803 351.032 23.5589 351.112 23.1003 351.112ZM22.8602 350.12C23.5536 350.12 24.1083 349.896 24.5243 349.448C24.9403 348.989 25.1483 348.291 25.1483 347.352V346.648C25.1483 345.72 24.9349 345.027 24.5083 344.568C24.0923 344.109 23.5429 343.88 22.8602 343.88C22.2203 343.88 21.6816 344.104 21.2443 344.552C20.8176 345 20.5936 345.656 20.5723 346.52V347.352C20.5723 348.248 20.7856 348.936 21.2123 349.416C21.6389 349.885 22.1883 350.12 22.8602 350.12ZM30.3894 351.112C29.5894 351.112 28.976 350.909 28.5494 350.504C28.1227 350.088 27.9094 349.517 27.9094 348.792C27.9094 348.408 27.968 348.061 28.0854 347.752C28.2134 347.432 28.4107 347.165 28.6774 346.952C28.9547 346.739 29.3067 346.573 29.7334 346.456C30.16 346.339 30.672 346.28 31.2694 346.28H33.0934V345.56C33.0934 344.984 32.9494 344.563 32.6614 344.296C32.384 344.019 31.92 343.88 31.2694 343.88C30.6827 343.88 30.24 343.997 29.9414 344.232C29.6534 344.456 29.488 344.765 29.4454 345.16H28.3094C28.3307 344.829 28.4054 344.525 28.5334 344.248C28.6614 343.971 28.848 343.731 29.0934 343.528C29.3387 343.325 29.6427 343.171 30.0054 343.064C30.368 342.947 30.7894 342.888 31.2694 342.888C32.2187 342.888 32.9334 343.123 33.4134 343.592C33.904 344.061 34.1494 344.717 34.1494 345.56V351H33.3334L33.1734 349.496C32.896 350.008 32.512 350.408 32.0214 350.696C31.5414 350.973 30.9974 351.112 30.3894 351.112ZM30.4694 350.12C30.832 350.12 31.1734 350.056 31.4934 349.928C31.8134 349.789 32.0907 349.608 32.3254 349.384C32.5707 349.149 32.7574 348.883 32.8854 348.584C33.024 348.275 33.0934 347.949 33.0934 347.608V347.24H31.2694C30.448 347.24 29.8614 347.384 29.5094 347.672C29.168 347.96 28.9974 348.333 28.9974 348.792C28.9974 349.197 29.12 349.523 29.3654 349.768C29.6214 350.003 29.9894 350.12 30.4694 350.12ZM36.7819 343H39.7419C40.7125 343 41.4219 343.197 41.8699 343.592C42.3179 343.987 42.5419 344.52 42.5419 345.192C42.5419 345.533 42.4565 345.848 42.2859 346.136C42.1152 346.424 41.8592 346.664 41.5179 346.856C41.9659 347.037 42.3019 347.293 42.5259 347.624C42.7499 347.944 42.8619 348.307 42.8619 348.712C42.8619 349.427 42.6379 349.987 42.1899 350.392C41.7419 350.797 41.0325 351 40.0619 351H36.7819V343ZM37.8379 347.4V350.04H40.0619C40.6912 350.04 41.1339 349.928 41.3899 349.704C41.6459 349.48 41.7739 349.149 41.7739 348.712C41.7739 348.285 41.6459 347.96 41.3899 347.736C41.1339 347.512 40.6912 347.4 40.0619 347.4H37.8379ZM37.8379 343.96V346.44H39.7419C40.3712 346.44 40.8139 346.333 41.0699 346.12C41.3259 345.896 41.4539 345.587 41.4539 345.192C41.4539 344.808 41.3259 344.509 41.0699 344.296C40.8139 344.072 40.3712 343.96 39.7419 343.96H37.8379ZM48.1344 351.112C47.601 351.112 47.1157 351.027 46.6784 350.856C46.2517 350.685 45.8837 350.44 45.5744 350.12C45.265 349.8 45.025 349.411 44.8544 348.952C44.6944 348.483 44.6144 347.949 44.6144 347.352V346.648C44.6144 346.061 44.6997 345.539 44.8704 345.08C45.041 344.611 45.2757 344.216 45.5744 343.896C45.8837 343.565 46.2517 343.315 46.6784 343.144C47.1157 342.973 47.601 342.888 48.1344 342.888C48.6677 342.888 49.1477 342.973 49.5744 343.144C50.0117 343.315 50.385 343.56 50.6944 343.88C51.0037 344.2 51.2384 344.595 51.3984 345.064C51.569 345.533 51.6544 346.061 51.6544 346.648V347.352C51.6544 347.939 51.569 348.467 51.3984 348.936C51.2277 349.395 50.9877 349.789 50.6784 350.12C50.3797 350.44 50.0117 350.685 49.5744 350.856C49.137 351.027 48.657 351.112 48.1344 351.112ZM48.1344 350.12C48.8597 350.12 49.4464 349.885 49.8944 349.416C50.3424 348.936 50.5664 348.248 50.5664 347.352V346.648C50.5664 345.763 50.337 345.08 49.8784 344.6C49.4304 344.12 48.849 343.88 48.1344 343.88C47.409 343.88 46.8224 344.12 46.3744 344.6C45.9264 345.069 45.7024 345.752 45.7024 346.648V347.352C45.7024 348.237 45.9264 348.92 46.3744 349.4C46.833 349.88 47.4197 350.12 48.1344 350.12ZM56.9313 351.112C56.3979 351.112 55.9126 351.027 55.4753 350.856C55.0486 350.685 54.6806 350.44 54.3713 350.12C54.0619 349.8 53.8219 349.411 53.6513 348.952C53.4913 348.483 53.4113 347.949 53.4113 347.352V346.648C53.4113 346.061 53.4966 345.539 53.6673 345.08C53.8379 344.611 54.0726 344.216 54.3713 343.896C54.6806 343.565 55.0486 343.315 55.4753 343.144C55.9126 342.973 56.3979 342.888 56.9313 342.888C57.4646 342.888 57.9446 342.973 58.3713 343.144C58.8086 343.315 59.1819 343.56 59.4913 343.88C59.8006 344.2 60.0353 344.595 60.1953 345.064C60.3659 345.533 60.4513 346.061 60.4513 346.648V347.352C60.4513 347.939 60.3659 348.467 60.1953 348.936C60.0246 349.395 59.7846 349.789 59.4753 350.12C59.1766 350.44 58.8086 350.685 58.3713 350.856C57.9339 351.027 57.4539 351.112 56.9313 351.112ZM56.9313 350.12C57.6566 350.12 58.2433 349.885 58.6913 349.416C59.1393 348.936 59.3633 348.248 59.3633 347.352V346.648C59.3633 345.763 59.1339 345.08 58.6753 344.6C58.2273 344.12 57.6459 343.88 56.9313 343.88C56.2059 343.88 55.6193 344.12 55.1713 344.6C54.7233 345.069 54.4993 345.752 54.4993 346.648V347.352C54.4993 348.237 54.7233 348.92 55.1713 349.4C55.6299 349.88 56.2166 350.12 56.9313 350.12ZM64.9996 347.656L62.6636 351H61.4156L64.3436 346.888L61.6076 343H62.8556L65.0316 346.104L67.2076 343H68.4236L65.6876 346.856L68.6156 351H67.3356L64.9996 347.656ZM73.9596 351.112C73.405 351.112 72.9143 351.011 72.4876 350.808C72.061 350.595 71.709 350.269 71.4316 349.832V354.2H70.3756V343H71.1916L71.3196 344.344C71.597 343.853 71.9543 343.491 72.3916 343.256C72.8396 343.011 73.3623 342.888 73.9596 342.888C74.4183 342.888 74.8396 342.968 75.2236 343.128C75.6076 343.288 75.9383 343.528 76.2156 343.848C76.493 344.157 76.7063 344.547 76.8556 345.016C77.0156 345.485 77.0956 346.029 77.0956 346.648V347.352C77.0956 347.96 77.0156 348.499 76.8556 348.968C76.7063 349.437 76.493 349.832 76.2156 350.152C75.9383 350.472 75.6076 350.712 75.2236 350.872C74.8396 351.032 74.4183 351.112 73.9596 351.112ZM73.7196 350.12C74.413 350.12 74.9676 349.896 75.3836 349.448C75.7996 348.989 76.0076 348.291 76.0076 347.352V346.648C76.0076 345.72 75.7943 345.027 75.3676 344.568C74.9516 344.109 74.4023 343.88 73.7196 343.88C73.0796 343.88 72.541 344.104 72.1036 344.552C71.677 345 71.453 345.656 71.4316 346.52V347.352C71.4316 348.248 71.645 348.936 72.0716 349.416C72.4983 349.885 73.0476 350.12 73.7196 350.12ZM81.2488 351.112C80.4488 351.112 79.8354 350.909 79.4088 350.504C78.9821 350.088 78.7688 349.517 78.7688 348.792C78.7688 348.408 78.8274 348.061 78.9448 347.752C79.0728 347.432 79.2701 347.165 79.5368 346.952C79.8141 346.739 80.1661 346.573 80.5928 346.456C81.0194 346.339 81.5314 346.28 82.1288 346.28H83.9528V345.56C83.9528 344.984 83.8088 344.563 83.5208 344.296C83.2434 344.019 82.7794 343.88 82.1288 343.88C81.5421 343.88 81.0994 343.997 80.8008 344.232C80.5128 344.456 80.3474 344.765 80.3048 345.16H79.1688C79.1901 344.829 79.2648 344.525 79.3928 344.248C79.5208 343.971 79.7074 343.731 79.9528 343.528C80.1981 343.325 80.5021 343.171 80.8648 343.064C81.2274 342.947 81.6488 342.888 82.1288 342.888C83.0781 342.888 83.7928 343.123 84.2728 343.592C84.7634 344.061 85.0088 344.717 85.0088 345.56V351H84.1928L84.0328 349.496C83.7554 350.008 83.3714 350.408 82.8808 350.696C82.4008 350.973 81.8568 351.112 81.2488 351.112ZM81.3288 350.12C81.6914 350.12 82.0328 350.056 82.3528 349.928C82.6728 349.789 82.9501 349.608 83.1848 349.384C83.4301 349.149 83.6168 348.883 83.7448 348.584C83.8834 348.275 83.9528 347.949 83.9528 347.608V347.24H82.1288C81.3074 347.24 80.7208 347.384 80.3688 347.672C80.0274 347.96 79.8568 348.333 79.8568 348.792C79.8568 349.197 79.9794 349.523 80.2248 349.768C80.4808 350.003 80.8488 350.12 81.3288 350.12ZM93.1453 347.4H88.6973V351H87.6413V343H88.6973V346.44H93.1453V343H94.2013V351H93.1453V347.4ZM99.8825 351.112C98.8265 351.112 97.9892 350.792 97.3705 350.152C96.7518 349.501 96.4425 348.568 96.4425 347.352V346.648C96.4425 345.443 96.7518 344.515 97.3705 343.864C97.9998 343.213 98.8372 342.888 99.8825 342.888C100.928 342.888 101.76 343.213 102.379 343.864C103.008 344.515 103.323 345.443 103.323 346.648V347.304H97.5305V347.352C97.5305 348.28 97.7438 348.973 98.1705 349.432C98.5972 349.891 99.1678 350.12 99.8825 350.12C100.544 350.12 101.045 349.981 101.387 349.704C101.739 349.427 101.995 349.08 102.155 348.664H103.243C103.157 349.005 103.029 349.325 102.859 349.624C102.688 349.923 102.464 350.184 102.187 350.408C101.909 350.621 101.579 350.792 101.195 350.92C100.811 351.048 100.373 351.112 99.8825 351.112ZM99.8825 343.88C99.1892 343.88 98.6345 344.099 98.2185 344.536C97.8132 344.963 97.5838 345.576 97.5305 346.376H102.219C102.176 345.544 101.941 344.92 101.515 344.504C101.099 344.088 100.555 343.88 99.8825 343.88ZM111.067 347.4H106.619V351H105.563V343H106.619V346.44H111.067V343H112.123V351H111.067V347.4ZM120.348 344.216L119.356 345.88L116.156 351H114.844V343H115.9V349.8L116.892 348.12L120.092 343H121.404V351H120.348V344.216ZM127.086 351.112C126.03 351.112 125.192 350.792 124.574 350.152C123.955 349.501 123.646 348.568 123.646 347.352V346.648C123.646 345.443 123.955 344.515 124.574 343.864C125.203 343.213 126.04 342.888 127.086 342.888C128.131 342.888 128.963 343.213 129.582 343.864C130.211 344.515 130.526 345.443 130.526 346.648V347.304H124.734V347.352C124.734 348.28 124.947 348.973 125.374 349.432C125.8 349.891 126.371 350.12 127.086 350.12C127.747 350.12 128.248 349.981 128.59 349.704C128.942 349.427 129.198 349.08 129.358 348.664H130.446C130.36 349.005 130.232 349.325 130.062 349.624C129.891 349.923 129.667 350.184 129.39 350.408C129.112 350.621 128.782 350.792 128.398 350.92C128.014 351.048 127.576 351.112 127.086 351.112ZM127.086 343.88C126.392 343.88 125.838 344.099 125.422 344.536C125.016 344.963 124.787 345.576 124.734 346.376H129.422C129.379 345.544 129.144 344.92 128.718 344.504C128.302 344.088 127.758 343.88 127.086 343.88Z" fill="#23201F"/>
<rect opacity="0.05" y="293" width="670" height="32" fill="#1C5F87"/>
<rect y="293" width="84" height="32" fill="#FA5B3D"/>
<path d="M7.52 303.8H13.68V305.176H8.896L8.64 308.248C9.22667 307.747 9.95733 307.496 10.832 307.496C11.344 307.496 11.8187 307.587 12.256 307.768C12.6933 307.949 13.072 308.211 13.392 308.552C13.712 308.883 13.9573 309.283 14.128 309.752C14.3093 310.211 14.4 310.728 14.4 311.304C14.4 311.88 14.3093 312.408 14.128 312.888C13.9467 313.357 13.6853 313.757 13.344 314.088C13.0133 314.419 12.6133 314.675 12.144 314.856C11.6747 315.037 11.1467 315.128 10.56 315.128C9.58933 315.128 8.75733 314.883 8.064 314.392C7.37067 313.901 6.92267 313.187 6.72 312.248H8.288C8.46933 312.728 8.752 313.091 9.136 313.336C9.52 313.571 9.99467 313.688 10.56 313.688C11.264 313.688 11.8187 313.48 12.224 313.064C12.6293 312.648 12.832 312.061 12.832 311.304C12.832 310.557 12.6293 309.976 12.224 309.56C11.8187 309.144 11.264 308.936 10.56 308.936C10.08 308.936 9.664 309.032 9.312 309.224C8.97067 309.416 8.70933 309.651 8.528 309.928H7.04L7.52 303.8ZM18.4069 309.528C18.0015 309.528 17.6282 309.464 17.2869 309.336C16.9562 309.208 16.6682 309.027 16.4229 308.792C16.1882 308.557 16.0069 308.28 15.8789 307.96C15.7509 307.64 15.6869 307.288 15.6869 306.904V306.296C15.6869 305.912 15.7509 305.56 15.8789 305.24C16.0069 304.92 16.1882 304.643 16.4229 304.408C16.6682 304.173 16.9562 303.992 17.2869 303.864C17.6282 303.736 18.0015 303.672 18.4069 303.672C18.8122 303.672 19.1802 303.736 19.5109 303.864C19.8415 303.992 20.1242 304.173 20.3589 304.408C20.6042 304.643 20.7909 304.92 20.9189 305.24C21.0575 305.56 21.1269 305.912 21.1269 306.296V306.904C21.1269 307.288 21.0575 307.64 20.9189 307.96C20.7909 308.28 20.6042 308.557 20.3589 308.792C20.1242 309.027 19.8415 309.208 19.5109 309.336C19.1802 309.464 18.8122 309.528 18.4069 309.528ZM18.4069 308.28C18.8229 308.28 19.1482 308.163 19.3829 307.928C19.6282 307.693 19.7509 307.352 19.7509 306.904V306.296C19.7509 305.848 19.6282 305.507 19.3829 305.272C19.1482 305.037 18.8229 304.92 18.4069 304.92C17.9909 304.92 17.6602 305.037 17.4149 305.272C17.1802 305.507 17.0629 305.848 17.0629 306.296V306.904C17.0629 307.352 17.1802 307.693 17.4149 307.928C17.6602 308.163 17.9909 308.28 18.4069 308.28ZM26.0869 315.128C25.6815 315.128 25.3082 315.064 24.9669 314.936C24.6362 314.808 24.3482 314.627 24.1029 314.392C23.8682 314.157 23.6869 313.88 23.5589 313.56C23.4309 313.24 23.3669 312.888 23.3669 312.504V311.896C23.3669 311.512 23.4309 311.16 23.5589 310.84C23.6869 310.52 23.8682 310.243 24.1029 310.008C24.3482 309.773 24.6362 309.592 24.9669 309.464C25.3082 309.336 25.6815 309.272 26.0869 309.272C26.4922 309.272 26.8602 309.336 27.1909 309.464C27.5215 309.592 27.8042 309.773 28.0389 310.008C28.2842 310.243 28.4709 310.52 28.5989 310.84C28.7375 311.16 28.8069 311.512 28.8069 311.896V312.504C28.8069 312.888 28.7375 313.24 28.5989 313.56C28.4709 313.88 28.2842 314.157 28.0389 314.392C27.8042 314.627 27.5215 314.808 27.1909 314.936C26.8602 315.064 26.4922 315.128 26.0869 315.128ZM26.0869 313.88C26.5029 313.88 26.8282 313.763 27.0629 313.528C27.3082 313.293 27.4309 312.952 27.4309 312.504V311.896C27.4309 311.448 27.3082 311.107 27.0629 310.872C26.8282 310.637 26.5029 310.52 26.0869 310.52C25.6709 310.52 25.3402 310.637 25.0949 310.872C24.8602 311.107 24.7429 311.448 24.7429 311.896V312.504C24.7429 312.952 24.8602 313.293 25.0949 313.528C25.3402 313.763 25.6709 313.88 26.0869 313.88ZM24.7109 303.8H26.2469L19.7829 315H18.2469L24.7109 303.8Z" fill="#FAFAFA"/>
<path d="M5.68 284.112C5.008 284.112 4.38933 283.995 3.824 283.76C3.25867 283.525 2.768 283.184 2.352 282.736C1.936 282.288 1.61067 281.744 1.376 281.104C1.152 280.464 1.04 279.733 1.04 278.912V277.888C1.04 277.077 1.15733 276.352 1.392 275.712C1.62667 275.072 1.94667 274.528 2.352 274.08C2.768 273.632 3.25867 273.291 3.824 273.056C4.38933 272.811 5.008 272.688 5.68 272.688C6.352 272.688 6.97067 272.805 7.536 273.04C8.10133 273.275 8.592 273.616 9.008 274.064C9.424 274.512 9.744 275.061 9.968 275.712C10.2027 276.352 10.32 277.077 10.32 277.888V278.912C10.32 279.723 10.2027 280.448 9.968 281.088C9.73333 281.728 9.408 282.272 8.992 282.72C8.58667 283.168 8.10133 283.515 7.536 283.76C6.97067 283.995 6.352 284.112 5.68 284.112ZM5.68 283.056C6.18133 283.056 6.64533 282.965 7.072 282.784C7.49867 282.603 7.86667 282.336 8.176 281.984C8.48533 281.632 8.72533 281.2 8.896 280.688C9.07733 280.165 9.168 279.573 9.168 278.912V277.888C9.168 277.237 9.07733 276.656 8.896 276.144C8.71467 275.621 8.46933 275.184 8.16 274.832C7.85067 274.48 7.48267 274.213 7.056 274.032C6.62933 273.84 6.17067 273.744 5.68 273.744C5.17867 273.744 4.71467 273.835 4.288 274.016C3.86133 274.197 3.49333 274.464 3.184 274.816C2.87467 275.168 2.62933 275.605 2.448 276.128C2.27733 276.64 2.192 277.227 2.192 277.888V278.912C2.192 279.573 2.28267 280.16 2.464 280.672C2.64533 281.184 2.89067 281.616 3.2 281.968C3.50933 282.32 3.87733 282.592 4.304 282.784C4.73067 282.965 5.18933 283.056 5.68 283.056ZM18.299 284H12.171V286.08H11.115V283.04H11.963C12.155 282.752 12.3097 282.475 12.427 282.208C12.5443 281.941 12.635 281.637 12.699 281.296C12.763 280.944 12.8057 280.539 12.827 280.08C12.859 279.621 12.875 279.061 12.875 278.4V276H18.235V283.04H19.355V286.08H18.299V284ZM13.931 278.4C13.931 279.061 13.915 279.632 13.883 280.112C13.8617 280.581 13.819 280.992 13.755 281.344C13.7017 281.696 13.627 282.005 13.531 282.272C13.435 282.528 13.323 282.784 13.195 283.04H17.179V276.96H13.931V278.4ZM23.9919 284.112C22.9359 284.112 22.0985 283.792 21.4799 283.152C20.8612 282.501 20.5519 281.568 20.5519 280.352V279.648C20.5519 278.443 20.8612 277.515 21.4799 276.864C22.1092 276.213 22.9465 275.888 23.9919 275.888C25.0372 275.888 25.8692 276.213 26.4879 276.864C27.1172 277.515 27.4319 278.443 27.4319 279.648V280.304H21.6399V280.352C21.6399 281.28 21.8532 281.973 22.2799 282.432C22.7065 282.891 23.2772 283.12 23.9919 283.12C24.6532 283.12 25.1545 282.981 25.4959 282.704C25.8479 282.427 26.1039 282.08 26.2639 281.664H27.3519C27.2665 282.005 27.1385 282.325 26.9679 282.624C26.7972 282.923 26.5732 283.184 26.2959 283.408C26.0185 283.621 25.6879 283.792 25.3039 283.92C24.9199 284.048 24.4825 284.112 23.9919 284.112ZM23.9919 276.88C23.2985 276.88 22.7439 277.099 22.3279 277.536C21.9225 277.963 21.6932 278.576 21.6399 279.376H26.3279C26.2852 278.544 26.0505 277.92 25.6239 277.504C25.2079 277.088 24.6639 276.88 23.9919 276.88ZM35.728 280.32H34.288V284H33.232V280.32H31.792L29.664 284H28.4L30.848 279.872L28.72 276H29.984L31.792 279.36H33.232V276H34.288V279.36H35.728L37.552 276H38.8L36.688 279.808L39.12 284H37.824L35.728 280.32ZM47.0959 284H40.9679V286.08H39.9119V283.04H40.7599C40.9519 282.752 41.1065 282.475 41.2239 282.208C41.3412 281.941 41.4319 281.637 41.4959 281.296C41.5599 280.944 41.6025 280.539 41.6239 280.08C41.6559 279.621 41.6719 279.061 41.6719 278.4V276H47.0319V283.04H48.1519V286.08H47.0959V284ZM42.7279 278.4C42.7279 279.061 42.7119 279.632 42.6799 280.112C42.6585 280.581 42.6159 280.992 42.5519 281.344C42.4985 281.696 42.4239 282.005 42.3279 282.272C42.2319 282.528 42.1199 282.784 41.9919 283.04H45.9759V276.96H42.7279V278.4ZM51.905 284.112C51.105 284.112 50.4917 283.909 50.065 283.504C49.6383 283.088 49.425 282.517 49.425 281.792C49.425 281.408 49.4837 281.061 49.601 280.752C49.729 280.432 49.9263 280.165 50.193 279.952C50.4703 279.739 50.8223 279.573 51.249 279.456C51.6757 279.339 52.1877 279.28 52.785 279.28H54.609V278.56C54.609 277.984 54.465 277.563 54.177 277.296C53.8997 277.019 53.4357 276.88 52.785 276.88C52.1983 276.88 51.7557 276.997 51.457 277.232C51.169 277.456 51.0037 277.765 50.961 278.16H49.825C49.8463 277.829 49.921 277.525 50.049 277.248C50.177 276.971 50.3637 276.731 50.609 276.528C50.8543 276.325 51.1583 276.171 51.521 276.064C51.8837 275.947 52.305 275.888 52.785 275.888C53.7343 275.888 54.449 276.123 54.929 276.592C55.4197 277.061 55.665 277.717 55.665 278.56V284H54.849L54.689 282.496C54.4117 283.008 54.0277 283.408 53.537 283.696C53.057 283.973 52.513 284.112 51.905 284.112ZM51.985 283.12C52.3477 283.12 52.689 283.056 53.009 282.928C53.329 282.789 53.6063 282.608 53.841 282.384C54.0863 282.149 54.273 281.883 54.401 281.584C54.5397 281.275 54.609 280.949 54.609 280.608V280.24H52.785C51.9637 280.24 51.377 280.384 51.025 280.672C50.6837 280.96 50.513 281.333 50.513 281.792C50.513 282.197 50.6357 282.523 50.881 282.768C51.137 283.003 51.505 283.12 51.985 283.12Z" fill="#23201F"/>
<rect opacity="0.05" y="226" width="670" height="32" fill="#1C5F87"/>
<rect y="226" width="134" height="32" fill="#FA5B3D"/>
<path d="M10.72 248.128C10.0907 248.128 9.536 248.048 9.056 247.888C8.58667 247.728 8.18667 247.509 7.856 247.232C7.536 246.944 7.29067 246.603 7.12 246.208C6.96 245.813 6.88 245.381 6.88 244.912C6.88 244.272 7.04533 243.723 7.376 243.264C7.71733 242.795 8.16533 242.427 8.72 242.16C8.25067 241.915 7.87733 241.589 7.6 241.184C7.33333 240.779 7.2 240.283 7.2 239.696C7.2 239.269 7.28533 238.875 7.456 238.512C7.62667 238.139 7.86133 237.819 8.16 237.552C8.46933 237.275 8.83733 237.061 9.264 236.912C9.70133 236.752 10.1867 236.672 10.72 236.672C11.264 236.672 11.7493 236.747 12.176 236.896C12.6133 237.045 12.9813 237.253 13.28 237.52C13.5893 237.787 13.824 238.107 13.984 238.48C14.1547 238.853 14.24 239.259 14.24 239.696C14.24 240.272 14.096 240.763 13.808 241.168C13.5307 241.573 13.1573 241.899 12.688 242.144C13.2533 242.411 13.7067 242.779 14.048 243.248C14.3893 243.707 14.56 244.261 14.56 244.912C14.56 245.371 14.4747 245.797 14.304 246.192C14.1333 246.576 13.8827 246.912 13.552 247.2C13.232 247.488 12.832 247.717 12.352 247.888C11.872 248.048 11.328 248.128 10.72 248.128ZM10.72 246.688C11.0827 246.688 11.4027 246.64 11.68 246.544C11.968 246.448 12.208 246.32 12.4 246.16C12.592 245.989 12.736 245.797 12.832 245.584C12.9387 245.36 12.992 245.131 12.992 244.896C12.992 244.576 12.928 244.293 12.8 244.048C12.672 243.803 12.5013 243.595 12.288 243.424C12.0853 243.243 11.8453 243.099 11.568 242.992C11.3013 242.885 11.0187 242.816 10.72 242.784C10.4107 242.816 10.1173 242.885 9.84 242.992C9.56267 243.088 9.31733 243.227 9.104 243.408C8.90133 243.579 8.74133 243.787 8.624 244.032C8.50667 244.277 8.448 244.565 8.448 244.896C8.448 245.141 8.496 245.371 8.592 245.584C8.69867 245.797 8.848 245.989 9.04 246.16C9.232 246.32 9.46667 246.448 9.744 246.544C10.032 246.64 10.3573 246.688 10.72 246.688ZM10.72 241.552C10.9547 241.52 11.1893 241.467 11.424 241.392C11.6587 241.307 11.8667 241.195 12.048 241.056C12.24 240.907 12.3893 240.725 12.496 240.512C12.6133 240.288 12.672 240.021 12.672 239.712C12.672 239.509 12.6293 239.312 12.544 239.12C12.4587 238.928 12.3307 238.757 12.16 238.608C12 238.459 11.7973 238.341 11.552 238.256C11.3067 238.16 11.0293 238.112 10.72 238.112C10.4107 238.112 10.1333 238.16 9.888 238.256C9.64267 238.341 9.43467 238.459 9.264 238.608C9.104 238.757 8.98133 238.928 8.896 239.12C8.81067 239.312 8.768 239.509 8.768 239.712C8.768 240.011 8.82667 240.267 8.944 240.48C9.072 240.693 9.22667 240.875 9.408 241.024C9.6 241.173 9.808 241.291 10.032 241.376C10.2667 241.461 10.496 241.52 10.72 241.552ZM18.7975 242.528C18.3922 242.528 18.0188 242.464 17.6775 242.336C17.3468 242.208 17.0588 242.027 16.8135 241.792C16.5788 241.557 16.3975 241.28 16.2695 240.96C16.1415 240.64 16.0775 240.288 16.0775 239.904V239.296C16.0775 238.912 16.1415 238.56 16.2695 238.24C16.3975 237.92 16.5788 237.643 16.8135 237.408C17.0588 237.173 17.3468 236.992 17.6775 236.864C18.0188 236.736 18.3922 236.672 18.7975 236.672C19.2028 236.672 19.5708 236.736 19.9015 236.864C20.2322 236.992 20.5148 237.173 20.7495 237.408C20.9948 237.643 21.1815 237.92 21.3095 238.24C21.4482 238.56 21.5175 238.912 21.5175 239.296V239.904C21.5175 240.288 21.4482 240.64 21.3095 240.96C21.1815 241.28 20.9948 241.557 20.7495 241.792C20.5148 242.027 20.2322 242.208 19.9015 242.336C19.5708 242.464 19.2028 242.528 18.7975 242.528ZM18.7975 241.28C19.2135 241.28 19.5388 241.163 19.7735 240.928C20.0188 240.693 20.1415 240.352 20.1415 239.904V239.296C20.1415 238.848 20.0188 238.507 19.7735 238.272C19.5388 238.037 19.2135 237.92 18.7975 237.92C18.3815 237.92 18.0508 238.037 17.8055 238.272C17.5708 238.507 17.4535 238.848 17.4535 239.296V239.904C17.4535 240.352 17.5708 240.693 17.8055 240.928C18.0508 241.163 18.3815 241.28 18.7975 241.28ZM26.4775 248.128C26.0722 248.128 25.6988 248.064 25.3575 247.936C25.0268 247.808 24.7388 247.627 24.4935 247.392C24.2588 247.157 24.0775 246.88 23.9495 246.56C23.8215 246.24 23.7575 245.888 23.7575 245.504V244.896C23.7575 244.512 23.8215 244.16 23.9495 243.84C24.0775 243.52 24.2588 243.243 24.4935 243.008C24.7388 242.773 25.0268 242.592 25.3575 242.464C25.6988 242.336 26.0722 242.272 26.4775 242.272C26.8828 242.272 27.2508 242.336 27.5815 242.464C27.9122 242.592 28.1948 242.773 28.4295 243.008C28.6748 243.243 28.8615 243.52 28.9895 243.84C29.1282 244.16 29.1975 244.512 29.1975 244.896V245.504C29.1975 245.888 29.1282 246.24 28.9895 246.56C28.8615 246.88 28.6748 247.157 28.4295 247.392C28.1948 247.627 27.9122 247.808 27.5815 247.936C27.2508 248.064 26.8828 248.128 26.4775 248.128ZM26.4775 246.88C26.8935 246.88 27.2188 246.763 27.4535 246.528C27.6988 246.293 27.8215 245.952 27.8215 245.504V244.896C27.8215 244.448 27.6988 244.107 27.4535 243.872C27.2188 243.637 26.8935 243.52 26.4775 243.52C26.0615 243.52 25.7308 243.637 25.4855 243.872C25.2508 244.107 25.1335 244.448 25.1335 244.896V245.504C25.1335 245.952 25.2508 246.293 25.4855 246.528C25.7308 246.763 26.0615 246.88 26.4775 246.88ZM25.1015 236.8H26.6375L20.1735 248H18.6375L25.1015 236.8Z" fill="#FAFAFA"/>
<path d="M1.44 205.8H8.16V206.824H2.56V210.376H5.12C6.4 210.376 7.36 210.675 8 211.272C8.64 211.869 8.96 212.675 8.96 213.688C8.96 214.723 8.64 215.533 8 216.12C7.37067 216.707 6.41067 217 5.12 217H1.44V205.8ZM2.56 211.4V215.976H5.12C6.048 215.976 6.72533 215.779 7.152 215.384C7.58933 214.979 7.808 214.413 7.808 213.688C7.808 212.973 7.584 212.413 7.136 212.008C6.69867 211.603 6.02667 211.4 5.12 211.4H2.56ZM11.1256 209H12.1816V211.88H13.9576C15.0883 211.88 15.9096 212.109 16.4216 212.568C16.9443 213.027 17.2056 213.651 17.2056 214.44C17.2056 215.208 16.9443 215.827 16.4216 216.296C15.899 216.765 15.0776 217 13.9576 217H11.1256V209ZM12.1816 212.84V216.04H13.9576C14.747 216.04 15.3016 215.901 15.6216 215.624C15.9523 215.336 16.1176 214.941 16.1176 214.44C16.1176 213.939 15.9523 213.549 15.6216 213.272C15.291 212.984 14.7363 212.84 13.9576 212.84H12.1816ZM18.7096 209H19.7656V217H18.7096V209ZM21.525 209H27.925V209.96H25.253V217H24.197V209.96H21.525V209ZM32.4156 217.112C31.8823 217.112 31.397 217.027 30.9596 216.856C30.533 216.685 30.165 216.44 29.8556 216.12C29.5463 215.8 29.3063 215.411 29.1356 214.952C28.9756 214.483 28.8956 213.949 28.8956 213.352V212.648C28.8956 212.061 28.981 211.539 29.1516 211.08C29.3223 210.611 29.557 210.216 29.8556 209.896C30.165 209.565 30.533 209.315 30.9596 209.144C31.397 208.973 31.8823 208.888 32.4156 208.888C32.949 208.888 33.429 208.973 33.8556 209.144C34.293 209.315 34.6663 209.56 34.9756 209.88C35.285 210.2 35.5196 210.595 35.6796 211.064C35.8503 211.533 35.9356 212.061 35.9356 212.648V213.352C35.9356 213.939 35.8503 214.467 35.6796 214.936C35.509 215.395 35.269 215.789 34.9596 216.12C34.661 216.44 34.293 216.685 33.8556 216.856C33.4183 217.027 32.9383 217.112 32.4156 217.112ZM32.4156 216.12C33.141 216.12 33.7276 215.885 34.1756 215.416C34.6236 214.936 34.8476 214.248 34.8476 213.352V212.648C34.8476 211.763 34.6183 211.08 34.1596 210.6C33.7116 210.12 33.1303 209.88 32.4156 209.88C31.6903 209.88 31.1036 210.12 30.6556 210.6C30.2076 211.069 29.9836 211.752 29.9836 212.648V213.352C29.9836 214.237 30.2076 214.92 30.6556 215.4C31.1143 215.88 31.701 216.12 32.4156 216.12ZM38.1725 209H41.1325C42.1032 209 42.8125 209.197 43.2605 209.592C43.7085 209.987 43.9325 210.52 43.9325 211.192C43.9325 211.533 43.8472 211.848 43.6765 212.136C43.5058 212.424 43.2498 212.664 42.9085 212.856C43.3565 213.037 43.6925 213.293 43.9165 213.624C44.1405 213.944 44.2525 214.307 44.2525 214.712C44.2525 215.427 44.0285 215.987 43.5805 216.392C43.1325 216.797 42.4232 217 41.4525 217H38.1725V209ZM39.2285 213.4V216.04H41.4525C42.0818 216.04 42.5245 215.928 42.7805 215.704C43.0365 215.48 43.1645 215.149 43.1645 214.712C43.1645 214.285 43.0365 213.96 42.7805 213.736C42.5245 213.512 42.0818 213.4 41.4525 213.4H39.2285ZM39.2285 209.96V212.44H41.1325C41.7618 212.44 42.2045 212.333 42.4605 212.12C42.7165 211.896 42.8445 211.587 42.8445 211.192C42.8445 210.808 42.7165 210.509 42.4605 210.296C42.2045 210.072 41.7618 209.96 41.1325 209.96H39.2285ZM46.485 209H47.541V211.88H49.317C50.4477 211.88 51.269 212.109 51.781 212.568C52.3037 213.027 52.565 213.651 52.565 214.44C52.565 215.208 52.3037 215.827 51.781 216.296C51.2583 216.765 50.437 217 49.317 217H46.485V209ZM47.541 212.84V216.04H49.317C50.1063 216.04 50.661 215.901 50.981 215.624C51.3117 215.336 51.477 214.941 51.477 214.44C51.477 213.939 51.3117 213.549 50.981 213.272C50.6503 212.984 50.0957 212.84 49.317 212.84H47.541ZM54.069 209H55.125V217H54.069V209ZM60.8044 217.112C59.7484 217.112 58.911 216.792 58.2924 216.152C57.6737 215.501 57.3644 214.568 57.3644 213.352V212.648C57.3644 211.443 57.6737 210.515 58.2924 209.864C58.9217 209.213 59.759 208.888 60.8044 208.888C61.8497 208.888 62.6817 209.213 63.3004 209.864C63.9297 210.515 64.2444 211.443 64.2444 212.648V213.304H58.4524V213.352C58.4524 214.28 58.6657 214.973 59.0924 215.432C59.519 215.891 60.0897 216.12 60.8044 216.12C61.4657 216.12 61.967 215.981 62.3084 215.704C62.6604 215.427 62.9164 215.08 63.0764 214.664H64.1644C64.079 215.005 63.951 215.325 63.7804 215.624C63.6097 215.923 63.3857 216.184 63.1084 216.408C62.831 216.621 62.5004 216.792 62.1164 216.92C61.7324 217.048 61.295 217.112 60.8044 217.112ZM60.8044 209.88C60.111 209.88 59.5564 210.099 59.1404 210.536C58.735 210.963 58.5057 211.576 58.4524 212.376H63.1404C63.0977 211.544 62.863 210.92 62.4364 210.504C62.0204 210.088 61.4764 209.88 60.8044 209.88ZM69.525 209H75.925V209.96H73.253V217H72.197V209.96H69.525V209ZM80.4156 217.112C79.8823 217.112 79.397 217.027 78.9596 216.856C78.533 216.685 78.165 216.44 77.8556 216.12C77.5463 215.8 77.3063 215.411 77.1356 214.952C76.9756 214.483 76.8956 213.949 76.8956 213.352V212.648C76.8956 212.061 76.981 211.539 77.1516 211.08C77.3223 210.611 77.557 210.216 77.8556 209.896C78.165 209.565 78.533 209.315 78.9596 209.144C79.397 208.973 79.8823 208.888 80.4156 208.888C80.949 208.888 81.429 208.973 81.8556 209.144C82.293 209.315 82.6663 209.56 82.9756 209.88C83.285 210.2 83.5196 210.595 83.6796 211.064C83.8503 211.533 83.9356 212.061 83.9356 212.648V213.352C83.9356 213.939 83.8503 214.467 83.6796 214.936C83.509 215.395 83.269 215.789 82.9596 216.12C82.661 216.44 82.293 216.685 81.8556 216.856C81.4183 217.027 80.9383 217.112 80.4156 217.112ZM80.4156 216.12C81.141 216.12 81.7276 215.885 82.1756 215.416C82.6236 214.936 82.8476 214.248 82.8476 213.352V212.648C82.8476 211.763 82.6183 211.08 82.1596 210.6C81.7116 210.12 81.1303 209.88 80.4156 209.88C79.6903 209.88 79.1036 210.12 78.6556 210.6C78.2076 211.069 77.9836 211.752 77.9836 212.648V213.352C77.9836 214.237 78.2076 214.92 78.6556 215.4C79.1143 215.88 79.701 216.12 80.4156 216.12ZM86.1725 209H89.1325C90.1032 209 90.8125 209.197 91.2605 209.592C91.7085 209.987 91.9325 210.52 91.9325 211.192C91.9325 211.533 91.8472 211.848 91.6765 212.136C91.5058 212.424 91.2498 212.664 90.9085 212.856C91.3565 213.037 91.6925 213.293 91.9165 213.624C92.1405 213.944 92.2525 214.307 92.2525 214.712C92.2525 215.427 92.0285 215.987 91.5805 216.392C91.1325 216.797 90.4232 217 89.4525 217H86.1725V209ZM87.2285 213.4V216.04H89.4525C90.0818 216.04 90.5245 215.928 90.7805 215.704C91.0365 215.48 91.1645 215.149 91.1645 214.712C91.1645 214.285 91.0365 213.96 90.7805 213.736C90.5245 213.512 90.0818 213.4 89.4525 213.4H87.2285ZM87.2285 209.96V212.44H89.1325C89.7618 212.44 90.2045 212.333 90.4605 212.12C90.7165 211.896 90.8445 211.587 90.8445 211.192C90.8445 210.808 90.7165 210.509 90.4605 210.296C90.2045 210.072 89.7618 209.96 89.1325 209.96H87.2285ZM96.405 217.112C95.605 217.112 94.9917 216.909 94.565 216.504C94.1383 216.088 93.925 215.517 93.925 214.792C93.925 214.408 93.9837 214.061 94.101 213.752C94.229 213.432 94.4263 213.165 94.693 212.952C94.9703 212.739 95.3223 212.573 95.749 212.456C96.1757 212.339 96.6877 212.28 97.285 212.28H99.109V211.56C99.109 210.984 98.965 210.563 98.677 210.296C98.3997 210.019 97.9357 209.88 97.285 209.88C96.6983 209.88 96.2557 209.997 95.957 210.232C95.669 210.456 95.5037 210.765 95.461 211.16H94.325C94.3463 210.829 94.421 210.525 94.549 210.248C94.677 209.971 94.8637 209.731 95.109 209.528C95.3543 209.325 95.6583 209.171 96.021 209.064C96.3837 208.947 96.805 208.888 97.285 208.888C98.2343 208.888 98.949 209.123 99.429 209.592C99.9197 210.061 100.165 210.717 100.165 211.56V217H99.349L99.189 215.496C98.9117 216.008 98.5277 216.408 98.037 216.696C97.557 216.973 97.013 217.112 96.405 217.112ZM96.485 216.12C96.8477 216.12 97.189 216.056 97.509 215.928C97.829 215.789 98.1063 215.608 98.341 215.384C98.5863 215.149 98.773 214.883 98.901 214.584C99.0397 214.275 99.109 213.949 99.109 213.608V213.24H97.285C96.4637 213.24 95.877 213.384 95.525 213.672C95.1837 213.96 95.013 214.333 95.013 214.792C95.013 215.197 95.1357 215.523 95.381 215.768C95.637 216.003 96.005 216.12 96.485 216.12ZM106.382 217.112C105.827 217.112 105.336 217.011 104.91 216.808C104.483 216.595 104.131 216.269 103.854 215.832V220.2H102.798V209H103.614L103.742 210.344C104.019 209.853 104.376 209.491 104.814 209.256C105.262 209.011 105.784 208.888 106.382 208.888C106.84 208.888 107.262 208.968 107.646 209.128C108.03 209.288 108.36 209.528 108.638 209.848C108.915 210.157 109.128 210.547 109.278 211.016C109.438 211.485 109.517 212.029 109.517 212.648V213.352C109.517 213.96 109.438 214.499 109.278 214.968C109.128 215.437 108.915 215.832 108.638 216.152C108.36 216.472 108.03 216.712 107.646 216.872C107.262 217.032 106.84 217.112 106.382 217.112ZM106.141 216.12C106.835 216.12 107.39 215.896 107.806 215.448C108.222 214.989 108.43 214.291 108.43 213.352V212.648C108.43 211.72 108.216 211.027 107.79 210.568C107.374 210.109 106.824 209.88 106.141 209.88C105.502 209.88 104.963 210.104 104.526 210.552C104.099 211 103.875 211.656 103.854 212.52V213.352C103.854 214.248 104.067 214.936 104.494 215.416C104.92 215.885 105.47 216.12 106.141 216.12ZM111.751 209H112.807V211.88H114.583C115.713 211.88 116.535 212.109 117.047 212.568C117.569 213.027 117.831 213.651 117.831 214.44C117.831 215.208 117.569 215.827 117.047 216.296C116.524 216.765 115.703 217 114.583 217H111.751V209ZM112.807 212.84V216.04H114.583C115.372 216.04 115.927 215.901 116.247 215.624C116.577 215.336 116.743 214.941 116.743 214.44C116.743 213.939 116.577 213.549 116.247 213.272C115.916 212.984 115.361 212.84 114.583 212.84H112.807ZM119.335 209H120.391V217H119.335V209ZM132.614 210.216L131.622 211.88L128.422 217H127.11V209H128.166V215.8L129.158 214.12L132.358 209H133.67V217H132.614V210.216ZM142.743 217L139.431 209H140.615L143.319 215.688L145.831 209H146.951L142.631 220.2H141.511L142.743 217ZM151.351 217.112C150.839 217.112 150.37 217.027 149.943 216.856C149.527 216.685 149.165 216.44 148.855 216.12C148.557 215.8 148.322 215.411 148.151 214.952C147.991 214.483 147.911 213.949 147.911 213.352V212.648C147.911 212.061 147.991 211.539 148.151 211.08C148.322 210.611 148.557 210.216 148.855 209.896C149.165 209.565 149.527 209.315 149.943 209.144C150.37 208.973 150.839 208.888 151.351 208.888C151.799 208.888 152.194 208.947 152.535 209.064C152.887 209.181 153.191 209.347 153.447 209.56C153.714 209.763 153.927 210.003 154.087 210.28C154.258 210.557 154.386 210.851 154.471 211.16H153.351C153.191 210.797 152.957 210.493 152.647 210.248C152.349 210.003 151.917 209.88 151.351 209.88C150.669 209.88 150.103 210.12 149.655 210.6C149.218 211.069 148.999 211.752 148.999 212.648V213.352C148.999 213.789 149.058 214.184 149.175 214.536C149.293 214.877 149.458 215.165 149.671 215.4C149.885 215.635 150.13 215.816 150.407 215.944C150.695 216.061 151.01 216.12 151.351 216.12C151.927 216.12 152.365 215.992 152.663 215.736C152.962 215.48 153.191 215.128 153.351 214.68H154.471C154.311 215.384 153.975 215.965 153.463 216.424C152.951 216.883 152.247 217.112 151.351 217.112ZM155.273 216.12H155.513C155.705 216.12 155.881 216.077 156.041 215.992C156.212 215.896 156.356 215.725 156.473 215.48C156.601 215.235 156.697 214.904 156.761 214.488C156.836 214.061 156.873 213.512 156.873 212.84V209H162.313V217H161.257V209.96H157.929V212.84C157.929 213.672 157.87 214.365 157.753 214.92C157.646 215.464 157.486 215.901 157.273 216.232C157.06 216.552 156.804 216.781 156.505 216.92C156.206 217.048 155.876 217.112 155.513 217.112H155.273V216.12ZM167.384 217L164.072 209H165.256L167.96 215.688L170.472 209H171.592L167.272 220.2H166.152L167.384 217ZM173.344 209H178.464V209.96H174.4V217H173.344V209ZM185.723 210.216L184.731 211.88L181.531 217H180.219V209H181.275V215.8L182.267 214.12L185.467 209H186.779V217H185.723V210.216Z" fill="#23201F"/>
<rect opacity="0.05" y="159" width="670" height="32" fill="#1C5F87"/>
<rect y="159" width="252" height="32" fill="#FA5B3D"/>
<path d="M6.32 171.416L8.656 169.8H10.16V181H8.656V171.464L6.32 173.048V171.416ZM13.1138 169.8H19.2738V171.176H14.4898L14.2338 174.248C14.8204 173.747 15.5511 173.496 16.4258 173.496C16.9378 173.496 17.4124 173.587 17.8498 173.768C18.2871 173.949 18.6658 174.211 18.9858 174.552C19.3058 174.883 19.5511 175.283 19.7218 175.752C19.9031 176.211 19.9938 176.728 19.9938 177.304C19.9938 177.88 19.9031 178.408 19.7218 178.888C19.5404 179.357 19.2791 179.757 18.9378 180.088C18.6071 180.419 18.2071 180.675 17.7378 180.856C17.2684 181.037 16.7404 181.128 16.1538 181.128C15.1831 181.128 14.3511 180.883 13.6578 180.392C12.9644 179.901 12.5164 179.187 12.3138 178.248H13.8818C14.0631 178.728 14.3458 179.091 14.7298 179.336C15.1138 179.571 15.5884 179.688 16.1538 179.688C16.8578 179.688 17.4124 179.48 17.8178 179.064C18.2231 178.648 18.4258 178.061 18.4258 177.304C18.4258 176.557 18.2231 175.976 17.8178 175.56C17.4124 175.144 16.8578 174.936 16.1538 174.936C15.6738 174.936 15.2578 175.032 14.9058 175.224C14.5644 175.416 14.3031 175.651 14.1218 175.928H12.6338L13.1138 169.8ZM24.0006 175.528C23.5953 175.528 23.222 175.464 22.8806 175.336C22.55 175.208 22.262 175.027 22.0166 174.792C21.782 174.557 21.6006 174.28 21.4726 173.96C21.3446 173.64 21.2806 173.288 21.2806 172.904V172.296C21.2806 171.912 21.3446 171.56 21.4726 171.24C21.6006 170.92 21.782 170.643 22.0166 170.408C22.262 170.173 22.55 169.992 22.8806 169.864C23.222 169.736 23.5953 169.672 24.0006 169.672C24.406 169.672 24.774 169.736 25.1046 169.864C25.4353 169.992 25.718 170.173 25.9526 170.408C26.198 170.643 26.3846 170.92 26.5126 171.24C26.6513 171.56 26.7206 171.912 26.7206 172.296V172.904C26.7206 173.288 26.6513 173.64 26.5126 173.96C26.3846 174.28 26.198 174.557 25.9526 174.792C25.718 175.027 25.4353 175.208 25.1046 175.336C24.774 175.464 24.406 175.528 24.0006 175.528ZM24.0006 174.28C24.4166 174.28 24.742 174.163 24.9766 173.928C25.222 173.693 25.3446 173.352 25.3446 172.904V172.296C25.3446 171.848 25.222 171.507 24.9766 171.272C24.742 171.037 24.4166 170.92 24.0006 170.92C23.5846 170.92 23.254 171.037 23.0086 171.272C22.774 171.507 22.6566 171.848 22.6566 172.296V172.904C22.6566 173.352 22.774 173.693 23.0086 173.928C23.254 174.163 23.5846 174.28 24.0006 174.28ZM31.6806 181.128C31.2753 181.128 30.902 181.064 30.5606 180.936C30.23 180.808 29.942 180.627 29.6966 180.392C29.462 180.157 29.2806 179.88 29.1526 179.56C29.0246 179.24 28.9606 178.888 28.9606 178.504V177.896C28.9606 177.512 29.0246 177.16 29.1526 176.84C29.2806 176.52 29.462 176.243 29.6966 176.008C29.942 175.773 30.23 175.592 30.5606 175.464C30.902 175.336 31.2753 175.272 31.6806 175.272C32.086 175.272 32.454 175.336 32.7846 175.464C33.1153 175.592 33.398 175.773 33.6326 176.008C33.878 176.243 34.0646 176.52 34.1926 176.84C34.3313 177.16 34.4006 177.512 34.4006 177.896V178.504C34.4006 178.888 34.3313 179.24 34.1926 179.56C34.0646 179.88 33.878 180.157 33.6326 180.392C33.398 180.627 33.1153 180.808 32.7846 180.936C32.454 181.064 32.086 181.128 31.6806 181.128ZM31.6806 179.88C32.0966 179.88 32.422 179.763 32.6566 179.528C32.902 179.293 33.0246 178.952 33.0246 178.504V177.896C33.0246 177.448 32.902 177.107 32.6566 176.872C32.422 176.637 32.0966 176.52 31.6806 176.52C31.2646 176.52 30.934 176.637 30.6886 176.872C30.454 177.107 30.3366 177.448 30.3366 177.896V178.504C30.3366 178.952 30.454 179.293 30.6886 179.528C30.934 179.763 31.2646 179.88 31.6806 179.88ZM30.3046 169.8H31.8406L25.3766 181H23.8406L30.3046 169.8Z" fill="#FAFAFA"/>
<path d="M4.528 146.8L0.48 138.8H1.728L5.12 145.6L8.064 138.8H9.28L4.336 150H3.12L4.528 146.8ZM12.4919 150.112C11.9799 150.112 11.5105 150.027 11.0839 149.856C10.6679 149.685 10.3052 149.44 9.99588 149.12C9.69721 148.8 9.46254 148.411 9.29188 147.952C9.13188 147.483 9.05188 146.949 9.05188 146.352V145.648C9.05188 145.061 9.13188 144.539 9.29188 144.08C9.46254 143.611 9.69721 143.216 9.99588 142.896C10.3052 142.565 10.6679 142.315 11.0839 142.144C11.5105 141.973 11.9799 141.888 12.4919 141.888C12.9399 141.888 13.3345 141.947 13.6759 142.064C14.0279 142.181 14.3319 142.347 14.5879 142.56C14.8545 142.763 15.0679 143.003 15.2279 143.28C15.3985 143.557 15.5265 143.851 15.6119 144.16H14.4919C14.3319 143.797 14.0972 143.493 13.7879 143.248C13.4892 143.003 13.0572 142.88 12.4919 142.88C11.8092 142.88 11.2439 143.12 10.7959 143.6C10.3585 144.069 10.1399 144.752 10.1399 145.648V146.352C10.1399 146.789 10.1985 147.184 10.3159 147.536C10.4332 147.877 10.5985 148.165 10.8119 148.4C11.0252 148.635 11.2705 148.816 11.5479 148.944C11.8359 149.061 12.1505 149.12 12.4919 149.12C13.0679 149.12 13.5052 148.992 13.8039 148.736C14.1025 148.48 14.3319 148.128 14.4919 147.68H15.6119C15.4519 148.384 15.1159 148.965 14.6039 149.424C14.0919 149.883 13.3879 150.112 12.4919 150.112ZM19.6495 150L16.3375 142H17.5215L20.2255 148.688L22.7375 142H23.8575L19.5375 153.2H18.4175L19.6495 150ZM25.61 142H30.73V142.96H26.666V150H25.61V142ZM37.989 143.216L36.997 144.88L33.797 150H32.485V142H33.541V148.8L34.533 147.12L37.733 142H39.045V150H37.989V143.216ZM54.0863 144.752H52.3263V150H51.2063V144.752H49.4463L46.2943 150H44.9663L48.5023 144.208L45.2863 138.8H46.5823L49.4463 143.728H51.2063V138.8H52.3263V143.728H54.0703L56.9823 138.8H58.2463L55.0303 144.176L58.5663 150H57.2223L54.0863 144.752ZM63.461 144.752H61.685V150H60.565V138.8H61.685V143.728H63.445L67.061 138.8H68.405L64.389 144.224L68.725 150H67.349L63.461 144.752ZM74.6055 145.104L71.3415 150H69.9975L73.9335 144.192L70.3175 138.8H71.6775L74.6535 143.232L77.6295 138.8H78.9575L75.3415 144.128L79.2775 150H77.9015L74.6055 145.104Z" fill="#23201F"/>
<rect opacity="0.05" y="92" width="670" height="32" fill="#1C5F87"/>
<rect y="92" width="335" height="32" fill="#FA5B3D"/>
<path d="M6.64 112.624L10.464 108.928C11.1467 108.256 11.6427 107.707 11.952 107.28C12.272 106.843 12.432 106.421 12.432 106.016C12.432 105.451 12.24 104.992 11.856 104.64C11.472 104.288 10.96 104.112 10.32 104.112C9.68 104.112 9.168 104.293 8.784 104.656C8.4 105.008 8.208 105.483 8.208 106.08H6.64C6.64 105.579 6.72533 105.12 6.896 104.704C7.07733 104.288 7.328 103.931 7.648 103.632C7.968 103.323 8.352 103.088 8.8 102.928C9.25867 102.757 9.76533 102.672 10.32 102.672C10.8747 102.672 11.376 102.757 11.824 102.928C12.2827 103.088 12.672 103.317 12.992 103.616C13.312 103.915 13.5573 104.272 13.728 104.688C13.9093 105.093 14 105.536 14 106.016C14 106.613 13.792 107.216 13.376 107.824C12.96 108.432 12.3573 109.104 11.568 109.84L8.624 112.624H14V114H6.64V112.624ZM19.6769 114.128C19.0902 114.128 18.5569 114.032 18.0769 113.84C17.6075 113.648 17.2075 113.344 16.8769 112.928C16.5462 112.501 16.2902 111.957 16.1089 111.296C15.9275 110.624 15.8369 109.813 15.8369 108.864V107.936C15.8369 106.997 15.9275 106.197 16.1089 105.536C16.2902 104.864 16.5462 104.32 16.8769 103.904C17.2182 103.477 17.6235 103.168 18.0929 102.976C18.5729 102.773 19.1009 102.672 19.6769 102.672C20.2635 102.672 20.7915 102.768 21.2609 102.96C21.7409 103.152 22.1462 103.461 22.4769 103.888C22.8075 104.304 23.0635 104.848 23.2449 105.52C23.4262 106.181 23.5169 106.987 23.5169 107.936V108.864C23.5169 109.803 23.4262 110.608 23.2449 111.28C23.0635 111.941 22.8022 112.485 22.4609 112.912C22.1302 113.328 21.7249 113.637 21.2449 113.84C20.7755 114.032 20.2529 114.128 19.6769 114.128ZM19.6769 112.688C20.0289 112.688 20.3435 112.629 20.6209 112.512C20.9089 112.384 21.1489 112.176 21.3409 111.888C21.5329 111.589 21.6822 111.195 21.7889 110.704C21.8955 110.213 21.9489 109.6 21.9489 108.864V107.936C21.9489 107.2 21.8955 106.592 21.7889 106.112C21.6822 105.621 21.5275 105.227 21.3249 104.928C21.1329 104.629 20.8929 104.421 20.6049 104.304C20.3275 104.176 20.0182 104.112 19.6769 104.112C19.3249 104.112 19.0049 104.176 18.7169 104.304C18.4395 104.421 18.2049 104.629 18.0129 104.928C17.8209 105.216 17.6715 105.605 17.5649 106.096C17.4582 106.587 17.4049 107.2 17.4049 107.936V108.864C17.4049 109.6 17.4582 110.213 17.5649 110.704C17.6715 111.184 17.8209 111.573 18.0129 111.872C18.2155 112.171 18.4555 112.384 18.7329 112.512C19.0209 112.629 19.3355 112.688 19.6769 112.688ZM27.9225 108.528C27.5172 108.528 27.1438 108.464 26.8025 108.336C26.4718 108.208 26.1838 108.027 25.9385 107.792C25.7038 107.557 25.5225 107.28 25.3945 106.96C25.2665 106.64 25.2025 106.288 25.2025 105.904V105.296C25.2025 104.912 25.2665 104.56 25.3945 104.24C25.5225 103.92 25.7038 103.643 25.9385 103.408C26.1838 103.173 26.4718 102.992 26.8025 102.864C27.1438 102.736 27.5172 102.672 27.9225 102.672C28.3278 102.672 28.6958 102.736 29.0265 102.864C29.3572 102.992 29.6398 103.173 29.8745 103.408C30.1198 103.643 30.3065 103.92 30.4345 104.24C30.5732 104.56 30.6425 104.912 30.6425 105.296V105.904C30.6425 106.288 30.5732 106.64 30.4345 106.96C30.3065 107.28 30.1198 107.557 29.8745 107.792C29.6398 108.027 29.3572 108.208 29.0265 108.336C28.6958 108.464 28.3278 108.528 27.9225 108.528ZM27.9225 107.28C28.3385 107.28 28.6638 107.163 28.8985 106.928C29.1438 106.693 29.2665 106.352 29.2665 105.904V105.296C29.2665 104.848 29.1438 104.507 28.8985 104.272C28.6638 104.037 28.3385 103.92 27.9225 103.92C27.5065 103.92 27.1758 104.037 26.9305 104.272C26.6958 104.507 26.5785 104.848 26.5785 105.296V105.904C26.5785 106.352 26.6958 106.693 26.9305 106.928C27.1758 107.163 27.5065 107.28 27.9225 107.28ZM35.6025 114.128C35.1972 114.128 34.8238 114.064 34.4825 113.936C34.1518 113.808 33.8638 113.627 33.6185 113.392C33.3838 113.157 33.2025 112.88 33.0745 112.56C32.9465 112.24 32.8825 111.888 32.8825 111.504V110.896C32.8825 110.512 32.9465 110.16 33.0745 109.84C33.2025 109.52 33.3838 109.243 33.6185 109.008C33.8638 108.773 34.1518 108.592 34.4825 108.464C34.8238 108.336 35.1972 108.272 35.6025 108.272C36.0078 108.272 36.3758 108.336 36.7065 108.464C37.0372 108.592 37.3198 108.773 37.5545 109.008C37.7998 109.243 37.9865 109.52 38.1145 109.84C38.2532 110.16 38.3225 110.512 38.3225 110.896V111.504C38.3225 111.888 38.2532 112.24 38.1145 112.56C37.9865 112.88 37.7998 113.157 37.5545 113.392C37.3198 113.627 37.0372 113.808 36.7065 113.936C36.3758 114.064 36.0078 114.128 35.6025 114.128ZM35.6025 112.88C36.0185 112.88 36.3438 112.763 36.5785 112.528C36.8238 112.293 36.9465 111.952 36.9465 111.504V110.896C36.9465 110.448 36.8238 110.107 36.5785 109.872C36.3438 109.637 36.0185 109.52 35.6025 109.52C35.1865 109.52 34.8558 109.637 34.6105 109.872C34.3758 110.107 34.2585 110.448 34.2585 110.896V111.504C34.2585 111.952 34.3758 112.293 34.6105 112.528C34.8558 112.763 35.1865 112.88 35.6025 112.88ZM34.2265 102.8H35.7625L29.2985 114H27.7625L34.2265 102.8Z" fill="#FAFAFA"/>
<path d="M4.336 77.752H2.56V83H1.44V71.8H2.56V76.728H4.32L7.936 71.8H9.28L5.264 77.224L9.6 83H8.224L4.336 77.752ZM15.1003 83.112C14.5456 83.112 14.0549 83.0107 13.6283 82.808C13.2016 82.5947 12.8496 82.2693 12.5723 81.832V86.2H11.5163V75H12.3323L12.4603 76.344C12.7376 75.8533 13.0949 75.4907 13.5323 75.256C13.9803 75.0107 14.5029 74.888 15.1003 74.888C15.5589 74.888 15.9803 74.968 16.3643 75.128C16.7483 75.288 17.0789 75.528 17.3563 75.848C17.6336 76.1573 17.8469 76.5467 17.9963 77.016C18.1562 77.4853 18.2362 78.0293 18.2362 78.648V79.352C18.2362 79.96 18.1562 80.4987 17.9963 80.968C17.8469 81.4373 17.6336 81.832 17.3563 82.152C17.0789 82.472 16.7483 82.712 16.3643 82.872C15.9803 83.032 15.5589 83.112 15.1003 83.112ZM14.8602 82.12C15.5536 82.12 16.1083 81.896 16.5243 81.448C16.9403 80.9893 17.1483 80.2907 17.1483 79.352V78.648C17.1483 77.72 16.9349 77.0267 16.5083 76.568C16.0923 76.1093 15.5429 75.88 14.8602 75.88C14.2203 75.88 13.6816 76.104 13.2443 76.552C12.8176 77 12.5936 77.656 12.5723 78.52V79.352C12.5723 80.248 12.7856 80.936 13.2123 81.416C13.6389 81.8853 14.1883 82.12 14.8602 82.12ZM23.4294 83.112C22.3734 83.112 21.536 82.792 20.9174 82.152C20.2987 81.5013 19.9894 80.568 19.9894 79.352V78.648C19.9894 77.4427 20.2987 76.5147 20.9174 75.864C21.5467 75.2133 22.384 74.888 23.4294 74.888C24.4747 74.888 25.3067 75.2133 25.9254 75.864C26.5547 76.5147 26.8694 77.4427 26.8694 78.648V79.304H21.0774V79.352C21.0774 80.28 21.2907 80.9733 21.7174 81.432C22.144 81.8907 22.7147 82.12 23.4294 82.12C24.0907 82.12 24.592 81.9813 24.9334 81.704C25.2854 81.4267 25.5414 81.08 25.7014 80.664H26.7894C26.704 81.0053 26.576 81.3253 26.4054 81.624C26.2347 81.9227 26.0107 82.184 25.7334 82.408C25.456 82.6213 25.1254 82.792 24.7414 82.92C24.3574 83.048 23.92 83.112 23.4294 83.112ZM23.4294 75.88C22.736 75.88 22.1814 76.0987 21.7654 76.536C21.36 76.9627 21.1307 77.576 21.0774 78.376H25.7654C25.7227 77.544 25.488 76.92 25.0614 76.504C24.6454 76.088 24.1014 75.88 23.4294 75.88ZM35.0178 83H28.8898V85.08H27.8338V82.04H28.6818C28.8738 81.752 29.0284 81.4747 29.1458 81.208C29.2631 80.9413 29.3538 80.6373 29.4178 80.296C29.4818 79.944 29.5244 79.5387 29.5458 79.08C29.5778 78.6213 29.5938 78.0613 29.5938 77.4V75H34.9538V82.04H36.0738V85.08H35.0178V83ZM30.6498 77.4C30.6498 78.0613 30.6338 78.632 30.6018 79.112C30.5804 79.5813 30.5378 79.992 30.4738 80.344C30.4204 80.696 30.3458 81.0053 30.2498 81.272C30.1538 81.528 30.0418 81.784 29.9138 82.04H33.8978V75.96H30.6498V77.4ZM43.2546 76.216L42.2626 77.88L39.0626 83H37.7506V75H38.8066V81.8L39.7986 80.12L42.9986 75H44.3106V83H43.2546V76.216ZM46.0719 75H52.4719V75.96H49.7999V83H48.7439V75.96H46.0719V75ZM54.235 75H55.291V77.88H57.067C58.1977 77.88 59.019 78.1093 59.531 78.568C60.0537 79.0267 60.315 79.6507 60.315 80.44C60.315 81.208 60.0537 81.8267 59.531 82.296C59.0083 82.7653 58.187 83 57.067 83H54.235V75ZM55.291 78.84V82.04H57.067C57.8563 82.04 58.411 81.9013 58.731 81.624C59.0617 81.336 59.227 80.9413 59.227 80.44C59.227 79.9387 59.0617 79.5493 58.731 79.272C58.4003 78.984 57.8457 78.84 57.067 78.84H55.291ZM61.819 75H62.875V83H61.819V75Z" fill="#23201F"/>
<rect y="25" width="670" height="32" fill="#FA5B3D"/>
<path d="M6.32 43.112L11.28 35.8H13.232V43.112H14.64V44.488H13.232V47H11.728V44.488H6.32V43.112ZM11.728 43.112V37.48L7.968 43.112H11.728ZM19.9269 47.128C19.3402 47.128 18.8069 47.032 18.3269 46.84C17.8575 46.648 17.4575 46.344 17.1269 45.928C16.7962 45.5013 16.5402 44.9573 16.3589 44.296C16.1775 43.624 16.0869 42.8133 16.0869 41.864V40.936C16.0869 39.9973 16.1775 39.1973 16.3589 38.536C16.5402 37.864 16.7962 37.32 17.1269 36.904C17.4682 36.4773 17.8735 36.168 18.3429 35.976C18.8229 35.7733 19.3509 35.672 19.9269 35.672C20.5135 35.672 21.0415 35.768 21.5109 35.96C21.9909 36.152 22.3962 36.4613 22.7269 36.888C23.0575 37.304 23.3135 37.848 23.4949 38.52C23.6762 39.1813 23.7669 39.9867 23.7669 40.936V41.864C23.7669 42.8027 23.6762 43.608 23.4949 44.28C23.3135 44.9413 23.0522 45.4853 22.7109 45.912C22.3802 46.328 21.9749 46.6373 21.4949 46.84C21.0255 47.032 20.5029 47.128 19.9269 47.128ZM19.9269 45.688C20.2789 45.688 20.5935 45.6293 20.8709 45.512C21.1589 45.384 21.3989 45.176 21.5909 44.888C21.7829 44.5893 21.9322 44.1947 22.0389 43.704C22.1455 43.2133 22.1989 42.6 22.1989 41.864V40.936C22.1989 40.2 22.1455 39.592 22.0389 39.112C21.9322 38.6213 21.7775 38.2267 21.5749 37.928C21.3829 37.6293 21.1429 37.4213 20.8549 37.304C20.5775 37.176 20.2682 37.112 19.9269 37.112C19.5749 37.112 19.2549 37.176 18.9669 37.304C18.6895 37.4213 18.4549 37.6293 18.2629 37.928C18.0709 38.216 17.9215 38.6053 17.8149 39.096C17.7082 39.5867 17.6549 40.2 17.6549 40.936V41.864C17.6549 42.6 17.7082 43.2133 17.8149 43.704C17.9215 44.184 18.0709 44.5733 18.2629 44.872C18.4655 45.1707 18.7055 45.384 18.9829 45.512C19.2709 45.6293 19.5855 45.688 19.9269 45.688ZM28.1725 41.528C27.7672 41.528 27.3938 41.464 27.0525 41.336C26.7218 41.208 26.4338 41.0267 26.1885 40.792C25.9538 40.5573 25.7725 40.28 25.6445 39.96C25.5165 39.64 25.4525 39.288 25.4525 38.904V38.296C25.4525 37.912 25.5165 37.56 25.6445 37.24C25.7725 36.92 25.9538 36.6427 26.1885 36.408C26.4338 36.1733 26.7218 35.992 27.0525 35.864C27.3938 35.736 27.7672 35.672 28.1725 35.672C28.5778 35.672 28.9458 35.736 29.2765 35.864C29.6072 35.992 29.8898 36.1733 30.1245 36.408C30.3698 36.6427 30.5565 36.92 30.6845 37.24C30.8232 37.56 30.8925 37.912 30.8925 38.296V38.904C30.8925 39.288 30.8232 39.64 30.6845 39.96C30.5565 40.28 30.3698 40.5573 30.1245 40.792C29.8898 41.0267 29.6072 41.208 29.2765 41.336C28.9458 41.464 28.5778 41.528 28.1725 41.528ZM28.1725 40.28C28.5885 40.28 28.9138 40.1627 29.1485 39.928C29.3938 39.6933 29.5165 39.352 29.5165 38.904V38.296C29.5165 37.848 29.3938 37.5067 29.1485 37.272C28.9138 37.0373 28.5885 36.92 28.1725 36.92C27.7565 36.92 27.4258 37.0373 27.1805 37.272C26.9458 37.5067 26.8285 37.848 26.8285 38.296V38.904C26.8285 39.352 26.9458 39.6933 27.1805 39.928C27.4258 40.1627 27.7565 40.28 28.1725 40.28ZM35.8525 47.128C35.4472 47.128 35.0738 47.064 34.7325 46.936C34.4018 46.808 34.1138 46.6267 33.8685 46.392C33.6338 46.1573 33.4525 45.88 33.3245 45.56C33.1965 45.24 33.1325 44.888 33.1325 44.504V43.896C33.1325 43.512 33.1965 43.16 33.3245 42.84C33.4525 42.52 33.6338 42.2427 33.8685 42.008C34.1138 41.7733 34.4018 41.592 34.7325 41.464C35.0738 41.336 35.4472 41.272 35.8525 41.272C36.2578 41.272 36.6258 41.336 36.9565 41.464C37.2872 41.592 37.5698 41.7733 37.8045 42.008C38.0498 42.2427 38.2365 42.52 38.3645 42.84C38.5032 43.16 38.5725 43.512 38.5725 43.896V44.504C38.5725 44.888 38.5032 45.24 38.3645 45.56C38.2365 45.88 38.0498 46.1573 37.8045 46.392C37.5698 46.6267 37.2872 46.808 36.9565 46.936C36.6258 47.064 36.2578 47.128 35.8525 47.128ZM35.8525 45.88C36.2685 45.88 36.5938 45.7627 36.8285 45.528C37.0738 45.2933 37.1965 44.952 37.1965 44.504V43.896C37.1965 43.448 37.0738 43.1067 36.8285 42.872C36.5938 42.6373 36.2685 42.52 35.8525 42.52C35.4365 42.52 35.1058 42.6373 34.8605 42.872C34.6258 43.1067 34.5085 43.448 34.5085 43.896V44.504C34.5085 44.952 34.6258 45.2933 34.8605 45.528C35.1058 45.7627 35.4365 45.88 35.8525 45.88ZM34.4765 35.8H36.0125L29.5485 47H28.0125L34.4765 35.8Z" fill="#FAFAFA"/>
<path d="M8.64 5.824H2.56V16H1.44V4.8H9.76V16H8.64V5.824ZM15.6031 16.112C15.0698 16.112 14.5845 16.0267 14.1471 15.856C13.7205 15.6853 13.3525 15.44 13.0431 15.12C12.7338 14.8 12.4938 14.4107 12.3231 13.952C12.1631 13.4827 12.0831 12.9493 12.0831 12.352V11.648C12.0831 11.0613 12.1685 10.5387 12.3391 10.08C12.5098 9.61067 12.7445 9.216 13.0431 8.896C13.3525 8.56533 13.7205 8.31467 14.1471 8.144C14.5845 7.97333 15.0698 7.888 15.6031 7.888C16.1365 7.888 16.6165 7.97333 17.0431 8.144C17.4805 8.31467 17.8538 8.56 18.1631 8.88C18.4725 9.2 18.7071 9.59467 18.8671 10.064C19.0378 10.5333 19.1231 11.0613 19.1231 11.648V12.352C19.1231 12.9387 19.0378 13.4667 18.8671 13.936C18.6965 14.3947 18.4565 14.7893 18.1471 15.12C17.8485 15.44 17.4805 15.6853 17.0431 15.856C16.6058 16.0267 16.1258 16.112 15.6031 16.112ZM15.6031 15.12C16.3285 15.12 16.9151 14.8853 17.3631 14.416C17.8111 13.936 18.0351 13.248 18.0351 12.352V11.648C18.0351 10.7627 17.8058 10.08 17.3471 9.6C16.8991 9.12 16.3178 8.88 15.6031 8.88C14.8778 8.88 14.2911 9.12 13.8431 9.6C13.3951 10.0693 13.1711 10.752 13.1711 11.648V12.352C13.1711 13.2373 13.3951 13.92 13.8431 14.4C14.3018 14.88 14.8885 15.12 15.6031 15.12ZM23.84 12.32H22.416V16H21.36V8H22.416V11.36H23.84L26.128 8H27.44L24.8 11.856L27.76 16H26.448L23.84 12.32ZM32.0245 16L28.7125 8H29.8965L32.6005 14.688L35.1125 8H36.2325L31.9125 19.2H30.7925L32.0245 16ZM43.169 8.96H39.041V16H37.985V8H44.225V16H43.169V8.96ZM49.4181 12.32H47.9941V16H46.9381V8H47.9941V11.36H49.4181L51.7061 8H53.0181L50.3781 11.856L53.3381 16H52.0261L49.4181 12.32ZM56.8581 16.112C56.0581 16.112 55.4448 15.9093 55.0181 15.504C54.5915 15.088 54.3781 14.5173 54.3781 13.792C54.3781 13.408 54.4368 13.0613 54.5541 12.752C54.6821 12.432 54.8795 12.1653 55.1461 11.952C55.4235 11.7387 55.7755 11.5733 56.2021 11.456C56.6288 11.3387 57.1408 11.28 57.7381 11.28H59.5621V10.56C59.5621 9.984 59.4181 9.56267 59.1301 9.296C58.8528 9.01867 58.3888 8.88 57.7381 8.88C57.1515 8.88 56.7088 8.99733 56.4101 9.232C56.1221 9.456 55.9568 9.76533 55.9141 10.16H54.7781C54.7995 9.82933 54.8741 9.52533 55.0021 9.248C55.1301 8.97067 55.3168 8.73067 55.5621 8.528C55.8075 8.32533 56.1115 8.17067 56.4741 8.064C56.8368 7.94667 57.2581 7.888 57.7381 7.888C58.6875 7.888 59.4021 8.12267 59.8821 8.592C60.3728 9.06133 60.6181 9.71733 60.6181 10.56V16H59.8021L59.6421 14.496C59.3648 15.008 58.9808 15.408 58.4901 15.696C58.0101 15.9733 57.4661 16.112 56.8581 16.112ZM56.9381 15.12C57.3008 15.12 57.6421 15.056 57.9621 14.928C58.2821 14.7893 58.5595 14.608 58.7941 14.384C59.0395 14.1493 59.2261 13.8827 59.3541 13.584C59.4928 13.2747 59.5621 12.9493 59.5621 12.608V12.24H57.7381C56.9168 12.24 56.3301 12.384 55.9781 12.672C55.6368 12.96 55.4661 13.3333 55.4661 13.792C55.4661 14.1973 55.5888 14.5227 55.8341 14.768C56.0901 15.0027 56.4581 15.12 56.9381 15.12ZM72.4346 8.96H68.3066V16H67.2506V8H73.4906V16H72.4346V8.96ZM79.7878 16.112C79.2331 16.112 78.7424 16.0107 78.3158 15.808C77.8891 15.5947 77.5371 15.2693 77.2598 14.832V19.2H76.2038V8H77.0198L77.1478 9.344C77.4251 8.85333 77.7824 8.49067 78.2198 8.256C78.6678 8.01067 79.1904 7.888 79.7878 7.888C80.2464 7.888 80.6678 7.968 81.0518 8.128C81.4358 8.288 81.7664 8.528 82.0438 8.848C82.3211 9.15733 82.5344 9.54667 82.6838 10.016C82.8438 10.4853 82.9237 11.0293 82.9237 11.648V12.352C82.9237 12.96 82.8438 13.4987 82.6838 13.968C82.5344 14.4373 82.3211 14.832 82.0438 15.152C81.7664 15.472 81.4358 15.712 81.0518 15.872C80.6678 16.032 80.2464 16.112 79.7878 16.112ZM79.5477 15.12C80.2411 15.12 80.7958 14.896 81.2118 14.448C81.6278 13.9893 81.8358 13.2907 81.8358 12.352V11.648C81.8358 10.72 81.6224 10.0267 81.1958 9.568C80.7798 9.10933 80.2304 8.88 79.5477 8.88C78.9078 8.88 78.3691 9.104 77.9318 9.552C77.5051 10 77.2811 10.656 77.2598 11.52V12.352C77.2598 13.248 77.4731 13.936 77.8998 14.416C78.3264 14.8853 78.8758 15.12 79.5477 15.12ZM88.1969 16.112C87.6635 16.112 87.1782 16.0267 86.7409 15.856C86.3142 15.6853 85.9462 15.44 85.6369 15.12C85.3275 14.8 85.0875 14.4107 84.9169 13.952C84.7569 13.4827 84.6769 12.9493 84.6769 12.352V11.648C84.6769 11.0613 84.7622 10.5387 84.9329 10.08C85.1035 9.61067 85.3382 9.216 85.6369 8.896C85.9462 8.56533 86.3142 8.31467 86.7409 8.144C87.1782 7.97333 87.6635 7.888 88.1969 7.888C88.7302 7.888 89.2102 7.97333 89.6369 8.144C90.0742 8.31467 90.4475 8.56 90.7569 8.88C91.0662 9.2 91.3009 9.59467 91.4609 10.064C91.6315 10.5333 91.7169 11.0613 91.7169 11.648V12.352C91.7169 12.9387 91.6315 13.4667 91.4609 13.936C91.2902 14.3947 91.0502 14.7893 90.7409 15.12C90.4422 15.44 90.0742 15.6853 89.6369 15.856C89.1995 16.0267 88.7195 16.112 88.1969 16.112ZM88.1969 15.12C88.9222 15.12 89.5089 14.8853 89.9569 14.416C90.4049 13.936 90.6289 13.248 90.6289 12.352V11.648C90.6289 10.7627 90.3995 10.08 89.9409 9.6C89.4929 9.12 88.9115 8.88 88.1969 8.88C87.4715 8.88 86.8849 9.12 86.4369 9.6C85.9889 10.0693 85.7649 10.752 85.7649 11.648V12.352C85.7649 13.2373 85.9889 13.92 86.4369 14.4C86.8955 14.88 87.4822 15.12 88.1969 15.12ZM99.8615 16H93.7335V18.08H92.6775V15.04H93.5255C93.7175 14.752 93.8722 14.4747 93.9895 14.208C94.1068 13.9413 94.1975 13.6373 94.2615 13.296C94.3255 12.944 94.3682 12.5387 94.3895 12.08C94.4215 11.6213 94.4375 11.0613 94.4375 10.4V8H99.7975V15.04H100.918V18.08H99.8615V16ZM95.4935 10.4C95.4935 11.0613 95.4775 11.632 95.4455 12.112C95.4242 12.5813 95.3815 12.992 95.3175 13.344C95.2642 13.696 95.1895 14.0053 95.0935 14.272C94.9975 14.528 94.8855 14.784 94.7575 15.04H98.7415V8.96H95.4935V10.4ZM104.79 16L101.478 8H102.662L105.366 14.688L107.878 8H108.998L104.678 19.2H103.558L104.79 16ZM113.231 12.32H111.807V16H110.751V8H111.807V11.36H113.231L115.519 8H116.831L114.191 11.856L117.151 16H115.839L113.231 12.32ZM117.947 8H124.347V8.96H121.675V16H120.619V8.96H117.947V8ZM128.838 16.112C128.304 16.112 127.819 16.0267 127.382 15.856C126.955 15.6853 126.587 15.44 126.278 15.12C125.968 14.8 125.728 14.4107 125.558 13.952C125.398 13.4827 125.318 12.9493 125.318 12.352V11.648C125.318 11.0613 125.403 10.5387 125.574 10.08C125.744 9.61067 125.979 9.216 126.278 8.896C126.587 8.56533 126.955 8.31467 127.382 8.144C127.819 7.97333 128.304 7.888 128.838 7.888C129.371 7.888 129.851 7.97333 130.278 8.144C130.715 8.31467 131.088 8.56 131.398 8.88C131.707 9.2 131.942 9.59467 132.102 10.064C132.272 10.5333 132.358 11.0613 132.358 11.648V12.352C132.358 12.9387 132.272 13.4667 132.102 13.936C131.931 14.3947 131.691 14.7893 131.382 15.12C131.083 15.44 130.715 15.6853 130.278 15.856C129.84 16.0267 129.36 16.112 128.838 16.112ZM128.838 15.12C129.563 15.12 130.15 14.8853 130.598 14.416C131.046 13.936 131.27 13.248 131.27 12.352V11.648C131.27 10.7627 131.04 10.08 130.582 9.6C130.134 9.12 129.552 8.88 128.838 8.88C128.112 8.88 127.526 9.12 127.078 9.6C126.63 10.0693 126.406 10.752 126.406 11.648V12.352C126.406 13.2373 126.63 13.92 127.078 14.4C127.536 14.88 128.123 15.12 128.838 15.12ZM134.594 8H137.554C138.525 8 139.234 8.19733 139.682 8.592C140.13 8.98667 140.354 9.52 140.354 10.192C140.354 10.5333 140.269 10.848 140.098 11.136C139.928 11.424 139.672 11.664 139.33 11.856C139.778 12.0373 140.114 12.2933 140.338 12.624C140.562 12.944 140.674 13.3067 140.674 13.712C140.674 14.4267 140.45 14.9867 140.002 15.392C139.554 15.7973 138.845 16 137.874 16H134.594V8ZM135.65 12.4V15.04H137.874C138.504 15.04 138.946 14.928 139.202 14.704C139.458 14.48 139.586 14.1493 139.586 13.712C139.586 13.2853 139.458 12.96 139.202 12.736C138.946 12.512 138.504 12.4 137.874 12.4H135.65ZM135.65 8.96V11.44H137.554C138.184 11.44 138.626 11.3333 138.882 11.12C139.138 10.896 139.266 10.5867 139.266 10.192C139.266 9.808 139.138 9.50933 138.882 9.296C138.626 9.072 138.184 8.96 137.554 8.96H135.65Z" fill="#23201F"/>
</svg>
