<svg width="14" height="14" viewBox="0 0 14 14" fill="none" xmlns="http://www.w3.org/2000/svg">
<path d="M8.86653 6.99249C8.86653 8.02343 8.0308 8.85916 6.99987 8.85916C5.96893 8.85916 5.1332 8.02343 5.1332 6.99249C5.1332 5.96156 5.96893 5.12583 6.99987 5.12583C8.0308 5.12583 8.86653 5.96156 8.86653 6.99249Z" fill="#23201F"/>
<path fill-rule="evenodd" clip-rule="evenodd" d="M0 3.26667C0 1.46254 1.46254 0 3.26667 0H10.7333C12.5375 0 14 1.46254 14 3.26667V10.7333C14 12.5375 12.5375 14 10.7333 14H3.26667C1.46254 14 0 12.5375 0 10.7333V3.26667ZM11.5416 3.26669C11.5416 3.78216 11.1237 4.20003 10.6082 4.20003C10.0928 4.20003 9.67488 3.78216 9.67488 3.26669C9.67488 2.75123 10.0928 2.33336 10.6082 2.33336C11.1237 2.33336 11.5416 2.75123 11.5416 3.26669ZM10.4999 6.99249C10.4999 8.92549 8.93286 10.4925 6.99987 10.4925C5.06687 10.4925 3.49987 8.92549 3.49987 6.99249C3.49987 5.0595 5.06687 3.49249 6.99987 3.49249C8.93286 3.49249 10.4999 5.0595 10.4999 6.99249Z" fill="#23201F"/>
</svg>
