<svg width="85" height="21" viewBox="0 0 85 21" fill="none" xmlns="http://www.w3.org/2000/svg">
<path d="M5.03176 21C3.38616 21 2.13613 20.496 1.28168 19.488C0.427225 18.464 0 17.032 0 15.192V5.376C0 3.6 0.427225 2.264 1.28168 1.368C2.13613 0.456 3.38616 0 5.03176 0C6.67737 0 7.9274 0.456 8.78185 1.368C9.6363 2.264 10.0635 3.6 10.0635 5.376V15.192C10.0635 17.048 9.6363 18.48 8.78185 19.488C7.9274 20.496 6.67737 21 5.03176 21ZM5.03176 17.208C5.3957 17.208 5.64095 17.048 5.76754 16.728C5.89412 16.408 5.95742 15.96 5.95742 15.384V5.304C5.95742 4.856 5.89412 4.496 5.76754 4.224C5.65678 3.936 5.41943 3.792 5.0555 3.792C4.3751 3.792 4.0349 4.312 4.0349 5.352V15.408C4.0349 16 4.10611 16.448 4.24852 16.752C4.39092 17.056 4.65201 17.208 5.03176 17.208Z" fill="#23201F"/>
<path d="M11.6378 3.24H15.7914V5.472C15.9654 4.752 16.2661 4.168 16.6933 3.72C17.1205 3.272 17.6902 3.048 18.4022 3.048C19.5731 3.048 20.4355 3.416 20.9893 4.152C21.5589 4.872 21.8437 5.904 21.8437 7.248V20.808H17.7614V7.68C17.7614 7.296 17.6823 6.968 17.524 6.696C17.3816 6.424 17.1522 6.288 16.8357 6.288C16.4085 6.288 16.1237 6.488 15.9813 6.888C15.8547 7.272 15.7914 7.792 15.7914 8.448V20.808H11.6378V3.24Z" fill="#23201F"/>
<path d="M28.3476 21C26.5596 21 25.2779 20.504 24.5026 19.512C23.7273 18.52 23.3396 17.04 23.3396 15.072V8.016C23.3396 6.4 23.7985 5.168 24.7162 4.32C25.6339 3.472 26.9156 3.048 28.5612 3.048C31.8999 3.048 33.5693 4.704 33.5693 8.016V9.288C33.5693 10.568 33.5534 11.608 33.5218 12.408H27.4932V15.816C27.4932 16.424 27.5565 16.904 27.683 17.256C27.8096 17.592 28.0786 17.76 28.49 17.76C28.8065 17.76 29.028 17.664 29.1546 17.472C29.297 17.28 29.3761 17.064 29.3919 16.824C29.4236 16.568 29.4394 16.2 29.4394 15.72V14.016H33.5693V15.024C33.5693 17.072 33.1737 18.584 32.3825 19.56C31.6072 20.52 30.2622 21 28.3476 21ZM29.4394 10.32V8.064C29.4394 6.8 29.1309 6.168 28.5138 6.168C27.8175 6.168 27.4694 6.8 27.4694 8.064V10.32H29.4394Z" fill="#23201F"/>
<path d="M35.1424 20.808V0.192H39.3435L41.2185 10.056V0.192H45.1585V20.808H41.171L39.1299 10.488V20.808H35.1424Z" fill="#23201F"/>
<path d="M51.7578 21C49.9698 21 48.6882 20.504 47.9128 19.512C47.1375 18.52 46.7498 17.04 46.7498 15.072V8.016C46.7498 6.4 47.2087 5.168 48.1264 4.32C49.0442 3.472 50.3258 3.048 51.9715 3.048C55.3101 3.048 56.9795 4.704 56.9795 8.016V9.288C56.9795 10.568 56.9637 11.608 56.932 12.408H50.9034V15.816C50.9034 16.424 50.9667 16.904 51.0933 17.256C51.2199 17.592 51.4888 17.76 51.9003 17.76C52.2167 17.76 52.4382 17.664 52.5648 17.472C52.7072 17.28 52.7863 17.064 52.8022 16.824C52.8338 16.568 52.8496 16.2 52.8496 15.72V14.016H56.9795V15.024C56.9795 17.072 56.5839 18.584 55.7927 19.56C55.0174 20.52 53.6724 21 51.7578 21ZM52.8496 10.32V8.064C52.8496 6.8 52.5411 6.168 51.924 6.168C51.2278 6.168 50.8797 6.8 50.8797 8.064V10.32H52.8496Z" fill="#23201F"/>
<path d="M60.309 20.808L58.1966 3.24H61.7568L62.9198 12.672L63.9167 3.24H67.5481L68.7348 12.672L69.708 3.24H73.6242L71.3931 20.808H67.2396L66.0054 10.824L64.9136 20.808H60.309Z" fill="#23201F"/>
<path d="M79.7784 21C76.3447 21 74.6279 19.24 74.6279 15.72L74.6517 14.328H78.8052L78.829 16.392C78.829 16.808 78.9081 17.128 79.0663 17.352C79.2245 17.56 79.4856 17.664 79.8496 17.664C80.4034 17.664 80.6803 17.208 80.6803 16.296C80.6803 15.624 80.5458 15.096 80.2768 14.712C80.0236 14.328 79.6122 13.92 79.0426 13.488L76.8353 11.76C76.0757 11.168 75.5298 10.56 75.1976 9.936C74.8653 9.296 74.6991 8.4 74.6991 7.248C74.6991 6.352 74.9286 5.592 75.3874 4.968C75.8621 4.328 76.4871 3.848 77.2625 3.528C78.0378 3.208 78.9002 3.048 79.8496 3.048C83.2199 3.048 84.9051 4.744 84.9051 8.136V8.472H80.6091V7.8C80.6091 7.384 80.5379 7.032 80.3955 6.744C80.2689 6.44 80.0474 6.288 79.7309 6.288C79.4461 6.288 79.2245 6.376 79.0663 6.552C78.9239 6.712 78.8527 6.936 78.8527 7.224C78.8527 7.864 79.098 8.36 79.5885 8.712L82.1518 10.608C83.0696 11.296 83.7737 12.048 84.2642 12.864C84.7547 13.664 85 14.68 85 15.912C85 17.544 84.5411 18.8 83.6234 19.68C82.7056 20.56 81.424 21 79.7784 21Z" fill="#23201F"/>
</svg>
