<svg width="700" height="408" viewBox="0 0 700 408" fill="none" xmlns="http://www.w3.org/2000/svg">
<path d="M556 66.9993H370.03L358 141.999" stroke="#FABA3D"/>
<path d="M556.645 67.0003H556C556 69.762 558.238 71.9996 560.999 72.001C563.761 71.9996 566 69.762 566 67.0003C566 64.2386 563.761 61.9996 560.999 61.9996C558.238 61.9996 556 64.2386 556 67.0003H556.645H557.29C557.293 64.9518 558.951 63.294 560.999 63.2913C563.049 63.294 564.706 64.9518 564.71 67.0003C564.706 69.0488 563.049 70.7066 560.999 70.7107C558.951 70.7066 557.293 69.0488 557.29 67.0003H556.645Z" fill="#FABA3D"/>
<path d="M375.68 48.112C375.008 48.112 374.389 47.9947 373.824 47.76C373.259 47.5253 372.768 47.184 372.352 46.736C371.936 46.288 371.611 45.744 371.376 45.104C371.152 44.464 371.04 43.7333 371.04 42.912V41.888C371.04 41.0773 371.157 40.352 371.392 39.712C371.627 39.072 371.947 38.528 372.352 38.08C372.768 37.632 373.259 37.2907 373.824 37.056C374.389 36.8107 375.008 36.688 375.68 36.688C376.352 36.688 376.971 36.8053 377.536 37.04C378.101 37.2747 378.592 37.616 379.008 38.064C379.424 38.512 379.744 39.0613 379.968 39.712C380.203 40.352 380.32 41.0773 380.32 41.888V42.912C380.32 43.7227 380.203 44.448 379.968 45.088C379.733 45.728 379.408 46.272 378.992 46.72C378.587 47.168 378.101 47.5147 377.536 47.76C376.971 47.9947 376.352 48.112 375.68 48.112ZM375.68 47.056C376.181 47.056 376.645 46.9653 377.072 46.784C377.499 46.6027 377.867 46.336 378.176 45.984C378.485 45.632 378.725 45.2 378.896 44.688C379.077 44.1653 379.168 43.5733 379.168 42.912V41.888C379.168 41.2373 379.077 40.656 378.896 40.144C378.715 39.6213 378.469 39.184 378.16 38.832C377.851 38.48 377.483 38.2133 377.056 38.032C376.629 37.84 376.171 37.744 375.68 37.744C375.179 37.744 374.715 37.8347 374.288 38.016C373.861 38.1973 373.493 38.464 373.184 38.816C372.875 39.168 372.629 39.6053 372.448 40.128C372.277 40.64 372.192 41.2267 372.192 41.888V42.912C372.192 43.5733 372.283 44.16 372.464 44.672C372.645 45.184 372.891 45.616 373.2 45.968C373.509 46.32 373.877 46.592 374.304 46.784C374.731 46.9653 375.189 47.056 375.68 47.056ZM381.759 40H388.159V40.96H385.487V48H384.431V40.96H381.759V40ZM395.107 40.96H390.979V48H389.923V40H396.163V48H395.107V40.96ZM401.228 48L397.916 40H399.1L401.804 46.688L404.316 40H405.436L401.116 51.2H399.996L401.228 48ZM409.836 48.112C409.324 48.112 408.854 48.0267 408.428 47.856C408.012 47.6853 407.649 47.44 407.34 47.12C407.041 46.8 406.806 46.4107 406.636 45.952C406.476 45.4827 406.396 44.9493 406.396 44.352V43.648C406.396 43.0613 406.476 42.5387 406.636 42.08C406.806 41.6107 407.041 41.216 407.34 40.896C407.649 40.5653 408.012 40.3147 408.428 40.144C408.854 39.9733 409.324 39.888 409.836 39.888C410.284 39.888 410.678 39.9467 411.02 40.064C411.372 40.1813 411.676 40.3467 411.932 40.56C412.198 40.7627 412.412 41.0027 412.572 41.28C412.742 41.5573 412.87 41.8507 412.956 42.16H411.836C411.676 41.7973 411.441 41.4933 411.132 41.248C410.833 41.0027 410.401 40.88 409.836 40.88C409.153 40.88 408.588 41.12 408.14 41.6C407.702 42.0693 407.484 42.752 407.484 43.648V44.352C407.484 44.7893 407.542 45.184 407.66 45.536C407.777 45.8773 407.942 46.1653 408.156 46.4C408.369 46.6347 408.614 46.816 408.892 46.944C409.18 47.0613 409.494 47.12 409.836 47.12C410.412 47.12 410.849 46.992 411.148 46.736C411.446 46.48 411.676 46.128 411.836 45.68H412.956C412.796 46.384 412.46 46.9653 411.948 47.424C411.436 47.8827 410.732 48.112 409.836 48.112ZM417.434 44.32H416.01V48H414.954V40H416.01V43.36H417.434L419.722 40H421.034L418.394 43.856L421.354 48H420.042L417.434 44.32ZM427.398 36.8H428.55L423.302 51.2H422.15L427.398 36.8ZM433.273 48.112C432.761 48.112 432.292 48.0267 431.865 47.856C431.449 47.6853 431.086 47.44 430.777 47.12C430.478 46.8 430.244 46.4107 430.073 45.952C429.913 45.4827 429.833 44.9493 429.833 44.352V43.648C429.833 43.0613 429.913 42.5387 430.073 42.08C430.244 41.6107 430.478 41.216 430.777 40.896C431.086 40.5653 431.449 40.3147 431.865 40.144C432.292 39.9733 432.761 39.888 433.273 39.888C433.721 39.888 434.116 39.9467 434.457 40.064C434.809 40.1813 435.113 40.3467 435.369 40.56C435.636 40.7627 435.849 41.0027 436.009 41.28C436.18 41.5573 436.308 41.8507 436.393 42.16H435.273C435.113 41.7973 434.878 41.4933 434.569 41.248C434.27 41.0027 433.838 40.88 433.273 40.88C432.59 40.88 432.025 41.12 431.577 41.6C431.14 42.0693 430.921 42.752 430.921 43.648V44.352C430.921 44.7893 430.98 45.184 431.097 45.536C431.214 45.8773 431.38 46.1653 431.593 46.4C431.806 46.6347 432.052 46.816 432.329 46.944C432.617 47.0613 432.932 47.12 433.273 47.12C433.849 47.12 434.286 46.992 434.585 46.736C434.884 46.48 435.113 46.128 435.273 45.68H436.393C436.233 46.384 435.897 46.9653 435.385 47.424C434.873 47.8827 434.169 48.112 433.273 48.112ZM438.391 40H441.351C442.322 40 443.031 40.1973 443.479 40.592C443.927 40.9867 444.151 41.52 444.151 42.192C444.151 42.5333 444.066 42.848 443.895 43.136C443.725 43.424 443.469 43.664 443.127 43.856C443.575 44.0373 443.911 44.2933 444.135 44.624C444.359 44.944 444.471 45.3067 444.471 45.712C444.471 46.4267 444.247 46.9867 443.799 47.392C443.351 47.7973 442.642 48 441.671 48H438.391V40ZM439.447 44.4V47.04H441.671C442.301 47.04 442.743 46.928 442.999 46.704C443.255 46.48 443.383 46.1493 443.383 45.712C443.383 45.2853 443.255 44.96 442.999 44.736C442.743 44.512 442.301 44.4 441.671 44.4H439.447ZM439.447 40.96V43.44H441.351C441.981 43.44 442.423 43.3333 442.679 43.12C442.935 42.896 443.063 42.5867 443.063 42.192C443.063 41.808 442.935 41.5093 442.679 41.296C442.423 41.072 441.981 40.96 441.351 40.96H439.447ZM448.624 48.112C447.824 48.112 447.21 47.9093 446.784 47.504C446.357 47.088 446.144 46.5173 446.144 45.792C446.144 45.408 446.202 45.0613 446.32 44.752C446.448 44.432 446.645 44.1653 446.912 43.952C447.189 43.7387 447.541 43.5733 447.968 43.456C448.394 43.3387 448.906 43.28 449.504 43.28H451.328V42.56C451.328 41.984 451.184 41.5627 450.896 41.296C450.618 41.0187 450.154 40.88 449.504 40.88C448.917 40.88 448.474 40.9973 448.176 41.232C447.888 41.456 447.722 41.7653 447.68 42.16H446.544C446.565 41.8293 446.64 41.5253 446.768 41.248C446.896 40.9707 447.082 40.7307 447.328 40.528C447.573 40.3253 447.877 40.1707 448.24 40.064C448.602 39.9467 449.024 39.888 449.504 39.888C450.453 39.888 451.168 40.1227 451.648 40.592C452.138 41.0613 452.384 41.7173 452.384 42.56V48H451.568L451.408 46.496C451.13 47.008 450.746 47.408 450.256 47.696C449.776 47.9733 449.232 48.112 448.624 48.112ZM448.704 47.12C449.066 47.12 449.408 47.056 449.728 46.928C450.048 46.7893 450.325 46.608 450.56 46.384C450.805 46.1493 450.992 45.8827 451.12 45.584C451.258 45.2747 451.328 44.9493 451.328 44.608V44.24H449.504C448.682 44.24 448.096 44.384 447.744 44.672C447.402 44.96 447.232 45.3333 447.232 45.792C447.232 46.1973 447.354 46.5227 447.6 46.768C447.856 47.0027 448.224 47.12 448.704 47.12ZM461.08 48H454.952V50.08H453.896V47.04H454.744C454.936 46.752 455.091 46.4747 455.208 46.208C455.326 45.9413 455.416 45.6373 455.48 45.296C455.544 44.944 455.587 44.5387 455.608 44.08C455.64 43.6213 455.656 43.0613 455.656 42.4V40H461.016V47.04H462.136V50.08H461.08V48ZM456.712 42.4C456.712 43.0613 456.696 43.632 456.664 44.112C456.643 44.5813 456.6 44.992 456.536 45.344C456.483 45.696 456.408 46.0053 456.312 46.272C456.216 46.528 456.104 46.784 455.976 47.04H459.96V40.96H456.712V42.4ZM463.813 40H464.869V42.88H466.645C467.786 42.88 468.613 43.1093 469.125 43.568C469.637 44.016 469.893 44.64 469.893 45.44C469.893 46.2187 469.632 46.8427 469.109 47.312C468.586 47.7707 467.765 48 466.645 48H463.813V40ZM464.869 43.84V47.04H466.645C467.434 47.04 467.989 46.9013 468.309 46.624C468.64 46.336 468.805 45.9413 468.805 45.44C468.805 44.928 468.64 44.5333 468.309 44.256C467.989 43.9787 467.434 43.84 466.645 43.84H464.869ZM474.869 48.112C474.325 48.112 473.834 48.0267 473.397 47.856C472.96 47.6853 472.586 47.4187 472.277 47.056C471.978 46.6933 471.744 46.2347 471.573 45.68C471.413 45.1253 471.333 44.4693 471.333 43.712V42.688C471.333 42.144 471.36 41.616 471.413 41.104C471.466 40.592 471.557 40.1173 471.685 39.68C471.824 39.2427 472.01 38.8533 472.245 38.512C472.48 38.1707 472.784 37.888 473.157 37.664C473.488 37.472 473.813 37.344 474.133 37.28C474.464 37.2053 474.81 37.152 475.173 37.12C475.536 37.088 475.925 37.0507 476.341 37.008C476.757 36.9547 477.221 36.848 477.733 36.688V37.664C477.328 37.8133 476.933 37.9093 476.549 37.952C476.176 37.9947 475.813 38.032 475.461 38.064C475.12 38.096 474.794 38.1387 474.485 38.192C474.176 38.2453 473.893 38.352 473.637 38.512C473.232 38.7787 472.928 39.1467 472.725 39.616C472.533 40.0747 472.405 40.688 472.341 41.456C472.618 40.9867 472.986 40.6347 473.445 40.4C473.914 40.1653 474.453 40.048 475.061 40.048C475.541 40.048 475.984 40.1333 476.389 40.304C476.794 40.4747 477.141 40.72 477.429 41.04C477.728 41.3493 477.957 41.7333 478.117 42.192C478.288 42.64 478.373 43.152 478.373 43.728V44.432C478.373 44.9973 478.288 45.5093 478.117 45.968C477.946 46.416 477.706 46.8 477.397 47.12C477.088 47.44 476.72 47.6853 476.293 47.856C475.866 48.0267 475.392 48.112 474.869 48.112ZM474.869 41.04C474.133 41.04 473.546 41.2587 473.109 41.696C472.672 42.1333 472.442 42.768 472.421 43.6V44.432C472.421 45.2853 472.645 45.9467 473.093 46.416C473.541 46.8853 474.133 47.12 474.869 47.12C475.605 47.12 476.192 46.8907 476.629 46.432C477.066 45.9627 477.285 45.296 477.285 44.432V43.728C477.285 42.864 477.061 42.2027 476.613 41.744C476.176 41.2747 475.594 41.04 474.869 41.04ZM482.53 48.112C481.73 48.112 481.117 47.9093 480.69 47.504C480.263 47.088 480.05 46.5173 480.05 45.792C480.05 45.408 480.109 45.0613 480.226 44.752C480.354 44.432 480.551 44.1653 480.818 43.952C481.095 43.7387 481.447 43.5733 481.874 43.456C482.301 43.3387 482.813 43.28 483.41 43.28H485.234V42.56C485.234 41.984 485.09 41.5627 484.802 41.296C484.525 41.0187 484.061 40.88 483.41 40.88C482.823 40.88 482.381 40.9973 482.082 41.232C481.794 41.456 481.629 41.7653 481.586 42.16H480.45C480.471 41.8293 480.546 41.5253 480.674 41.248C480.802 40.9707 480.989 40.7307 481.234 40.528C481.479 40.3253 481.783 40.1707 482.146 40.064C482.509 39.9467 482.93 39.888 483.41 39.888C484.359 39.888 485.074 40.1227 485.554 40.592C486.045 41.0613 486.29 41.7173 486.29 42.56V48H485.474L485.314 46.496C485.037 47.008 484.653 47.408 484.162 47.696C483.682 47.9733 483.138 48.112 482.53 48.112ZM482.61 47.12C482.973 47.12 483.314 47.056 483.634 46.928C483.954 46.7893 484.231 46.608 484.466 46.384C484.711 46.1493 484.898 45.8827 485.026 45.584C485.165 45.2747 485.234 44.9493 485.234 44.608V44.24H483.41C482.589 44.24 482.002 44.384 481.65 44.672C481.309 44.96 481.138 45.3333 481.138 45.792C481.138 46.1973 481.261 46.5227 481.506 46.768C481.762 47.0027 482.13 47.12 482.61 47.12ZM493.211 36.8H494.363L489.115 51.2H487.963L493.211 36.8ZM495.086 47.12H495.326C495.518 47.12 495.694 47.0773 495.854 46.992C496.024 46.896 496.168 46.7253 496.286 46.48C496.414 46.2347 496.51 45.904 496.574 45.488C496.648 45.0613 496.686 44.512 496.686 43.84V40H502.126V48H501.07V40.96H497.742V43.84C497.742 44.672 497.683 45.3653 497.566 45.92C497.459 46.464 497.299 46.9013 497.086 47.232C496.872 47.552 496.616 47.7813 496.318 47.92C496.019 48.048 495.688 48.112 495.326 48.112H495.086V47.12ZM507.804 48.112C506.748 48.112 505.911 47.792 505.292 47.152C504.674 46.5013 504.364 45.568 504.364 44.352V43.648C504.364 42.4427 504.674 41.5147 505.292 40.864C505.922 40.2133 506.759 39.888 507.804 39.888C508.85 39.888 509.682 40.2133 510.3 40.864C510.93 41.5147 511.244 42.4427 511.244 43.648V44.304H505.452V44.352C505.452 45.28 505.666 45.9733 506.092 46.432C506.519 46.8907 507.09 47.12 507.804 47.12C508.466 47.12 508.967 46.9813 509.308 46.704C509.66 46.4267 509.916 46.08 510.076 45.664H511.164C511.079 46.0053 510.951 46.3253 510.78 46.624C510.61 46.9227 510.386 47.184 510.108 47.408C509.831 47.6213 509.5 47.792 509.116 47.92C508.732 48.048 508.295 48.112 507.804 48.112ZM507.804 40.88C507.111 40.88 506.556 41.0987 506.14 41.536C505.735 41.9627 505.506 42.576 505.452 43.376H510.14C510.098 42.544 509.863 41.92 509.436 41.504C509.02 41.088 508.476 40.88 507.804 40.88ZM518.029 45.04C517.794 45.0933 517.506 45.1467 517.165 45.2C516.824 45.2533 516.45 45.28 516.045 45.28C514.978 45.28 514.205 45.0507 513.725 44.592C513.245 44.1227 513.005 43.392 513.005 42.4V40H514.061V42.4C514.061 43.104 514.205 43.6 514.493 43.888C514.792 44.176 515.309 44.32 516.045 44.32C516.45 44.32 516.824 44.2933 517.165 44.24C517.506 44.1867 517.794 44.1333 518.029 44.08V40H519.085V48H518.029V45.04ZM524.758 48.112C523.702 48.112 522.864 47.792 522.246 47.152C521.627 46.5013 521.318 45.568 521.318 44.352V43.648C521.318 42.4427 521.627 41.5147 522.246 40.864C522.875 40.2133 523.712 39.888 524.758 39.888C525.803 39.888 526.635 40.2133 527.254 40.864C527.883 41.5147 528.198 42.4427 528.198 43.648V44.304H522.406V44.352C522.406 45.28 522.619 45.9733 523.046 46.432C523.472 46.8907 524.043 47.12 524.758 47.12C525.419 47.12 525.92 46.9813 526.262 46.704C526.614 46.4267 526.87 46.08 527.03 45.664H528.118C528.032 46.0053 527.904 46.3253 527.734 46.624C527.563 46.9227 527.339 47.184 527.062 47.408C526.784 47.6213 526.454 47.792 526.07 47.92C525.686 48.048 525.248 48.112 524.758 48.112ZM524.758 40.88C524.064 40.88 523.51 41.0987 523.094 41.536C522.688 41.9627 522.459 42.576 522.406 43.376H527.094C527.051 42.544 526.816 41.92 526.39 41.504C525.974 41.088 525.43 40.88 524.758 40.88ZM535.942 44.4H531.494V48H530.438V40H531.494V43.44H535.942V40H536.998V48H535.942V44.4ZM545.223 41.216L544.231 42.88L541.031 48H539.719V40H540.775V46.8L541.767 45.12L544.967 40H546.279V48H545.223V41.216ZM551.961 48.112C550.905 48.112 550.067 47.792 549.449 47.152C548.83 46.5013 548.521 45.568 548.521 44.352V43.648C548.521 42.4427 548.83 41.5147 549.449 40.864C550.078 40.2133 550.915 39.888 551.961 39.888C553.006 39.888 553.838 40.2133 554.457 40.864C555.086 41.5147 555.401 42.4427 555.401 43.648V44.304H549.609V44.352C549.609 45.28 549.822 45.9733 550.249 46.432C550.675 46.8907 551.246 47.12 551.961 47.12C552.622 47.12 553.123 46.9813 553.465 46.704C553.817 46.4267 554.073 46.08 554.233 45.664H555.321C555.235 46.0053 555.107 46.3253 554.937 46.624C554.766 46.9227 554.542 47.184 554.265 47.408C553.987 47.6213 553.657 47.792 553.273 47.92C552.889 48.048 552.451 48.112 551.961 48.112ZM551.961 40.88C551.267 40.88 550.713 41.0987 550.297 41.536C549.891 41.9627 549.662 42.576 549.609 43.376H554.297C554.254 42.544 554.019 41.92 553.593 41.504C553.177 41.088 552.633 40.88 551.961 40.88Z" fill="#23201F"/>
<path d="M370.25 7.5H381.75V10.15L375.725 25H372.375L378.475 10.15H370.25V7.5ZM386.887 16.475C386.22 16.475 385.62 16.375 385.087 16.175C384.553 15.9583 384.095 15.6667 383.712 15.3C383.328 14.9333 383.028 14.5 382.812 14C382.612 13.4833 382.512 12.9167 382.512 12.3V11.45C382.512 10.8333 382.612 10.275 382.812 9.775C383.028 9.25833 383.328 8.81667 383.712 8.45C384.095 8.08333 384.553 7.8 385.087 7.6C385.62 7.38333 386.22 7.275 386.887 7.275C387.553 7.275 388.153 7.38333 388.687 7.6C389.22 7.8 389.678 8.08333 390.062 8.45C390.445 8.81667 390.737 9.25833 390.937 9.775C391.153 10.275 391.262 10.8333 391.262 11.45V12.3C391.262 12.9167 391.153 13.4833 390.937 14C390.737 14.5 390.445 14.9333 390.062 15.3C389.678 15.6667 389.22 15.9583 388.687 16.175C388.153 16.375 387.553 16.475 386.887 16.475ZM386.887 14.325C387.437 14.325 387.878 14.15 388.212 13.8C388.562 13.4333 388.737 12.9333 388.737 12.3V11.45C388.737 10.8167 388.562 10.325 388.212 9.975C387.878 9.60833 387.437 9.425 386.887 9.425C386.32 9.425 385.862 9.60833 385.512 9.975C385.178 10.325 385.012 10.8167 385.012 11.45V12.3C385.012 12.9333 385.178 13.4333 385.512 13.8C385.862 14.15 386.32 14.325 386.887 14.325ZM399.637 25.225C398.97 25.225 398.37 25.125 397.837 24.925C397.303 24.7083 396.845 24.4167 396.462 24.05C396.078 23.6833 395.778 23.25 395.562 22.75C395.362 22.2333 395.262 21.6667 395.262 21.05V20.2C395.262 19.5833 395.362 19.025 395.562 18.525C395.778 18.0083 396.078 17.5667 396.462 17.2C396.845 16.8333 397.303 16.55 397.837 16.35C398.37 16.1333 398.97 16.025 399.637 16.025C400.303 16.025 400.903 16.1333 401.437 16.35C401.97 16.55 402.428 16.8333 402.812 17.2C403.195 17.5667 403.487 18.0083 403.687 18.525C403.903 19.025 404.012 19.5833 404.012 20.2V21.05C404.012 21.6667 403.903 22.2333 403.687 22.75C403.487 23.25 403.195 23.6833 402.812 24.05C402.428 24.4167 401.97 24.7083 401.437 24.925C400.903 25.125 400.303 25.225 399.637 25.225ZM399.637 23.075C400.187 23.075 400.628 22.9 400.962 22.55C401.312 22.1833 401.487 21.6833 401.487 21.05V20.2C401.487 19.5667 401.312 19.075 400.962 18.725C400.628 18.3583 400.187 18.175 399.637 18.175C399.07 18.175 398.612 18.3583 398.262 18.725C397.928 19.075 397.762 19.5667 397.762 20.2V21.05C397.762 21.6833 397.928 22.1833 398.262 22.55C398.612 22.9 399.07 23.075 399.637 23.075ZM397.012 7.5H399.762L389.512 25H386.762L397.012 7.5Z" fill="#23201F"/>
<path d="M690 166.999H501.074L464 193.999" stroke="#3DCDFA"/>
<path d="M690.645 167.001H690C690 169.762 692.238 172.001 694.999 172.001C697.761 172.001 700 169.762 700 167.001C700 164.239 697.761 162.001 694.999 162C692.238 162.001 690 164.239 690 167.001H690.645H691.29C691.293 164.952 692.951 163.294 694.999 163.292C697.048 163.294 698.706 164.952 698.71 167.001C698.706 169.049 697.048 170.707 694.999 170.711C692.951 170.707 691.293 169.049 691.29 167.001H690.645Z" fill="#3DCDFA"/>
<path d="M501.94 136.8H505.38C506.703 136.8 507.657 137.067 508.244 137.6C508.841 138.123 509.14 138.848 509.14 139.776C509.14 140.309 509.012 140.784 508.756 141.2C508.511 141.605 508.127 141.931 507.604 142.176C508.244 142.411 508.713 142.757 509.012 143.216C509.311 143.675 509.46 144.224 509.46 144.864C509.46 145.877 509.161 146.656 508.564 147.2C507.977 147.733 507.023 148 505.7 148H501.94V136.8ZM503.06 142.752V146.976H505.7C506.639 146.976 507.305 146.8 507.7 146.448C508.105 146.085 508.308 145.557 508.308 144.864C508.308 144.171 508.105 143.648 507.7 143.296C507.305 142.933 506.639 142.752 505.7 142.752H503.06ZM503.06 137.824V141.728H505.38C506.319 141.728 506.985 141.557 507.38 141.216C507.785 140.864 507.988 140.384 507.988 139.776C507.988 139.168 507.785 138.693 507.38 138.352C506.985 138 506.319 137.824 505.38 137.824H503.06ZM511.782 140H512.838V142.88H514.614C515.745 142.88 516.566 143.109 517.078 143.568C517.601 144.027 517.862 144.651 517.862 145.44C517.862 146.208 517.601 146.827 517.078 147.296C516.555 147.765 515.734 148 514.614 148H511.782V140ZM512.838 143.84V147.04H514.614C515.403 147.04 515.958 146.901 516.278 146.624C516.609 146.336 516.774 145.941 516.774 145.44C516.774 144.939 516.609 144.549 516.278 144.272C515.947 143.984 515.393 143.84 514.614 143.84H512.838ZM519.366 140H520.422V148H519.366V140ZM528.325 140.96H524.197V148H523.141V140H529.381V148H528.325V140.96ZM531.054 147.12H531.294C531.486 147.12 531.662 147.077 531.822 146.992C531.993 146.896 532.137 146.725 532.254 146.48C532.382 146.235 532.478 145.904 532.542 145.488C532.617 145.061 532.654 144.512 532.654 143.84V140H538.094V148H537.038V140.96H533.71V143.84C533.71 144.672 533.652 145.365 533.534 145.92C533.428 146.464 533.268 146.901 533.054 147.232C532.841 147.552 532.585 147.781 532.286 147.92C531.988 148.048 531.657 148.112 531.294 148.112H531.054V147.12ZM542.733 148.112C541.933 148.112 541.32 147.909 540.893 147.504C540.466 147.088 540.253 146.517 540.253 145.792C540.253 145.408 540.312 145.061 540.429 144.752C540.557 144.432 540.754 144.165 541.021 143.952C541.298 143.739 541.65 143.573 542.077 143.456C542.504 143.339 543.016 143.28 543.613 143.28H545.437V142.56C545.437 141.984 545.293 141.563 545.005 141.296C544.728 141.019 544.264 140.88 543.613 140.88C543.026 140.88 542.584 140.997 542.285 141.232C541.997 141.456 541.832 141.765 541.789 142.16H540.653C540.674 141.829 540.749 141.525 540.877 141.248C541.005 140.971 541.192 140.731 541.437 140.528C541.682 140.325 541.986 140.171 542.349 140.064C542.712 139.947 543.133 139.888 543.613 139.888C544.562 139.888 545.277 140.123 545.757 140.592C546.248 141.061 546.493 141.717 546.493 142.56V148H545.677L545.517 146.496C545.24 147.008 544.856 147.408 544.365 147.696C543.885 147.973 543.341 148.112 542.733 148.112ZM542.813 147.12C543.176 147.12 543.517 147.056 543.837 146.928C544.157 146.789 544.434 146.608 544.669 146.384C544.914 146.149 545.101 145.883 545.229 145.584C545.368 145.275 545.437 144.949 545.437 144.608V144.24H543.613C542.792 144.24 542.205 144.384 541.853 144.672C541.512 144.96 541.341 145.333 541.341 145.792C541.341 146.197 541.464 146.523 541.709 146.768C541.965 147.003 542.333 147.12 542.813 147.12ZM548.009 140H554.409V140.96H551.737V148H550.681V140.96H548.009V140ZM557.936 148.112C557.136 148.112 556.523 147.909 556.096 147.504C555.67 147.088 555.456 146.517 555.456 145.792C555.456 145.408 555.515 145.061 555.632 144.752C555.76 144.432 555.958 144.165 556.224 143.952C556.502 143.739 556.854 143.573 557.28 143.456C557.707 143.339 558.219 143.28 558.816 143.28H560.64V142.56C560.64 141.984 560.496 141.563 560.208 141.296C559.931 141.019 559.467 140.88 558.816 140.88C558.23 140.88 557.787 140.997 557.488 141.232C557.2 141.456 557.035 141.765 556.992 142.16H555.856C555.878 141.829 555.952 141.525 556.08 141.248C556.208 140.971 556.395 140.731 556.64 140.528C556.886 140.325 557.19 140.171 557.552 140.064C557.915 139.947 558.336 139.888 558.816 139.888C559.766 139.888 560.48 140.123 560.96 140.592C561.451 141.061 561.696 141.717 561.696 142.56V148H560.88L560.72 146.496C560.443 147.008 560.059 147.408 559.568 147.696C559.088 147.973 558.544 148.112 557.936 148.112ZM558.016 147.12C558.379 147.12 558.72 147.056 559.04 146.928C559.36 146.789 559.638 146.608 559.872 146.384C560.118 146.149 560.304 145.883 560.432 145.584C560.571 145.275 560.64 144.949 560.64 144.608V144.24H558.816C557.995 144.24 557.408 144.384 557.056 144.672C556.715 144.96 556.544 145.333 556.544 145.792C556.544 146.197 556.667 146.523 556.912 146.768C557.168 147.003 557.536 147.12 558.016 147.12ZM574.393 148H568.265V150.08H567.209V147.04H568.057C568.249 146.752 568.403 146.475 568.521 146.208C568.638 145.941 568.729 145.637 568.793 145.296C568.857 144.944 568.899 144.539 568.921 144.08C568.953 143.621 568.969 143.061 568.969 142.4V140H574.329V147.04H575.449V150.08H574.393V148ZM570.025 142.4C570.025 143.061 570.009 143.632 569.977 144.112C569.955 144.581 569.913 144.992 569.849 145.344C569.795 145.696 569.721 146.005 569.625 146.272C569.529 146.528 569.417 146.784 569.289 147.04H573.273V140.96H570.025V142.4ZM580.71 148.112C580.155 148.112 579.664 148.011 579.238 147.808C578.811 147.595 578.459 147.269 578.182 146.832V151.2H577.126V140H577.942L578.07 141.344C578.347 140.853 578.704 140.491 579.142 140.256C579.59 140.011 580.112 139.888 580.71 139.888C581.168 139.888 581.59 139.968 581.974 140.128C582.358 140.288 582.688 140.528 582.966 140.848C583.243 141.157 583.456 141.547 583.606 142.016C583.766 142.485 583.846 143.029 583.846 143.648V144.352C583.846 144.96 583.766 145.499 583.606 145.968C583.456 146.437 583.243 146.832 582.966 147.152C582.688 147.472 582.358 147.712 581.974 147.872C581.59 148.032 581.168 148.112 580.71 148.112ZM580.47 147.12C581.163 147.12 581.718 146.896 582.134 146.448C582.55 145.989 582.758 145.291 582.758 144.352V143.648C582.758 142.72 582.544 142.027 582.118 141.568C581.702 141.109 581.152 140.88 580.47 140.88C579.83 140.88 579.291 141.104 578.854 141.552C578.427 142 578.203 142.656 578.182 143.52V144.352C578.182 145.248 578.395 145.936 578.822 146.416C579.248 146.885 579.798 147.12 580.47 147.12ZM588.118 148L584.806 140H585.99L588.694 146.688L591.206 140H592.326L588.006 151.2H586.886L588.118 148ZM594.079 140H599.199V140.96H595.135V148H594.079V140ZM603.681 148.112C603.148 148.112 602.663 148.027 602.225 147.856C601.799 147.685 601.431 147.44 601.121 147.12C600.812 146.8 600.572 146.411 600.401 145.952C600.241 145.483 600.161 144.949 600.161 144.352V143.648C600.161 143.061 600.247 142.539 600.417 142.08C600.588 141.611 600.823 141.216 601.121 140.896C601.431 140.565 601.799 140.315 602.225 140.144C602.663 139.973 603.148 139.888 603.681 139.888C604.215 139.888 604.695 139.973 605.121 140.144C605.559 140.315 605.932 140.56 606.241 140.88C606.551 141.2 606.785 141.595 606.945 142.064C607.116 142.533 607.201 143.061 607.201 143.648V144.352C607.201 144.939 607.116 145.467 606.945 145.936C606.775 146.395 606.535 146.789 606.225 147.12C605.927 147.44 605.559 147.685 605.121 147.856C604.684 148.027 604.204 148.112 603.681 148.112ZM603.681 147.12C604.407 147.12 604.993 146.885 605.441 146.416C605.889 145.936 606.113 145.248 606.113 144.352V143.648C606.113 142.763 605.884 142.08 605.425 141.6C604.977 141.12 604.396 140.88 603.681 140.88C602.956 140.88 602.369 141.12 601.921 141.6C601.473 142.069 601.249 142.752 601.249 143.648V144.352C601.249 145.237 601.473 145.92 601.921 146.4C602.38 146.88 602.967 147.12 603.681 147.12ZM609.438 140H614.558V140.96H610.494V148H609.438V140ZM619.041 148.112C618.507 148.112 618.022 148.027 617.585 147.856C617.158 147.685 616.79 147.44 616.481 147.12C616.171 146.8 615.931 146.411 615.761 145.952C615.601 145.483 615.521 144.949 615.521 144.352V143.648C615.521 143.061 615.606 142.539 615.777 142.08C615.947 141.611 616.182 141.216 616.481 140.896C616.79 140.565 617.158 140.315 617.585 140.144C618.022 139.973 618.507 139.888 619.041 139.888C619.574 139.888 620.054 139.973 620.481 140.144C620.918 140.315 621.291 140.56 621.601 140.88C621.91 141.2 622.145 141.595 622.305 142.064C622.475 142.533 622.561 143.061 622.561 143.648V144.352C622.561 144.939 622.475 145.467 622.305 145.936C622.134 146.395 621.894 146.789 621.585 147.12C621.286 147.44 620.918 147.685 620.481 147.856C620.043 148.027 619.563 148.112 619.041 148.112ZM619.041 147.12C619.766 147.12 620.353 146.885 620.801 146.416C621.249 145.936 621.473 145.248 621.473 144.352V143.648C621.473 142.763 621.243 142.08 620.785 141.6C620.337 141.12 619.755 140.88 619.041 140.88C618.315 140.88 617.729 141.12 617.281 141.6C616.833 142.069 616.609 142.752 616.609 143.648V144.352C616.609 145.237 616.833 145.92 617.281 146.4C617.739 146.88 618.326 147.12 619.041 147.12ZM631.278 144.32H629.854V148H628.798V140H629.854V143.36H631.278L633.566 140H634.878L632.238 143.856L635.198 148H633.886L631.278 144.32ZM640.538 148.112C639.983 148.112 639.492 148.011 639.066 147.808C638.639 147.595 638.287 147.269 638.01 146.832V151.2H636.954V140H637.77L637.898 141.344C638.175 140.853 638.532 140.491 638.97 140.256C639.418 140.011 639.94 139.888 640.538 139.888C640.996 139.888 641.418 139.968 641.802 140.128C642.186 140.288 642.516 140.528 642.794 140.848C643.071 141.157 643.284 141.547 643.434 142.016C643.594 142.485 643.674 143.029 643.674 143.648V144.352C643.674 144.96 643.594 145.499 643.434 145.968C643.284 146.437 643.071 146.832 642.794 147.152C642.516 147.472 642.186 147.712 641.802 147.872C641.418 148.032 640.996 148.112 640.538 148.112ZM640.298 147.12C640.991 147.12 641.546 146.896 641.962 146.448C642.378 145.989 642.586 145.291 642.586 144.352V143.648C642.586 142.72 642.372 142.027 641.946 141.568C641.53 141.109 640.98 140.88 640.298 140.88C639.658 140.88 639.119 141.104 638.682 141.552C638.255 142 638.031 142.656 638.01 143.52V144.352C638.01 145.248 638.223 145.936 638.65 146.416C639.076 146.885 639.626 147.12 640.298 147.12ZM648.867 148.112C647.811 148.112 646.974 147.792 646.355 147.152C645.736 146.501 645.427 145.568 645.427 144.352V143.648C645.427 142.443 645.736 141.515 646.355 140.864C646.984 140.213 647.822 139.888 648.867 139.888C649.912 139.888 650.744 140.213 651.363 140.864C651.992 141.515 652.307 142.443 652.307 143.648V144.304H646.515V144.352C646.515 145.28 646.728 145.973 647.155 146.432C647.582 146.891 648.152 147.12 648.867 147.12C649.528 147.12 650.03 146.981 650.371 146.704C650.723 146.427 650.979 146.08 651.139 145.664H652.227C652.142 146.005 652.014 146.325 651.843 146.624C651.672 146.923 651.448 147.184 651.171 147.408C650.894 147.621 650.563 147.792 650.179 147.92C649.795 148.048 649.358 148.112 648.867 148.112ZM648.867 140.88C648.174 140.88 647.619 141.099 647.203 141.536C646.798 141.963 646.568 142.576 646.515 143.376H651.203C651.16 142.544 650.926 141.92 650.499 141.504C650.083 141.088 649.539 140.88 648.867 140.88ZM660.455 148H654.327V150.08H653.271V147.04H654.119C654.311 146.752 654.466 146.475 654.583 146.208C654.701 145.941 654.791 145.637 654.855 145.296C654.919 144.944 654.962 144.539 654.983 144.08C655.015 143.621 655.031 143.061 655.031 142.4V140H660.391V147.04H661.511V150.08H660.455V148ZM656.087 142.4C656.087 143.061 656.071 143.632 656.039 144.112C656.018 144.581 655.975 144.992 655.911 145.344C655.858 145.696 655.783 146.005 655.687 146.272C655.591 146.528 655.479 146.784 655.351 147.04H659.335V140.96H656.087V142.4ZM668.692 141.216L667.7 142.88L664.5 148H663.188V140H664.244V146.8L665.236 145.12L668.436 140H669.748V148H668.692V141.216ZM671.509 140H677.909V140.96H675.237V148H674.181V140.96H671.509V140ZM681.436 148.112C680.636 148.112 680.023 147.909 679.596 147.504C679.17 147.088 678.956 146.517 678.956 145.792C678.956 145.408 679.015 145.061 679.132 144.752C679.26 144.432 679.458 144.165 679.724 143.952C680.002 143.739 680.354 143.573 680.78 143.456C681.207 143.339 681.719 143.28 682.316 143.28H684.14V142.56C684.14 141.984 683.996 141.563 683.708 141.296C683.431 141.019 682.967 140.88 682.316 140.88C681.73 140.88 681.287 140.997 680.988 141.232C680.7 141.456 680.535 141.765 680.492 142.16H679.356C679.378 141.829 679.452 141.525 679.58 141.248C679.708 140.971 679.895 140.731 680.14 140.528C680.386 140.325 680.69 140.171 681.052 140.064C681.415 139.947 681.836 139.888 682.316 139.888C683.266 139.888 683.98 140.123 684.46 140.592C684.951 141.061 685.196 141.717 685.196 142.56V148H684.38L684.22 146.496C683.943 147.008 683.559 147.408 683.068 147.696C682.588 147.973 682.044 148.112 681.436 148.112ZM681.516 147.12C681.879 147.12 682.22 147.056 682.54 146.928C682.86 146.789 683.138 146.608 683.372 146.384C683.618 146.149 683.804 145.883 683.932 145.584C684.071 145.275 684.14 144.949 684.14 144.608V144.24H682.316C681.495 144.24 680.908 144.384 680.556 144.672C680.215 144.96 680.044 145.333 680.044 145.792C680.044 146.197 680.167 146.523 680.412 146.768C680.668 147.003 681.036 147.12 681.516 147.12Z" fill="#23201F"/>
<path d="M500.75 109.85L504.25 107.5H507.25V125H504.25V110.6L500.75 112.925V109.85ZM516.615 125.225C515.582 125.225 514.674 125.1 513.89 124.85C513.124 124.6 512.474 124.25 511.94 123.8C511.424 123.35 511.032 122.817 510.765 122.2C510.499 121.567 510.365 120.883 510.365 120.15C510.365 119.15 510.615 118.3 511.115 117.6C511.632 116.9 512.307 116.333 513.14 115.9C512.44 115.5 511.882 114.983 511.465 114.35C511.065 113.717 510.865 112.95 510.865 112.05C510.865 111.383 510.999 110.758 511.265 110.175C511.532 109.592 511.915 109.083 512.415 108.65C512.915 108.217 513.515 107.883 514.215 107.65C514.932 107.4 515.732 107.275 516.615 107.275C517.515 107.275 518.324 107.4 519.04 107.65C519.757 107.883 520.357 108.217 520.84 108.65C521.34 109.067 521.715 109.567 521.965 110.15C522.232 110.733 522.365 111.367 522.365 112.05C522.365 112.95 522.157 113.717 521.74 114.35C521.324 114.967 520.765 115.475 520.065 115.875C520.899 116.308 521.574 116.883 522.09 117.6C522.607 118.3 522.865 119.15 522.865 120.15C522.865 120.867 522.724 121.533 522.44 122.15C522.174 122.767 521.774 123.308 521.24 123.775C520.724 124.225 520.074 124.583 519.29 124.85C518.524 125.1 517.632 125.225 516.615 125.225ZM516.615 122.425C517.115 122.425 517.557 122.358 517.94 122.225C518.324 122.092 518.64 121.917 518.89 121.7C519.157 121.483 519.357 121.233 519.49 120.95C519.64 120.65 519.715 120.35 519.715 120.05C519.715 119.617 519.632 119.233 519.465 118.9C519.299 118.55 519.074 118.25 518.79 118C518.507 117.75 518.174 117.55 517.79 117.4C517.424 117.25 517.032 117.15 516.615 117.1C515.749 117.2 515.015 117.492 514.415 117.975C513.815 118.458 513.515 119.15 513.515 120.05C513.515 120.683 513.782 121.242 514.315 121.725C514.865 122.192 515.632 122.425 516.615 122.425ZM516.615 114.725C516.965 114.675 517.299 114.592 517.615 114.475C517.932 114.358 518.207 114.2 518.44 114C518.674 113.8 518.857 113.558 518.99 113.275C519.14 112.975 519.215 112.608 519.215 112.175C519.215 111.925 519.149 111.675 519.015 111.425C518.899 111.175 518.724 110.95 518.49 110.75C518.274 110.55 518.007 110.392 517.69 110.275C517.374 110.142 517.015 110.075 516.615 110.075C516.215 110.075 515.849 110.142 515.515 110.275C515.199 110.392 514.924 110.55 514.69 110.75C514.474 110.95 514.307 111.175 514.19 111.425C514.074 111.675 514.015 111.925 514.015 112.175C514.015 112.575 514.09 112.925 514.24 113.225C514.39 113.525 514.582 113.775 514.815 113.975C515.065 114.175 515.34 114.342 515.64 114.475C515.957 114.592 516.282 114.675 516.615 114.725ZM528.861 116.475C528.195 116.475 527.595 116.375 527.061 116.175C526.528 115.958 526.07 115.667 525.686 115.3C525.303 114.933 525.003 114.5 524.786 114C524.586 113.483 524.486 112.917 524.486 112.3V111.45C524.486 110.833 524.586 110.275 524.786 109.775C525.003 109.258 525.303 108.817 525.686 108.45C526.07 108.083 526.528 107.8 527.061 107.6C527.595 107.383 528.195 107.275 528.861 107.275C529.528 107.275 530.128 107.383 530.661 107.6C531.195 107.8 531.653 108.083 532.036 108.45C532.42 108.817 532.711 109.258 532.911 109.775C533.128 110.275 533.236 110.833 533.236 111.45V112.3C533.236 112.917 533.128 113.483 532.911 114C532.711 114.5 532.42 114.933 532.036 115.3C531.653 115.667 531.195 115.958 530.661 116.175C530.128 116.375 529.528 116.475 528.861 116.475ZM528.861 114.325C529.411 114.325 529.853 114.15 530.186 113.8C530.536 113.433 530.711 112.933 530.711 112.3V111.45C530.711 110.817 530.536 110.325 530.186 109.975C529.853 109.608 529.411 109.425 528.861 109.425C528.295 109.425 527.836 109.608 527.486 109.975C527.153 110.325 526.986 110.817 526.986 111.45V112.3C526.986 112.933 527.153 113.433 527.486 113.8C527.836 114.15 528.295 114.325 528.861 114.325ZM541.611 125.225C540.945 125.225 540.345 125.125 539.811 124.925C539.278 124.708 538.82 124.417 538.436 124.05C538.053 123.683 537.753 123.25 537.536 122.75C537.336 122.233 537.236 121.667 537.236 121.05V120.2C537.236 119.583 537.336 119.025 537.536 118.525C537.753 118.008 538.053 117.567 538.436 117.2C538.82 116.833 539.278 116.55 539.811 116.35C540.345 116.133 540.945 116.025 541.611 116.025C542.278 116.025 542.878 116.133 543.411 116.35C543.945 116.55 544.403 116.833 544.786 117.2C545.17 117.567 545.461 118.008 545.661 118.525C545.878 119.025 545.986 119.583 545.986 120.2V121.05C545.986 121.667 545.878 122.233 545.661 122.75C545.461 123.25 545.17 123.683 544.786 124.05C544.403 124.417 543.945 124.708 543.411 124.925C542.878 125.125 542.278 125.225 541.611 125.225ZM541.611 123.075C542.161 123.075 542.603 122.9 542.936 122.55C543.286 122.183 543.461 121.683 543.461 121.05V120.2C543.461 119.567 543.286 119.075 542.936 118.725C542.603 118.358 542.161 118.175 541.611 118.175C541.045 118.175 540.586 118.358 540.236 118.725C539.903 119.075 539.736 119.567 539.736 120.2V121.05C539.736 121.683 539.903 122.183 540.236 122.55C540.586 122.9 541.045 123.075 541.611 123.075ZM538.986 107.5H541.736L531.486 125H528.736L538.986 107.5Z" fill="#23201F"/>
<path d="M10 108.999H237.945L274 148.999" stroke="#0DAB76"/>
<path d="M0.645372 109H0C0.000544388 111.761 2.23811 113.999 5.00047 114C7.76174 113.999 9.99946 111.761 10 109C9.99946 106.237 7.76174 104 5.00047 104C2.23866 104 0.000544388 106.237 0 109H0.645372H1.29034C1.29401 106.95 2.95167 105.294 5.00047 105.29C7.04832 105.294 8.70599 106.95 8.70966 109C8.70599 111.048 7.04832 112.706 5.00047 112.71C2.95167 112.706 1.29401 111.048 1.29034 109H0.645372Z" fill="#0DAB76"/>
<path d="M18.64 79.8238H12.56V89.9998H11.44V78.7998H19.76V89.9998H18.64V79.8238ZM25.6031 90.1118C25.0698 90.1118 24.5845 90.0264 24.1471 89.8558C23.7205 89.6851 23.3525 89.4398 23.0431 89.1198C22.7338 88.7998 22.4938 88.4104 22.3231 87.9518C22.1631 87.4824 22.0831 86.9491 22.0831 86.3518V85.6478C22.0831 85.0611 22.1685 84.5384 22.3391 84.0798C22.5098 83.6104 22.7445 83.2158 23.0431 82.8958C23.3525 82.5651 23.7205 82.3144 24.1471 82.1438C24.5845 81.9731 25.0698 81.8878 25.6031 81.8878C26.1365 81.8878 26.6165 81.9731 27.0431 82.1438C27.4805 82.3144 27.8538 82.5598 28.1631 82.8798C28.4725 83.1998 28.7071 83.5944 28.8671 84.0638C29.0378 84.5331 29.1231 85.0611 29.1231 85.6478V86.3518C29.1231 86.9384 29.0378 87.4664 28.8671 87.9358C28.6965 88.3944 28.4565 88.7891 28.1471 89.1198C27.8485 89.4398 27.4805 89.6851 27.0431 89.8558C26.6058 90.0264 26.1258 90.1118 25.6031 90.1118ZM25.6031 89.1198C26.3285 89.1198 26.9151 88.8851 27.3631 88.4158C27.8111 87.9358 28.0351 87.2478 28.0351 86.3518V85.6478C28.0351 84.7624 27.8058 84.0798 27.3471 83.5998C26.8991 83.1198 26.3178 82.8798 25.6031 82.8798C24.8778 82.8798 24.2911 83.1198 23.8431 83.5998C23.3951 84.0691 23.1711 84.7518 23.1711 85.6478V86.3518C23.1711 87.2371 23.3951 87.9198 23.8431 88.3998C24.3018 88.8798 24.8885 89.1198 25.6031 89.1198ZM33.84 86.3198H32.416V89.9998H31.36V81.9998H32.416V85.3598H33.84L36.128 81.9998H37.44L34.8 85.8558L37.76 89.9998H36.448L33.84 86.3198ZM42.0245 89.9998L38.7125 81.9998H39.8965L42.6005 88.6878L45.1125 81.9998H46.2325L41.9125 93.1998H40.7925L42.0245 89.9998ZM53.169 82.9598H49.041V89.9998H47.985V81.9998H54.225V89.9998H53.169V82.9598ZM59.4181 86.3198H57.9941V89.9998H56.9381V81.9998H57.9941V85.3598H59.4181L61.7061 81.9998H63.0181L60.3781 85.8558L63.3381 89.9998H62.0261L59.4181 86.3198ZM66.8581 90.1118C66.0581 90.1118 65.4448 89.9091 65.0181 89.5038C64.5915 89.0878 64.3781 88.5171 64.3781 87.7918C64.3781 87.4078 64.4368 87.0611 64.5541 86.7518C64.6821 86.4318 64.8795 86.1651 65.1461 85.9518C65.4235 85.7384 65.7755 85.5731 66.2021 85.4558C66.6288 85.3384 67.1408 85.2798 67.7381 85.2798H69.5621V84.5598C69.5621 83.9838 69.4181 83.5624 69.1301 83.2958C68.8528 83.0184 68.3888 82.8798 67.7381 82.8798C67.1515 82.8798 66.7088 82.9971 66.4101 83.2318C66.1221 83.4558 65.9568 83.7651 65.9141 84.1598H64.7781C64.7995 83.8291 64.8741 83.5251 65.0021 83.2478C65.1301 82.9704 65.3168 82.7304 65.5621 82.5278C65.8075 82.3251 66.1115 82.1704 66.4741 82.0638C66.8368 81.9464 67.2581 81.8878 67.7381 81.8878C68.6875 81.8878 69.4021 82.1224 69.8821 82.5918C70.3728 83.0611 70.6181 83.7171 70.6181 84.5598V89.9998H69.8021L69.6421 88.4958C69.3648 89.0078 68.9808 89.4078 68.4901 89.6958C68.0101 89.9731 67.4661 90.1118 66.8581 90.1118ZM66.9381 89.1198C67.3008 89.1198 67.6421 89.0558 67.9621 88.9278C68.2821 88.7891 68.5595 88.6078 68.7941 88.3838C69.0395 88.1491 69.2261 87.8824 69.3541 87.5838C69.4928 87.2744 69.5621 86.9491 69.5621 86.6078V86.2398H67.7381C66.9168 86.2398 66.3301 86.3838 65.9781 86.6718C65.6368 86.9598 65.4661 87.3331 65.4661 87.7918C65.4661 88.1971 65.5888 88.5224 65.8341 88.7678C66.0901 89.0024 66.4581 89.1198 66.9381 89.1198ZM76.2906 81.9998H82.6906V82.9598H80.0186V89.9998H78.9626V82.9598H76.2906V81.9998ZM87.1013 90.1118C86.0453 90.1118 85.2079 89.7918 84.5893 89.1518C83.9706 88.5011 83.6613 87.5678 83.6613 86.3518V85.6478C83.6613 84.4424 83.9706 83.5144 84.5893 82.8638C85.2186 82.2131 86.0559 81.8878 87.1013 81.8878C88.1466 81.8878 88.9786 82.2131 89.5973 82.8638C90.2266 83.5144 90.5413 84.4424 90.5413 85.6478V86.3038H84.7493V86.3518C84.7493 87.2798 84.9626 87.9731 85.3893 88.4318C85.8159 88.8904 86.3866 89.1198 87.1013 89.1198C87.7626 89.1198 88.2639 88.9811 88.6053 88.7038C88.9573 88.4264 89.2133 88.0798 89.3733 87.6638H90.4613C90.3759 88.0051 90.2479 88.3251 90.0773 88.6238C89.9066 88.9224 89.6826 89.1838 89.4053 89.4078C89.1279 89.6211 88.7973 89.7918 88.4133 89.9198C88.0293 90.0478 87.5919 90.1118 87.1013 90.1118ZM87.1013 82.8798C86.4079 82.8798 85.8533 83.0984 85.4373 83.5358C85.0319 83.9624 84.8026 84.5758 84.7493 85.3758H89.4373C89.3946 84.5438 89.1599 83.9198 88.7333 83.5038C88.3173 83.0878 87.7733 82.8798 87.1013 82.8798ZM95.0934 86.6558L92.7574 89.9998H91.5094L94.4374 85.8878L91.7014 81.9998H92.9494L95.1254 85.1038L97.3014 81.9998H98.5174L95.7814 85.8558L98.7094 89.9998H97.4294L95.0934 86.6558ZM105.973 86.3998H101.525V89.9998H100.469V81.9998H101.525V85.4398H105.973V81.9998H107.029V89.9998H105.973V86.3998ZM115.255 83.2158L114.263 84.8798L111.063 89.9998H109.751V81.9998H110.807V88.7998L111.799 87.1198L114.999 81.9998H116.311V89.9998H115.255V83.2158ZM121.512 86.3198H120.088V89.9998H119.032V81.9998H120.088V85.3598H121.512L123.8 81.9998H125.112L122.472 85.8558L125.432 89.9998H124.12L121.512 86.3198ZM132.692 83.2158L131.7 84.8798L128.5 89.9998H127.188V81.9998H128.244V88.7998L129.236 87.1198L132.436 81.9998H133.748V89.9998H132.692V83.2158ZM136.629 88.6398H137.909L136.709 92.3998H135.829L136.629 88.6398ZM145.989 85.4398H149.221C149.211 85.0344 149.141 84.6771 149.013 84.3678C148.896 84.0478 148.731 83.7811 148.517 83.5678C148.315 83.3438 148.069 83.1731 147.781 83.0558C147.504 82.9384 147.2 82.8798 146.869 82.8798C146.304 82.8798 145.867 83.0024 145.557 83.2478C145.259 83.4931 145.029 83.7971 144.869 84.1598H143.749C143.824 83.8504 143.947 83.5571 144.117 83.2798C144.288 83.0024 144.501 82.7624 144.757 82.5598C145.024 82.3464 145.328 82.1811 145.669 82.0638C146.021 81.9464 146.421 81.8878 146.869 81.8878C147.381 81.8878 147.845 81.9784 148.261 82.1598C148.688 82.3304 149.051 82.5758 149.349 82.8958C149.659 83.2158 149.893 83.6051 150.053 84.0638C150.224 84.5118 150.309 85.0131 150.309 85.5678V86.2718C150.309 86.8798 150.224 87.4238 150.053 87.9038C149.893 88.3731 149.659 88.7731 149.349 89.1038C149.051 89.4344 148.688 89.6851 148.261 89.8558C147.845 90.0264 147.381 90.1118 146.869 90.1118C145.973 90.1118 145.269 89.8824 144.757 89.4238C144.245 88.9651 143.909 88.3838 143.749 87.6798H144.869C145.029 88.1278 145.259 88.4798 145.557 88.7358C145.856 88.9918 146.293 89.1198 146.869 89.1198C147.531 89.1198 148.08 88.8904 148.517 88.4318C148.965 87.9624 149.2 87.2851 149.221 86.3998H145.989V85.4398ZM151.351 89.1198H151.591C151.783 89.1198 151.959 89.0771 152.119 88.9918C152.29 88.8958 152.434 88.7251 152.551 88.4798C152.679 88.2344 152.775 87.9038 152.839 87.4878C152.914 87.0611 152.951 86.5118 152.951 85.8398V81.9998H158.391V89.9998H157.335V82.9598H154.007V85.8398C154.007 86.6718 153.949 87.3651 153.831 87.9198C153.725 88.4638 153.565 88.9011 153.351 89.2318C153.138 89.5518 152.882 89.7811 152.583 89.9198C152.285 90.0478 151.954 90.1118 151.591 90.1118H151.351V89.1198ZM164.07 90.1118C163.014 90.1118 162.177 89.7918 161.558 89.1518C160.939 88.5011 160.63 87.5678 160.63 86.3518V85.6478C160.63 84.4424 160.939 83.5144 161.558 82.8638C162.187 82.2131 163.025 81.8878 164.07 81.8878C165.115 81.8878 165.947 82.2131 166.566 82.8638C167.195 83.5144 167.51 84.4424 167.51 85.6478V86.3038H161.718V86.3518C161.718 87.2798 161.931 87.9731 162.358 88.4318C162.785 88.8904 163.355 89.1198 164.07 89.1198C164.731 89.1198 165.233 88.9811 165.574 88.7038C165.926 88.4264 166.182 88.0798 166.342 87.6638H167.43C167.345 88.0051 167.217 88.3251 167.046 88.6238C166.875 88.9224 166.651 89.1838 166.374 89.4078C166.097 89.6211 165.766 89.7918 165.382 89.9198C164.998 90.0478 164.561 90.1118 164.07 90.1118ZM164.07 82.8798C163.377 82.8798 162.822 83.0984 162.406 83.5358C162.001 83.9624 161.771 84.5758 161.718 85.3758H166.406C166.363 84.5438 166.129 83.9198 165.702 83.5038C165.286 83.0878 164.742 82.8798 164.07 82.8798ZM172.231 86.3198H170.807V89.9998H169.751V81.9998H170.807V85.3598H172.231L174.519 81.9998H175.831L173.191 85.8558L176.151 89.9998H174.839L172.231 86.3198ZM176.947 81.9998H183.347V82.9598H180.675V89.9998H179.619V82.9598H176.947V81.9998ZM188.694 90.1118C188.139 90.1118 187.649 90.0104 187.222 89.8078C186.795 89.5944 186.443 89.2691 186.166 88.8318V93.1998H185.11V81.9998H185.926L186.054 83.3438C186.331 82.8531 186.689 82.4904 187.126 82.2558C187.574 82.0104 188.097 81.8878 188.694 81.8878C189.153 81.8878 189.574 81.9678 189.958 82.1278C190.342 82.2878 190.673 82.5278 190.95 82.8478C191.227 83.1571 191.441 83.5464 191.59 84.0158C191.75 84.4851 191.83 85.0291 191.83 85.6478V86.3518C191.83 86.9598 191.75 87.4984 191.59 87.9678C191.441 88.4371 191.227 88.8318 190.95 89.1518C190.673 89.4718 190.342 89.7118 189.958 89.8718C189.574 90.0318 189.153 90.1118 188.694 90.1118ZM188.454 89.1198C189.147 89.1198 189.702 88.8958 190.118 88.4478C190.534 87.9891 190.742 87.2904 190.742 86.3518V85.6478C190.742 84.7198 190.529 84.0264 190.102 83.5678C189.686 83.1091 189.137 82.8798 188.454 82.8798C187.814 82.8798 187.275 83.1038 186.838 83.5518C186.411 83.9998 186.187 84.6558 186.166 85.5198V86.3518C186.166 87.2478 186.379 87.9358 186.806 88.4158C187.233 88.8851 187.782 89.1198 188.454 89.1198ZM197.103 90.1118C196.57 90.1118 196.084 90.0264 195.647 89.8558C195.22 89.6851 194.852 89.4398 194.543 89.1198C194.234 88.7998 193.994 88.4104 193.823 87.9518C193.663 87.4824 193.583 86.9491 193.583 86.3518V85.6478C193.583 85.0611 193.668 84.5384 193.839 84.0798C194.01 83.6104 194.244 83.2158 194.543 82.8958C194.852 82.5651 195.22 82.3144 195.647 82.1438C196.084 81.9731 196.57 81.8878 197.103 81.8878C197.636 81.8878 198.116 81.9731 198.543 82.1438C198.98 82.3144 199.354 82.5598 199.663 82.8798C199.972 83.1998 200.207 83.5944 200.367 84.0638C200.538 84.5331 200.623 85.0611 200.623 85.6478V86.3518C200.623 86.9384 200.538 87.4664 200.367 87.9358C200.196 88.3944 199.956 88.7891 199.647 89.1198C199.348 89.4398 198.98 89.6851 198.543 89.8558C198.106 90.0264 197.626 90.1118 197.103 90.1118ZM197.103 89.1198C197.828 89.1198 198.415 88.8851 198.863 88.4158C199.311 87.9358 199.535 87.2478 199.535 86.3518V85.6478C199.535 84.7624 199.306 84.0798 198.847 83.5998C198.399 83.1198 197.818 82.8798 197.103 82.8798C196.378 82.8798 195.791 83.1198 195.343 83.5998C194.895 84.0691 194.671 84.7518 194.671 85.6478V86.3518C194.671 87.2371 194.895 87.9198 195.343 88.3998C195.802 88.8798 196.388 89.1198 197.103 89.1198ZM208.364 86.3998H203.916V89.9998H202.86V81.9998H203.916V85.4398H208.364V81.9998H209.42V89.9998H208.364V86.3998ZM217.645 83.2158L216.653 84.8798L213.453 89.9998H212.141V81.9998H213.197V88.7998L214.189 87.1198L217.389 81.9998H218.701V89.9998H217.645V83.2158ZM223.903 86.3198H222.479V89.9998H221.423V81.9998H222.479V85.3598H223.903L226.191 81.9998H227.503L224.863 85.8558L227.823 89.9998H226.511L223.903 86.3198ZM235.083 83.2158L234.091 84.8798L230.891 89.9998H229.579V81.9998H230.635V88.7998L231.627 87.1198L234.827 81.9998H236.139V89.9998H235.083V83.2158Z" fill="#23201F"/>
<path d="M10.875 64.3498L16.525 58.9248C17.075 58.3914 17.5417 57.9248 17.925 57.5248C18.3083 57.1248 18.6083 56.7581 18.825 56.4248C19.0583 56.0914 19.225 55.7831 19.325 55.4998C19.425 55.2164 19.475 54.9248 19.475 54.6248C19.475 53.8581 19.2333 53.2414 18.75 52.7748C18.2667 52.3081 17.6 52.0748 16.75 52.0748C15.9 52.0748 15.2333 52.3164 14.75 52.7998C14.2667 53.2831 14.025 53.9748 14.025 54.8748H10.875C10.875 54.0248 11.0083 53.2581 11.275 52.5748C11.5417 51.8748 11.925 51.2831 12.425 50.7998C12.9417 50.3164 13.5583 49.9414 14.275 49.6748C15.0083 49.4081 15.8333 49.2748 16.75 49.2748C17.6667 49.2748 18.4833 49.4081 19.2 49.6748C19.9333 49.9248 20.55 50.2914 21.05 50.7748C21.5667 51.2414 21.9583 51.8081 22.225 52.4748C22.4917 53.1248 22.625 53.8414 22.625 54.6248C22.625 55.6081 22.3083 56.5748 21.675 57.5248C21.0417 58.4748 20.0583 59.5581 18.725 60.7748L14.8 64.3498H22.625V66.9998H10.875V64.3498ZM31.3701 67.2248C30.4035 67.2248 29.5285 67.0748 28.7451 66.7748C27.9785 66.4581 27.3285 65.9664 26.7951 65.2998C26.2618 64.6331 25.8451 63.7748 25.5451 62.7248C25.2618 61.6748 25.1201 60.3998 25.1201 58.8998V57.5998C25.1201 56.1164 25.2618 54.8498 25.5451 53.7998C25.8451 52.7498 26.2618 51.8914 26.7951 51.2248C27.3451 50.5414 28.0035 50.0498 28.7701 49.7498C29.5368 49.4331 30.4035 49.2748 31.3701 49.2748C32.3368 49.2748 33.2035 49.4331 33.9701 49.7498C34.7535 50.0498 35.4118 50.5331 35.9451 51.1998C36.4951 51.8664 36.9118 52.7248 37.1951 53.7748C37.4785 54.8248 37.6201 56.0998 37.6201 57.5998V58.8998C37.6201 60.3831 37.4701 61.6498 37.1701 62.6998C36.8868 63.7498 36.4701 64.6164 35.9201 65.2998C35.3868 65.9664 34.7368 66.4581 33.9701 66.7748C33.2035 67.0748 32.3368 67.2248 31.3701 67.2248ZM31.3701 64.4248C31.8535 64.4248 32.2868 64.3414 32.6701 64.1748C33.0535 64.0081 33.3785 63.7164 33.6451 63.2998C33.9118 62.8831 34.1118 62.3248 34.2451 61.6248C34.3951 60.9081 34.4701 59.9998 34.4701 58.8998V57.5998C34.4701 56.5164 34.3951 55.6248 34.2451 54.9248C34.0951 54.2081 33.8868 53.6414 33.6201 53.2248C33.3535 52.7914 33.0285 52.4914 32.6451 52.3248C32.2618 52.1581 31.8368 52.0748 31.3701 52.0748C30.8868 52.0748 30.4535 52.1581 30.0701 52.3248C29.6868 52.4914 29.3618 52.7831 29.0951 53.1998C28.8285 53.6164 28.6201 54.1831 28.4701 54.8998C28.3368 55.5998 28.2701 56.4998 28.2701 57.5998V58.8998C28.2701 59.9831 28.3368 60.8831 28.4701 61.5998C28.6201 62.2998 28.8285 62.8664 29.0951 63.2998C29.3785 63.7164 29.7035 64.0081 30.0701 64.1748C30.4535 64.3414 30.8868 64.4248 31.3701 64.4248ZM43.8789 58.4748C43.2122 58.4748 42.6122 58.3748 42.0789 58.1748C41.5456 57.9581 41.0872 57.6664 40.7039 57.2998C40.3206 56.9331 40.0206 56.4998 39.8039 55.9998C39.6039 55.4831 39.5039 54.9164 39.5039 54.2998V53.4498C39.5039 52.8331 39.6039 52.2748 39.8039 51.7748C40.0206 51.2581 40.3206 50.8164 40.7039 50.4498C41.0872 50.0831 41.5456 49.7998 42.0789 49.5998C42.6122 49.3831 43.2122 49.2748 43.8789 49.2748C44.5456 49.2748 45.1456 49.3831 45.6789 49.5998C46.2122 49.7998 46.6706 50.0831 47.0539 50.4498C47.4372 50.8164 47.7289 51.2581 47.9289 51.7748C48.1456 52.2748 48.2539 52.8331 48.2539 53.4498V54.2998C48.2539 54.9164 48.1456 55.4831 47.9289 55.9998C47.7289 56.4998 47.4372 56.9331 47.0539 57.2998C46.6706 57.6664 46.2122 57.9581 45.6789 58.1748C45.1456 58.3748 44.5456 58.4748 43.8789 58.4748ZM43.8789 56.3248C44.4289 56.3248 44.8706 56.1498 45.2039 55.7998C45.5539 55.4331 45.7289 54.9331 45.7289 54.2998V53.4498C45.7289 52.8164 45.5539 52.3248 45.2039 51.9748C44.8706 51.6081 44.4289 51.4248 43.8789 51.4248C43.3122 51.4248 42.8539 51.6081 42.5039 51.9748C42.1706 52.3248 42.0039 52.8164 42.0039 53.4498V54.2998C42.0039 54.9331 42.1706 55.4331 42.5039 55.7998C42.8539 56.1498 43.3122 56.3248 43.8789 56.3248ZM56.6289 67.2248C55.9622 67.2248 55.3622 67.1248 54.8289 66.9248C54.2956 66.7081 53.8372 66.4164 53.4539 66.0498C53.0706 65.6831 52.7706 65.2498 52.5539 64.7498C52.3539 64.2331 52.2539 63.6664 52.2539 63.0498V62.1998C52.2539 61.5831 52.3539 61.0248 52.5539 60.5248C52.7706 60.0081 53.0706 59.5664 53.4539 59.1998C53.8372 58.8331 54.2956 58.5498 54.8289 58.3498C55.3622 58.1331 55.9622 58.0248 56.6289 58.0248C57.2956 58.0248 57.8956 58.1331 58.4289 58.3498C58.9622 58.5498 59.4206 58.8331 59.8039 59.1998C60.1872 59.5664 60.4789 60.0081 60.6789 60.5248C60.8956 61.0248 61.0039 61.5831 61.0039 62.1998V63.0498C61.0039 63.6664 60.8956 64.2331 60.6789 64.7498C60.4789 65.2498 60.1872 65.6831 59.8039 66.0498C59.4206 66.4164 58.9622 66.7081 58.4289 66.9248C57.8956 67.1248 57.2956 67.2248 56.6289 67.2248ZM56.6289 65.0748C57.1789 65.0748 57.6206 64.8998 57.9539 64.5498C58.3039 64.1831 58.4789 63.6831 58.4789 63.0498V62.1998C58.4789 61.5664 58.3039 61.0748 57.9539 60.7248C57.6206 60.3581 57.1789 60.1748 56.6289 60.1748C56.0622 60.1748 55.6039 60.3581 55.2539 60.7248C54.9206 61.0748 54.7539 61.5664 54.7539 62.1998V63.0498C54.7539 63.6831 54.9206 64.1831 55.2539 64.5498C55.6039 64.8998 56.0622 65.0748 56.6289 65.0748ZM54.0039 49.4998H56.7539L46.5039 66.9998H43.7539L54.0039 49.4998Z" fill="#23201F"/>
<path d="M10 378C79.0775 378 185.384 378 185.384 378L238 335" stroke="#FA5B3D"/>
<path d="M0.645381 378.002H0C0.000544395 380.762 2.23815 383 4.99946 383C7.76131 383 9.99946 380.762 10 378.002C9.99946 375.239 7.76131 373.001 4.99946 373C2.23815 373.001 0.000544395 375.239 0 378.002H0.645381H1.29022C1.29403 375.952 2.95158 374.294 4.99946 374.29C7.04842 374.294 8.70611 375.952 8.70978 378.002C8.70611 380.049 7.04842 381.706 4.99946 381.71C2.95158 381.706 1.29403 380.049 1.29022 378.002H0.645381Z" fill="#FA5B3D"/>
<path d="M11.44 347.8H14.96C16.336 347.8 17.344 348.104 17.984 348.712C18.6347 349.309 18.96 350.162 18.96 351.272C18.96 352.36 18.6293 353.213 17.968 353.832C17.3173 354.44 16.3147 354.744 14.96 354.744H12.56V359H11.44V347.8ZM12.56 348.824V353.72H14.96C15.952 353.72 16.672 353.512 17.12 353.096C17.5787 352.68 17.808 352.072 17.808 351.272C17.808 350.472 17.584 349.864 17.136 349.448C16.688 349.032 15.9627 348.824 14.96 348.824H12.56ZM23.7575 359.112C22.7015 359.112 21.8642 358.792 21.2455 358.152C20.6268 357.501 20.3175 356.568 20.3175 355.352V354.648C20.3175 353.442 20.6268 352.514 21.2455 351.864C21.8748 351.213 22.7122 350.888 23.7575 350.888C24.8028 350.888 25.6348 351.213 26.2535 351.864C26.8828 352.514 27.1975 353.442 27.1975 354.648V355.304H21.4055V355.352C21.4055 356.28 21.6188 356.973 22.0455 357.432C22.4722 357.89 23.0428 358.12 23.7575 358.12C24.4188 358.12 24.9202 357.981 25.2615 357.704C25.6135 357.426 25.8695 357.08 26.0295 356.664H27.1175C27.0322 357.005 26.9042 357.325 26.7335 357.624C26.5628 357.922 26.3388 358.184 26.0615 358.408C25.7842 358.621 25.4535 358.792 25.0695 358.92C24.6855 359.048 24.2482 359.112 23.7575 359.112ZM23.7575 351.88C23.0642 351.88 22.5095 352.098 22.0935 352.536C21.6882 352.962 21.4588 353.576 21.4055 354.376H26.0935C26.0508 353.544 25.8162 352.92 25.3895 352.504C24.9735 352.088 24.4295 351.88 23.7575 351.88ZM31.3581 353.88L30.4941 352.152V359H29.4381V351H30.9101L33.5341 355.944L36.1581 351H37.5981V359H36.5421V352.152L35.6781 353.88L34.0461 357H32.9901L31.3581 353.88ZM43.3531 359.112C42.8198 359.112 42.3345 359.026 41.8971 358.856C41.4705 358.685 41.1025 358.44 40.7931 358.12C40.4838 357.8 40.2438 357.41 40.0731 356.952C39.9131 356.482 39.8331 355.949 39.8331 355.352V354.648C39.8331 354.061 39.9185 353.538 40.0891 353.08C40.2598 352.61 40.4945 352.216 40.7931 351.896C41.1025 351.565 41.4705 351.314 41.8971 351.144C42.3345 350.973 42.8198 350.888 43.3531 350.888C43.8865 350.888 44.3665 350.973 44.7931 351.144C45.2305 351.314 45.6038 351.56 45.9131 351.88C46.2225 352.2 46.4571 352.594 46.6171 353.064C46.7878 353.533 46.8731 354.061 46.8731 354.648V355.352C46.8731 355.938 46.7878 356.466 46.6171 356.936C46.4465 357.394 46.2065 357.789 45.8971 358.12C45.5985 358.44 45.2305 358.685 44.7931 358.856C44.3558 359.026 43.8758 359.112 43.3531 359.112ZM43.3531 358.12C44.0785 358.12 44.6651 357.885 45.1131 357.416C45.5611 356.936 45.7851 356.248 45.7851 355.352V354.648C45.7851 353.762 45.5558 353.08 45.0971 352.6C44.6491 352.12 44.0678 351.88 43.3531 351.88C42.6278 351.88 42.0411 352.12 41.5931 352.6C41.1451 353.069 40.9211 353.752 40.9211 354.648V355.352C40.9211 356.237 41.1451 356.92 41.5931 357.4C42.0518 357.88 42.6385 358.12 43.3531 358.12ZM54.614 355.4H50.166V359H49.11V351H50.166V354.44H54.614V351H55.67V359H54.614V355.4ZM57.4313 351H63.8313V351.96H61.1593V359H60.1033V351.96H57.4313V351ZM72.0744 355.32H70.6504V359H69.5944V351H70.6504V354.36H72.0744L74.3624 351H75.6744L73.0344 354.856L75.9944 359H74.6824L72.0744 355.32ZM77.7506 351H80.7106C81.6813 351 82.3906 351.197 82.8386 351.592C83.2866 351.986 83.5106 352.52 83.5106 353.192C83.5106 353.533 83.4253 353.848 83.2546 354.136C83.084 354.424 82.828 354.664 82.4866 354.856C82.9346 355.037 83.2706 355.293 83.4946 355.624C83.7186 355.944 83.8306 356.306 83.8306 356.712C83.8306 357.426 83.6066 357.986 83.1586 358.392C82.7106 358.797 82.0013 359 81.0306 359H77.7506V351ZM78.8066 355.4V358.04H81.0306C81.66 358.04 82.1026 357.928 82.3586 357.704C82.6146 357.48 82.7426 357.149 82.7426 356.712C82.7426 356.285 82.6146 355.96 82.3586 355.736C82.1026 355.512 81.66 355.4 81.0306 355.4H78.8066ZM78.8066 351.96V354.44H80.7106C81.34 354.44 81.7826 354.333 82.0386 354.12C82.2946 353.896 82.4226 353.586 82.4226 353.192C82.4226 352.808 82.2946 352.509 82.0386 352.296C81.7826 352.072 81.34 351.96 80.7106 351.96H78.8066ZM87.9831 359.112C87.1831 359.112 86.5698 358.909 86.1431 358.504C85.7165 358.088 85.5031 357.517 85.5031 356.792C85.5031 356.408 85.5618 356.061 85.6791 355.752C85.8071 355.432 86.0045 355.165 86.2711 354.952C86.5485 354.738 86.9005 354.573 87.3271 354.456C87.7538 354.338 88.2658 354.28 88.8631 354.28H90.6871V353.56C90.6871 352.984 90.5431 352.562 90.2551 352.296C89.9778 352.018 89.5138 351.88 88.8631 351.88C88.2765 351.88 87.8338 351.997 87.5351 352.232C87.2471 352.456 87.0818 352.765 87.0391 353.16H85.9031C85.9245 352.829 85.9991 352.525 86.1271 352.248C86.2551 351.97 86.4418 351.73 86.6871 351.528C86.9325 351.325 87.2365 351.17 87.5991 351.064C87.9618 350.946 88.3831 350.888 88.8631 350.888C89.8125 350.888 90.5271 351.122 91.0071 351.592C91.4978 352.061 91.7431 352.717 91.7431 353.56V359H90.9271L90.7671 357.496C90.4898 358.008 90.1058 358.408 89.6151 358.696C89.1351 358.973 88.5911 359.112 87.9831 359.112ZM88.0631 358.12C88.4258 358.12 88.7671 358.056 89.0871 357.928C89.4071 357.789 89.6845 357.608 89.9191 357.384C90.1645 357.149 90.3511 356.882 90.4791 356.584C90.6178 356.274 90.6871 355.949 90.6871 355.608V355.24H88.8631C88.0418 355.24 87.4551 355.384 87.1031 355.672C86.7618 355.96 86.5911 356.333 86.5911 356.792C86.5911 357.197 86.7138 357.522 86.9591 357.768C87.2151 358.002 87.5831 358.12 88.0631 358.12ZM97.9596 359.112C97.405 359.112 96.9143 359.01 96.4876 358.808C96.061 358.594 95.709 358.269 95.4316 357.832V362.2H94.3756V351H95.1916L95.3196 352.344C95.597 351.853 95.9543 351.49 96.3916 351.256C96.8396 351.01 97.3623 350.888 97.9596 350.888C98.4183 350.888 98.8396 350.968 99.2236 351.128C99.6076 351.288 99.9383 351.528 100.216 351.848C100.493 352.157 100.706 352.546 100.856 353.016C101.016 353.485 101.096 354.029 101.096 354.648V355.352C101.096 355.96 101.016 356.498 100.856 356.968C100.706 357.437 100.493 357.832 100.216 358.152C99.9383 358.472 99.6076 358.712 99.2236 358.872C98.8396 359.032 98.4183 359.112 97.9596 359.112ZM97.7196 358.12C98.413 358.12 98.9676 357.896 99.3836 357.448C99.7996 356.989 100.008 356.29 100.008 355.352V354.648C100.008 353.72 99.7943 353.026 99.3676 352.568C98.9516 352.109 98.4023 351.88 97.7196 351.88C97.0796 351.88 96.541 352.104 96.1036 352.552C95.677 353 95.453 353.656 95.4316 354.52V355.352C95.4316 356.248 95.645 356.936 96.0716 357.416C96.4983 357.885 97.0476 358.12 97.7196 358.12ZM102.056 351H108.456V351.96H105.784V359H104.728V351.96H102.056V351ZM115.723 352.216L114.731 353.88L111.531 359H110.219V351H111.275V357.8L112.267 356.12L115.467 351H116.779V359H115.723V352.216ZM123.085 359.112C122.53 359.112 122.039 359.01 121.613 358.808C121.186 358.594 120.834 358.269 120.557 357.832V362.2H119.501V351H120.317L120.445 352.344C120.722 351.853 121.079 351.49 121.517 351.256C121.965 351.01 122.487 350.888 123.085 350.888C123.543 350.888 123.965 350.968 124.349 351.128C124.733 351.288 125.063 351.528 125.341 351.848C125.618 352.157 125.831 352.546 125.981 353.016C126.141 353.485 126.221 354.029 126.221 354.648V355.352C126.221 355.96 126.141 356.498 125.981 356.968C125.831 357.437 125.618 357.832 125.341 358.152C125.063 358.472 124.733 358.712 124.349 358.872C123.965 359.032 123.543 359.112 123.085 359.112ZM122.845 358.12C123.538 358.12 124.093 357.896 124.509 357.448C124.925 356.989 125.133 356.29 125.133 355.352V354.648C125.133 353.72 124.919 353.026 124.493 352.568C124.077 352.109 123.527 351.88 122.845 351.88C122.205 351.88 121.666 352.104 121.229 352.552C120.802 353 120.578 353.656 120.557 354.52V355.352C120.557 356.248 120.77 356.936 121.197 357.416C121.623 357.885 122.173 358.12 122.845 358.12ZM128.454 351H129.51V353.88H131.286C132.416 353.88 133.238 354.109 133.75 354.568C134.272 355.026 134.534 355.65 134.534 356.44C134.534 357.208 134.272 357.826 133.75 358.296C133.227 358.765 132.406 359 131.286 359H128.454V351ZM129.51 354.84V358.04H131.286C132.075 358.04 132.63 357.901 132.95 357.624C133.28 357.336 133.446 356.941 133.446 356.44C133.446 355.938 133.28 355.549 132.95 355.272C132.619 354.984 132.064 354.84 131.286 354.84H129.51ZM136.038 351H137.094V359H136.038V351ZM144.101 347.8H145.253L140.005 362.2H138.853L144.101 347.8ZM153.08 359H146.952V361.08H145.896V358.04H146.744C146.936 357.752 147.091 357.474 147.208 357.208C147.326 356.941 147.416 356.637 147.48 356.296C147.544 355.944 147.587 355.538 147.608 355.08C147.64 354.621 147.656 354.061 147.656 353.4V351H153.016V358.04H154.136V361.08H153.08V359ZM148.712 353.4C148.712 354.061 148.696 354.632 148.664 355.112C148.643 355.581 148.6 355.992 148.536 356.344C148.483 356.696 148.408 357.005 148.312 357.272C148.216 357.528 148.104 357.784 147.976 358.04H151.96V351.96H148.712V353.4ZM158.853 359.112C158.32 359.112 157.834 359.026 157.397 358.856C156.97 358.685 156.602 358.44 156.293 358.12C155.984 357.8 155.744 357.41 155.573 356.952C155.413 356.482 155.333 355.949 155.333 355.352V354.648C155.333 354.061 155.418 353.538 155.589 353.08C155.76 352.61 155.994 352.216 156.293 351.896C156.602 351.565 156.97 351.314 157.397 351.144C157.834 350.973 158.32 350.888 158.853 350.888C159.386 350.888 159.866 350.973 160.293 351.144C160.73 351.314 161.104 351.56 161.413 351.88C161.722 352.2 161.957 352.594 162.117 353.064C162.288 353.533 162.373 354.061 162.373 354.648V355.352C162.373 355.938 162.288 356.466 162.117 356.936C161.946 357.394 161.706 357.789 161.397 358.12C161.098 358.44 160.73 358.685 160.293 358.856C159.856 359.026 159.376 359.112 158.853 359.112ZM158.853 358.12C159.578 358.12 160.165 357.885 160.613 357.416C161.061 356.936 161.285 356.248 161.285 355.352V354.648C161.285 353.762 161.056 353.08 160.597 352.6C160.149 352.12 159.568 351.88 158.853 351.88C158.128 351.88 157.541 352.12 157.093 352.6C156.645 353.069 156.421 353.752 156.421 354.648V355.352C156.421 356.237 156.645 356.92 157.093 357.4C157.552 357.88 158.138 358.12 158.853 358.12ZM166.53 353.88L165.666 352.152V359H164.61V351H166.082L168.706 355.944L171.33 351H172.77V359H171.714V352.152L170.85 353.88L169.218 357H168.162L166.53 353.88ZM177.405 359.112C176.605 359.112 175.992 358.909 175.565 358.504C175.138 358.088 174.925 357.517 174.925 356.792C174.925 356.408 174.984 356.061 175.101 355.752C175.229 355.432 175.426 355.165 175.693 354.952C175.97 354.738 176.322 354.573 176.749 354.456C177.176 354.338 177.688 354.28 178.285 354.28H180.109V353.56C180.109 352.984 179.965 352.562 179.677 352.296C179.4 352.018 178.936 351.88 178.285 351.88C177.698 351.88 177.256 351.997 176.957 352.232C176.669 352.456 176.504 352.765 176.461 353.16H175.325C175.346 352.829 175.421 352.525 175.549 352.248C175.677 351.97 175.864 351.73 176.109 351.528C176.354 351.325 176.658 351.17 177.021 351.064C177.384 350.946 177.805 350.888 178.285 350.888C179.234 350.888 179.949 351.122 180.429 351.592C180.92 352.061 181.165 352.717 181.165 353.56V359H180.349L180.189 357.496C179.912 358.008 179.528 358.408 179.037 358.696C178.557 358.973 178.013 359.112 177.405 359.112ZM177.485 358.12C177.848 358.12 178.189 358.056 178.509 357.928C178.829 357.789 179.106 357.608 179.341 357.384C179.586 357.149 179.773 356.882 179.901 356.584C180.04 356.274 180.109 355.949 180.109 355.608V355.24H178.285C177.464 355.24 176.877 355.384 176.525 355.672C176.184 355.96 176.013 356.333 176.013 356.792C176.013 357.197 176.136 357.522 176.381 357.768C176.637 358.002 177.005 358.12 177.485 358.12Z" fill="#23201F"/>
<path d="M17.125 336.225C15.1583 336.225 13.6333 335.7 12.55 334.65C11.4667 333.583 10.9083 332.075 10.875 330.125H14.025C14.0583 331.275 14.3333 332.116 14.85 332.65C15.3667 333.166 16.125 333.425 17.125 333.425C18.1583 333.425 18.9333 333.191 19.45 332.725C19.9667 332.241 20.225 331.6 20.225 330.8C20.225 330.083 19.975 329.491 19.475 329.025C18.9917 328.558 18.2667 328.325 17.3 328.325H15V325.675H17.3C18.1 325.675 18.725 325.466 19.175 325.05C19.625 324.633 19.85 324.091 19.85 323.425C19.85 322.725 19.6167 322.158 19.15 321.725C18.7 321.291 18.025 321.075 17.125 321.075C15.4583 321.075 14.55 322.008 14.4 323.875H11.25C11.2833 322.125 11.8083 320.758 12.825 319.775C13.8583 318.775 15.2917 318.275 17.125 318.275C18.0917 318.275 18.9417 318.4 19.675 318.65C20.4083 318.883 21.0167 319.216 21.5 319.65C22 320.083 22.375 320.608 22.625 321.225C22.875 321.825 23 322.491 23 323.225C23 324.025 22.825 324.75 22.475 325.4C22.125 326.05 21.5833 326.575 20.85 326.975C21.7 327.391 22.3333 327.958 22.75 328.675C23.1667 329.375 23.375 330.158 23.375 331.025C23.375 331.791 23.2417 332.5 22.975 333.15C22.7083 333.783 22.3083 334.333 21.775 334.8C21.2583 335.25 20.6083 335.6 19.825 335.85C19.0583 336.1 18.1583 336.225 17.125 336.225ZM32.127 336.225C31.1603 336.225 30.2853 336.075 29.502 335.775C28.7353 335.458 28.0853 334.966 27.552 334.3C27.0186 333.633 26.602 332.775 26.302 331.725C26.0186 330.675 25.877 329.4 25.877 327.9V326.6C25.877 325.116 26.0186 323.85 26.302 322.8C26.602 321.75 27.0186 320.891 27.552 320.225C28.102 319.541 28.7603 319.05 29.527 318.75C30.2936 318.433 31.1603 318.275 32.127 318.275C33.0936 318.275 33.9603 318.433 34.727 318.75C35.5103 319.05 36.1686 319.533 36.702 320.2C37.252 320.866 37.6686 321.725 37.952 322.775C38.2353 323.825 38.377 325.1 38.377 326.6V327.9C38.377 329.383 38.227 330.65 37.927 331.7C37.6436 332.75 37.227 333.616 36.677 334.3C36.1436 334.966 35.4936 335.458 34.727 335.775C33.9603 336.075 33.0936 336.225 32.127 336.225ZM32.127 333.425C32.6103 333.425 33.0436 333.341 33.427 333.175C33.8103 333.008 34.1353 332.716 34.402 332.3C34.6686 331.883 34.8686 331.325 35.002 330.625C35.152 329.908 35.227 329 35.227 327.9V326.6C35.227 325.516 35.152 324.625 35.002 323.925C34.852 323.208 34.6436 322.641 34.377 322.225C34.1103 321.791 33.7853 321.491 33.402 321.325C33.0186 321.158 32.5936 321.075 32.127 321.075C31.6436 321.075 31.2103 321.158 30.827 321.325C30.4436 321.491 30.1186 321.783 29.852 322.2C29.5853 322.616 29.377 323.183 29.227 323.9C29.0936 324.6 29.027 325.5 29.027 326.6V327.9C29.027 328.983 29.0936 329.883 29.227 330.6C29.377 331.3 29.5853 331.866 29.852 332.3C30.1353 332.716 30.4603 333.008 30.827 333.175C31.2103 333.341 31.6436 333.425 32.127 333.425ZM44.6357 327.475C43.9691 327.475 43.3691 327.375 42.8357 327.175C42.3024 326.958 41.8441 326.666 41.4607 326.3C41.0774 325.933 40.7774 325.5 40.5607 325C40.3607 324.483 40.2607 323.916 40.2607 323.3V322.45C40.2607 321.833 40.3607 321.275 40.5607 320.775C40.7774 320.258 41.0774 319.816 41.4607 319.45C41.8441 319.083 42.3024 318.8 42.8357 318.6C43.3691 318.383 43.9691 318.275 44.6357 318.275C45.3024 318.275 45.9024 318.383 46.4357 318.6C46.9691 318.8 47.4274 319.083 47.8107 319.45C48.1941 319.816 48.4857 320.258 48.6857 320.775C48.9024 321.275 49.0107 321.833 49.0107 322.45V323.3C49.0107 323.916 48.9024 324.483 48.6857 325C48.4857 325.5 48.1941 325.933 47.8107 326.3C47.4274 326.666 46.9691 326.958 46.4357 327.175C45.9024 327.375 45.3024 327.475 44.6357 327.475ZM44.6357 325.325C45.1857 325.325 45.6274 325.15 45.9607 324.8C46.3107 324.433 46.4857 323.933 46.4857 323.3V322.45C46.4857 321.816 46.3107 321.325 45.9607 320.975C45.6274 320.608 45.1857 320.425 44.6357 320.425C44.0691 320.425 43.6107 320.608 43.2607 320.975C42.9274 321.325 42.7607 321.816 42.7607 322.45V323.3C42.7607 323.933 42.9274 324.433 43.2607 324.8C43.6107 325.15 44.0691 325.325 44.6357 325.325ZM57.3857 336.225C56.7191 336.225 56.1191 336.125 55.5857 335.925C55.0524 335.708 54.5941 335.416 54.2107 335.05C53.8274 334.683 53.5274 334.25 53.3107 333.75C53.1107 333.233 53.0107 332.666 53.0107 332.05V331.2C53.0107 330.583 53.1107 330.025 53.3107 329.525C53.5274 329.008 53.8274 328.566 54.2107 328.2C54.5941 327.833 55.0524 327.55 55.5857 327.35C56.1191 327.133 56.7191 327.025 57.3857 327.025C58.0524 327.025 58.6524 327.133 59.1857 327.35C59.7191 327.55 60.1774 327.833 60.5607 328.2C60.9441 328.566 61.2357 329.008 61.4357 329.525C61.6524 330.025 61.7607 330.583 61.7607 331.2V332.05C61.7607 332.666 61.6524 333.233 61.4357 333.75C61.2357 334.25 60.9441 334.683 60.5607 335.05C60.1774 335.416 59.7191 335.708 59.1857 335.925C58.6524 336.125 58.0524 336.225 57.3857 336.225ZM57.3857 334.075C57.9357 334.075 58.3774 333.9 58.7107 333.55C59.0607 333.183 59.2357 332.683 59.2357 332.05V331.2C59.2357 330.566 59.0607 330.075 58.7107 329.725C58.3774 329.358 57.9357 329.175 57.3857 329.175C56.8191 329.175 56.3607 329.358 56.0107 329.725C55.6774 330.075 55.5107 330.566 55.5107 331.2V332.05C55.5107 332.683 55.6774 333.183 56.0107 333.55C56.3607 333.9 56.8191 334.075 57.3857 334.075ZM54.7607 318.5H57.5107L47.2607 336H44.5107L54.7607 318.5Z" fill="#23201F"/>
<path d="M654 381.999H499.5L404 303.999" stroke="#1C5F87"/>
<path d="M654.645 382H654C654 384.762 656.239 387 658.999 387C661.761 387 663.999 384.762 664 382C663.999 379.238 661.761 377 658.999 377C656.239 377 654 379.238 654 382H654.645H655.29C655.294 379.95 656.952 378.294 658.999 378.29C661.048 378.294 662.706 379.95 662.71 382C662.706 384.049 661.048 385.706 658.999 385.71C656.952 385.706 655.294 384.049 655.29 382H654.645Z" fill="#1C5F87"/>
<path d="M509.64 352.824H503.56V363H502.44V351.8H510.76V363H509.64V352.824ZM516.603 363.112C516.07 363.112 515.584 363.027 515.147 362.856C514.72 362.685 514.352 362.44 514.043 362.12C513.734 361.8 513.494 361.411 513.323 360.952C513.163 360.483 513.083 359.949 513.083 359.352V358.648C513.083 358.061 513.168 357.539 513.339 357.08C513.51 356.611 513.744 356.216 514.043 355.896C514.352 355.565 514.72 355.315 515.147 355.144C515.584 354.973 516.07 354.888 516.603 354.888C517.136 354.888 517.616 354.973 518.043 355.144C518.48 355.315 518.854 355.56 519.163 355.88C519.472 356.2 519.707 356.595 519.867 357.064C520.038 357.533 520.123 358.061 520.123 358.648V359.352C520.123 359.939 520.038 360.467 519.867 360.936C519.696 361.395 519.456 361.789 519.147 362.12C518.848 362.44 518.48 362.685 518.043 362.856C517.606 363.027 517.126 363.112 516.603 363.112ZM516.603 362.12C517.328 362.12 517.915 361.885 518.363 361.416C518.811 360.936 519.035 360.248 519.035 359.352V358.648C519.035 357.763 518.806 357.08 518.347 356.6C517.899 356.12 517.318 355.88 516.603 355.88C515.878 355.88 515.291 356.12 514.843 356.6C514.395 357.069 514.171 357.752 514.171 358.648V359.352C514.171 360.237 514.395 360.92 514.843 361.4C515.302 361.88 515.888 362.12 516.603 362.12ZM524.84 359.32H523.416V363H522.36V355H523.416V358.36H524.84L527.128 355H528.44L525.8 358.856L528.76 363H527.448L524.84 359.32ZM533.025 363L529.713 355H530.897L533.601 361.688L536.113 355H537.233L532.913 366.2H531.793L533.025 363ZM544.169 355.96H540.041V363H538.985V355H545.225V363H544.169V355.96ZM550.418 359.32H548.994V363H547.938V355H548.994V358.36H550.418L552.706 355H554.018L551.378 358.856L554.338 363H553.026L550.418 359.32ZM557.858 363.112C557.058 363.112 556.445 362.909 556.018 362.504C555.591 362.088 555.378 361.517 555.378 360.792C555.378 360.408 555.437 360.061 555.554 359.752C555.682 359.432 555.879 359.165 556.146 358.952C556.423 358.739 556.775 358.573 557.202 358.456C557.629 358.339 558.141 358.28 558.738 358.28H560.562V357.56C560.562 356.984 560.418 356.563 560.13 356.296C559.853 356.019 559.389 355.88 558.738 355.88C558.151 355.88 557.709 355.997 557.41 356.232C557.122 356.456 556.957 356.765 556.914 357.16H555.778C555.799 356.829 555.874 356.525 556.002 356.248C556.13 355.971 556.317 355.731 556.562 355.528C556.807 355.325 557.111 355.171 557.474 355.064C557.837 354.947 558.258 354.888 558.738 354.888C559.687 354.888 560.402 355.123 560.882 355.592C561.373 356.061 561.618 356.717 561.618 357.56V363H560.802L560.642 361.496C560.365 362.008 559.981 362.408 559.49 362.696C559.01 362.973 558.466 363.112 557.858 363.112ZM557.938 362.12C558.301 362.12 558.642 362.056 558.962 361.928C559.282 361.789 559.559 361.608 559.794 361.384C560.039 361.149 560.226 360.883 560.354 360.584C560.493 360.275 560.562 359.949 560.562 359.608V359.24H558.738C557.917 359.24 557.33 359.384 556.978 359.672C556.637 359.96 556.466 360.333 556.466 360.792C556.466 361.197 556.589 361.523 556.834 361.768C557.09 362.003 557.458 362.12 557.938 362.12ZM570.171 363.112C569.371 363.112 568.757 362.909 568.331 362.504C567.904 362.088 567.691 361.517 567.691 360.792C567.691 360.408 567.749 360.061 567.867 359.752C567.995 359.432 568.192 359.165 568.459 358.952C568.736 358.739 569.088 358.573 569.515 358.456C569.941 358.339 570.453 358.28 571.051 358.28H572.875V357.56C572.875 356.984 572.731 356.563 572.443 356.296C572.165 356.019 571.701 355.88 571.051 355.88C570.464 355.88 570.021 355.997 569.723 356.232C569.435 356.456 569.269 356.765 569.227 357.16H568.091C568.112 356.829 568.187 356.525 568.315 356.248C568.443 355.971 568.629 355.731 568.875 355.528C569.12 355.325 569.424 355.171 569.787 355.064C570.149 354.947 570.571 354.888 571.051 354.888C572 354.888 572.715 355.123 573.195 355.592C573.685 356.061 573.931 356.717 573.931 357.56V363H573.115L572.955 361.496C572.677 362.008 572.293 362.408 571.803 362.696C571.323 362.973 570.779 363.112 570.171 363.112ZM570.251 362.12C570.613 362.12 570.955 362.056 571.275 361.928C571.595 361.789 571.872 361.608 572.107 361.384C572.352 361.149 572.539 360.883 572.667 360.584C572.805 360.275 572.875 359.949 572.875 359.608V359.24H571.051C570.229 359.24 569.643 359.384 569.291 359.672C568.949 359.96 568.779 360.333 568.779 360.792C568.779 361.197 568.901 361.523 569.147 361.768C569.403 362.003 569.771 362.12 570.251 362.12ZM576.563 355H579.523C580.494 355 581.203 355.197 581.651 355.592C582.099 355.987 582.323 356.52 582.323 357.192C582.323 357.533 582.238 357.848 582.067 358.136C581.896 358.424 581.64 358.664 581.299 358.856C581.747 359.037 582.083 359.293 582.307 359.624C582.531 359.944 582.643 360.307 582.643 360.712C582.643 361.427 582.419 361.987 581.971 362.392C581.523 362.797 580.814 363 579.843 363H576.563V355ZM577.619 359.4V362.04H579.843C580.472 362.04 580.915 361.928 581.171 361.704C581.427 361.48 581.555 361.149 581.555 360.712C581.555 360.285 581.427 359.96 581.171 359.736C580.915 359.512 580.472 359.4 579.843 359.4H577.619ZM577.619 355.96V358.44H579.523C580.152 358.44 580.595 358.333 580.851 358.12C581.107 357.896 581.235 357.587 581.235 357.192C581.235 356.808 581.107 356.509 580.851 356.296C580.595 356.072 580.152 355.96 579.523 355.96H577.619ZM583.759 355H590.159V355.96H587.487V363H586.431V355.96H583.759V355ZM594.65 363.112C594.117 363.112 593.631 363.027 593.194 362.856C592.767 362.685 592.399 362.44 592.09 362.12C591.781 361.8 591.541 361.411 591.37 360.952C591.21 360.483 591.13 359.949 591.13 359.352V358.648C591.13 358.061 591.215 357.539 591.386 357.08C591.557 356.611 591.791 356.216 592.09 355.896C592.399 355.565 592.767 355.315 593.194 355.144C593.631 354.973 594.117 354.888 594.65 354.888C595.183 354.888 595.663 354.973 596.09 355.144C596.527 355.315 596.901 355.56 597.21 355.88C597.519 356.2 597.754 356.595 597.914 357.064C598.085 357.533 598.17 358.061 598.17 358.648V359.352C598.17 359.939 598.085 360.467 597.914 360.936C597.743 361.395 597.503 361.789 597.194 362.12C596.895 362.44 596.527 362.685 596.09 362.856C595.653 363.027 595.173 363.112 594.65 363.112ZM594.65 362.12C595.375 362.12 595.962 361.885 596.41 361.416C596.858 360.936 597.082 360.248 597.082 359.352V358.648C597.082 357.763 596.853 357.08 596.394 356.6C595.946 356.12 595.365 355.88 594.65 355.88C593.925 355.88 593.338 356.12 592.89 356.6C592.442 357.069 592.218 357.752 592.218 358.648V359.352C592.218 360.237 592.442 360.92 592.89 361.4C593.349 361.88 593.935 362.12 594.65 362.12ZM602.327 357.88L601.463 356.152V363H600.407V355H601.879L604.503 359.944L607.127 355H608.567V363H607.511V356.152L606.647 357.88L605.015 361H603.959L602.327 357.88ZM614.322 363.112C613.789 363.112 613.303 363.027 612.866 362.856C612.439 362.685 612.071 362.44 611.762 362.12C611.453 361.8 611.213 361.411 611.042 360.952C610.882 360.483 610.802 359.949 610.802 359.352V358.648C610.802 358.061 610.887 357.539 611.058 357.08C611.229 356.611 611.463 356.216 611.762 355.896C612.071 355.565 612.439 355.315 612.866 355.144C613.303 354.973 613.789 354.888 614.322 354.888C614.855 354.888 615.335 354.973 615.762 355.144C616.199 355.315 616.573 355.56 616.882 355.88C617.191 356.2 617.426 356.595 617.586 357.064C617.757 357.533 617.842 358.061 617.842 358.648V359.352C617.842 359.939 617.757 360.467 617.586 360.936C617.415 361.395 617.175 361.789 616.866 362.12C616.567 362.44 616.199 362.685 615.762 362.856C615.325 363.027 614.845 363.112 614.322 363.112ZM614.322 362.12C615.047 362.12 615.634 361.885 616.082 361.416C616.53 360.936 616.754 360.248 616.754 359.352V358.648C616.754 357.763 616.525 357.08 616.066 356.6C615.618 356.12 615.037 355.88 614.322 355.88C613.597 355.88 613.01 356.12 612.562 356.6C612.114 357.069 611.89 357.752 611.89 358.648V359.352C611.89 360.237 612.114 360.92 612.562 361.4C613.021 361.88 613.607 362.12 614.322 362.12ZM623.135 363.112C622.591 363.112 622.1 363.027 621.663 362.856C621.225 362.685 620.852 362.419 620.543 362.056C620.244 361.693 620.009 361.235 619.839 360.68C619.679 360.125 619.599 359.469 619.599 358.712V357.688C619.599 357.144 619.625 356.616 619.679 356.104C619.732 355.592 619.823 355.117 619.951 354.68C620.089 354.243 620.276 353.853 620.511 353.512C620.745 353.171 621.049 352.888 621.423 352.664C621.753 352.472 622.079 352.344 622.399 352.28C622.729 352.205 623.076 352.152 623.439 352.12C623.801 352.088 624.191 352.051 624.607 352.008C625.023 351.955 625.487 351.848 625.999 351.688V352.664C625.593 352.813 625.199 352.909 624.815 352.952C624.441 352.995 624.079 353.032 623.727 353.064C623.385 353.096 623.06 353.139 622.751 353.192C622.441 353.245 622.159 353.352 621.903 353.512C621.497 353.779 621.193 354.147 620.991 354.616C620.799 355.075 620.671 355.688 620.607 356.456C620.884 355.987 621.252 355.635 621.711 355.4C622.18 355.165 622.719 355.048 623.327 355.048C623.807 355.048 624.249 355.133 624.655 355.304C625.06 355.475 625.407 355.72 625.695 356.04C625.993 356.349 626.223 356.733 626.383 357.192C626.553 357.64 626.639 358.152 626.639 358.728V359.432C626.639 359.997 626.553 360.509 626.383 360.968C626.212 361.416 625.972 361.8 625.663 362.12C625.353 362.44 624.985 362.685 624.559 362.856C624.132 363.027 623.657 363.112 623.135 363.112ZM623.135 356.04C622.399 356.04 621.812 356.259 621.375 356.696C620.937 357.133 620.708 357.768 620.687 358.6V359.432C620.687 360.285 620.911 360.947 621.359 361.416C621.807 361.885 622.399 362.12 623.135 362.12C623.871 362.12 624.457 361.891 624.895 361.432C625.332 360.963 625.551 360.296 625.551 359.432V358.728C625.551 357.864 625.327 357.203 624.879 356.744C624.441 356.275 623.86 356.04 623.135 356.04ZM634.38 356.216L633.388 357.88L630.188 363H628.876V355H629.932V361.8L630.924 360.12L634.124 355H635.436V363H634.38V356.216ZM637.117 362.12H637.357C637.549 362.12 637.725 362.077 637.885 361.992C638.056 361.896 638.2 361.725 638.317 361.48C638.445 361.235 638.541 360.904 638.605 360.488C638.68 360.061 638.717 359.512 638.717 358.84V355H644.157V363H643.101V355.96H639.773V358.84C639.773 359.672 639.714 360.365 639.597 360.92C639.49 361.464 639.33 361.901 639.117 362.232C638.904 362.552 638.648 362.781 638.349 362.92C638.05 363.048 637.72 363.112 637.357 363.112H637.117V362.12ZM646.396 357.512C646.396 356.723 646.646 356.109 647.148 355.672C647.66 355.224 648.502 355 649.676 355H652.316V363H651.26V360.024H649.676C649.537 360.024 649.404 360.024 649.276 360.024C649.148 360.024 649.025 360.013 648.908 359.992L647.292 363H646.076L647.868 359.768C647.345 359.576 646.966 359.288 646.732 358.904C646.508 358.52 646.396 358.056 646.396 357.512ZM647.484 357.512C647.484 358.013 647.644 358.397 647.964 358.664C648.284 358.931 648.854 359.064 649.676 359.064H651.26V355.96H649.676C648.854 355.96 648.284 356.093 647.964 356.36C647.644 356.627 647.484 357.011 647.484 357.512Z" fill="#23201F"/>
<path d="M501.875 337.35L507.525 331.925C508.075 331.392 508.542 330.925 508.925 330.525C509.308 330.125 509.608 329.758 509.825 329.425C510.058 329.092 510.225 328.783 510.325 328.5C510.425 328.217 510.475 327.925 510.475 327.625C510.475 326.858 510.233 326.242 509.75 325.775C509.267 325.308 508.6 325.075 507.75 325.075C506.9 325.075 506.233 325.317 505.75 325.8C505.267 326.283 505.025 326.975 505.025 327.875H501.875C501.875 327.025 502.008 326.258 502.275 325.575C502.542 324.875 502.925 324.283 503.425 323.8C503.942 323.317 504.558 322.942 505.275 322.675C506.008 322.408 506.833 322.275 507.75 322.275C508.667 322.275 509.483 322.408 510.2 322.675C510.933 322.925 511.55 323.292 512.05 323.775C512.567 324.242 512.958 324.808 513.225 325.475C513.492 326.125 513.625 326.842 513.625 327.625C513.625 328.608 513.308 329.575 512.675 330.525C512.042 331.475 511.058 332.558 509.725 333.775L505.8 337.35H513.625V340H501.875V337.35ZM516.87 322.5H526.995V325.15H519.545L519.245 329.05C520.095 328.4 521.137 328.075 522.37 328.075C523.22 328.075 523.995 328.217 524.695 328.5C525.412 328.783 526.02 329.192 526.52 329.725C527.02 330.258 527.412 330.9 527.695 331.65C527.978 332.4 528.12 333.233 528.12 334.15C528.12 335.067 527.978 335.9 527.695 336.65C527.412 337.4 526.995 338.042 526.445 338.575C525.912 339.092 525.253 339.5 524.47 339.8C523.703 340.083 522.837 340.225 521.87 340.225C521.07 340.225 520.32 340.125 519.62 339.925C518.92 339.708 518.295 339.4 517.745 339C517.212 338.6 516.762 338.117 516.395 337.55C516.028 336.967 515.77 336.3 515.62 335.55H518.77C519.02 336.167 519.412 336.633 519.945 336.95C520.495 337.267 521.137 337.425 521.87 337.425C522.82 337.425 523.57 337.142 524.12 336.575C524.687 336.008 524.97 335.2 524.97 334.15C524.97 333.1 524.687 332.292 524.12 331.725C523.57 331.158 522.82 330.875 521.87 330.875C521.22 330.875 520.645 331.008 520.145 331.275C519.662 331.542 519.287 331.875 519.02 332.275H516.12L516.87 322.5ZM533.756 331.475C533.089 331.475 532.489 331.375 531.956 331.175C531.423 330.958 530.964 330.667 530.581 330.3C530.198 329.933 529.898 329.5 529.681 329C529.481 328.483 529.381 327.917 529.381 327.3V326.45C529.381 325.833 529.481 325.275 529.681 324.775C529.898 324.258 530.198 323.817 530.581 323.45C530.964 323.083 531.423 322.8 531.956 322.6C532.489 322.383 533.089 322.275 533.756 322.275C534.423 322.275 535.023 322.383 535.556 322.6C536.089 322.8 536.548 323.083 536.931 323.45C537.314 323.817 537.606 324.258 537.806 324.775C538.023 325.275 538.131 325.833 538.131 326.45V327.3C538.131 327.917 538.023 328.483 537.806 329C537.606 329.5 537.314 329.933 536.931 330.3C536.548 330.667 536.089 330.958 535.556 331.175C535.023 331.375 534.423 331.475 533.756 331.475ZM533.756 329.325C534.306 329.325 534.748 329.15 535.081 328.8C535.431 328.433 535.606 327.933 535.606 327.3V326.45C535.606 325.817 535.431 325.325 535.081 324.975C534.748 324.608 534.306 324.425 533.756 324.425C533.189 324.425 532.731 324.608 532.381 324.975C532.048 325.325 531.881 325.817 531.881 326.45V327.3C531.881 327.933 532.048 328.433 532.381 328.8C532.731 329.15 533.189 329.325 533.756 329.325ZM546.506 340.225C545.839 340.225 545.239 340.125 544.706 339.925C544.173 339.708 543.714 339.417 543.331 339.05C542.948 338.683 542.648 338.25 542.431 337.75C542.231 337.233 542.131 336.667 542.131 336.05V335.2C542.131 334.583 542.231 334.025 542.431 333.525C542.648 333.008 542.948 332.567 543.331 332.2C543.714 331.833 544.173 331.55 544.706 331.35C545.239 331.133 545.839 331.025 546.506 331.025C547.173 331.025 547.773 331.133 548.306 331.35C548.839 331.55 549.298 331.833 549.681 332.2C550.064 332.567 550.356 333.008 550.556 333.525C550.773 334.025 550.881 334.583 550.881 335.2V336.05C550.881 336.667 550.773 337.233 550.556 337.75C550.356 338.25 550.064 338.683 549.681 339.05C549.298 339.417 548.839 339.708 548.306 339.925C547.773 340.125 547.173 340.225 546.506 340.225ZM546.506 338.075C547.056 338.075 547.498 337.9 547.831 337.55C548.181 337.183 548.356 336.683 548.356 336.05V335.2C548.356 334.567 548.181 334.075 547.831 333.725C547.498 333.358 547.056 333.175 546.506 333.175C545.939 333.175 545.481 333.358 545.131 333.725C544.798 334.075 544.631 334.567 544.631 335.2V336.05C544.631 336.683 544.798 337.183 545.131 337.55C545.481 337.9 545.939 338.075 546.506 338.075ZM543.881 322.5H546.631L536.381 340H533.631L543.881 322.5Z" fill="#23201F"/>
<path d="M339.843 374.607V324.075V366.564C370.183 366.377 400.466 354.617 423.614 331.271C446.763 307.925 458.423 277.385 458.608 246.787H416.48H466.584C466.584 277.79 455.468 308.793 433.24 333.197C433.024 333.434 432.805 333.672 432.587 333.908C431.568 335.01 430.528 336.096 429.463 337.17C404.715 362.128 372.278 374.607 339.843 374.607Z" fill="#1C5F87"/>
<path d="M339.843 366.564V324.075C361.456 323.874 380.921 314.743 394.834 300.179L399.191 295.228C409.857 281.988 416.31 265.155 416.48 246.787H458.608C458.423 277.385 446.763 307.925 423.614 331.271C400.466 354.617 370.183 366.377 339.843 366.564Z" fill="#1C5F87"/>
<path d="M339.843 407.999C298.933 407.999 258.024 392.26 226.81 360.78C222.74 356.677 218.934 352.404 215.395 347.988C215.193 347.737 214.993 347.485 214.793 347.233C183.661 307.911 173.426 257.309 184.068 210.56L244.247 224.554L193.563 212.767C182.664 261.462 196.001 314.559 233.588 352.467C262.726 381.852 300.918 396.539 339.108 396.54C339.354 396.54 339.596 396.539 339.843 396.538V407.999Z" fill="#FA5B3D"/>
<path d="M339.108 396.54C300.918 396.539 262.726 381.852 233.588 352.467C196.001 314.559 182.664 261.462 193.563 212.767L244.247 224.554L263.577 229.05C262.372 234.519 261.737 240.209 261.737 246.047C261.737 259.32 265.025 271.809 270.808 282.745L275.424 290.375C289.378 310.739 312.68 324.079 339.11 324.079C339.355 324.079 339.598 324.078 339.843 324.075L339.843 396.538C339.596 396.539 339.354 396.54 339.108 396.54Z" fill="#FA5B3D"/>
<path d="M207.614 216.036L198.388 213.89C204.281 188.011 217.212 163.432 237.202 143.271C238.664 141.797 240.15 140.359 241.658 138.961C241.895 138.742 242.13 138.525 242.368 138.307C262.757 119.645 287.141 107.881 312.566 102.999L325.14 169.284L314.348 112.398C288.498 117.245 263.781 129.744 243.784 149.911C225.08 168.774 213.028 191.803 207.614 216.036Z" fill="#0DAB76"/>
<path d="M263.577 229.05L207.614 216.036C213.028 191.803 225.08 168.774 243.784 149.911C263.781 129.744 288.498 117.245 314.348 112.398L325.14 169.284C312.225 171.659 300.437 177.266 290.618 185.237L286.015 189.292C274.972 199.803 266.99 213.555 263.577 229.05Z" fill="#0DAB76"/>
<path d="M393.575 141.225C376.576 132.235 357.848 127.742 339.123 127.742C331.927 127.742 324.734 128.405 317.637 129.731L316.028 121.25C324.005 119.705 331.985 118.964 339.858 118.964C346.617 118.964 353.3 119.51 359.825 120.563C360.143 120.614 360.458 120.666 360.774 120.719C360.887 120.738 361 120.758 361.113 120.777L361.114 120.77C369.66 122.229 378.547 124.776 386.168 127.801L386.166 127.807C390.086 129.359 393.952 131.093 397.735 133.052L393.575 141.224" fill="#FABA3D"/>
<path d="M375.328 177.071C368.844 173.604 361.811 171.038 354.391 169.542L347.763 168.513C344.921 168.194 342.036 168.017 339.11 168.017C334.339 168.017 329.671 168.451 325.14 169.284L317.637 129.731C324.734 128.405 331.927 127.742 339.123 127.742C357.848 127.742 376.576 132.235 393.575 141.225L375.328 177.071Z" fill="#FABA3D"/>
<path d="M473.913 246.787H416.48C416.482 246.541 416.483 246.294 416.483 246.048C416.483 233.308 413.444 221.297 408.086 210.681L404.783 204.773C397.573 193.121 387.404 183.531 375.329 177.072L401.568 125.524C413.395 131.763 424.498 139.889 434.435 149.911C460.945 176.647 474.099 211.746 473.913 246.787Z" fill="#3DCDFA"/>
<path d="M485 246.787H473.913C474.099 211.746 460.945 176.647 434.435 149.911C424.498 139.889 413.395 131.763 401.567 125.524L406.148 116.527C419.235 123.307 431.52 132.215 442.485 143.272C448.198 149.035 453.338 155.16 457.9 161.571C458.087 161.835 458.272 162.096 458.457 162.361C476.151 187.582 485 217.186 485 246.787Z" fill="#3DCDFA"/>
</svg>
