<svg width="5" height="8" viewBox="0 0 5 8" fill="none" xmlns="http://www.w3.org/2000/svg">
<path d="M2.7027 4.31746C3.96943 4.31746 5 3.34905 5 2.15873C5 0.968406 3.96943 0 2.7027 0C2.69776 0 2.69284 7.61905e-05 2.68795 0.000253968H0.811351L0.405432 0L0.405432 0.381181V3.93651V5.07936H0V5.84127H0.405405V8H1.21622V5.84127H2.7027V5.07936H1.21622V4.31746H2.7027ZM2.7027 0.762159C2.70708 0.762159 2.71146 0.762083 2.71578 0.761956C3.52946 0.768559 4.18919 1.39261 4.18919 2.15873C4.18919 2.92894 3.52235 3.55556 2.7027 3.55556H1.21622V0.762159H2.7027Z" fill="#23201F"/>
</svg>
