<svg width="14" height="12" viewBox="0 0 14 12" fill="none" xmlns="http://www.w3.org/2000/svg">
<path d="M13.9993 1.42453C13.475 1.66904 12.9189 1.82962 12.3496 1.90096C12.9497 1.52259 13.3988 0.927119 13.6133 0.225505C13.0501 0.578841 12.4327 0.826466 11.7891 0.960415C11.3569 0.472825 10.7839 0.149453 10.1593 0.040572C9.53472 -0.0683095 8.8935 0.0434003 8.33535 0.358334C7.77719 0.673268 7.33337 1.17378 7.07288 1.78206C6.81239 2.39034 6.74983 3.07231 6.89492 3.72194C5.75282 3.66159 4.63553 3.34871 3.61558 2.8036C2.59563 2.25849 1.69583 1.49335 0.974588 0.557844C0.719293 1.02011 0.585134 1.54561 0.585852 2.08052C0.585852 3.13039 1.09272 4.0579 1.86332 4.60094C1.40729 4.5858 0.961286 4.45597 0.5625 4.22226V4.25991C0.562638 4.95912 0.792149 5.63677 1.21212 6.17796C1.63209 6.71915 2.21668 7.09056 2.86676 7.22924C2.44342 7.35018 1.99952 7.36801 1.56868 7.28137C1.75197 7.88322 2.10921 8.40958 2.59038 8.78675C3.07155 9.16391 3.65256 9.373 4.25206 9.38473C3.65624 9.87804 2.97402 10.2427 2.24442 10.4579C1.51482 10.6731 0.752148 10.7345 0 10.6388C1.31298 11.529 2.84141 12.0015 4.40247 12C9.68613 12 12.5756 7.38563 12.5756 3.38381C12.5756 3.25348 12.5721 3.1217 12.5666 2.99282C13.129 2.56431 13.6144 2.03347 14 1.42526L13.9993 1.42453Z" fill="#23201F"/>
</svg>
